<?xml version="1.0" encoding="UTF-8" standalone="no"?>
<!-- Created with Inkscape (http://www.inkscape.org/) -->

<svg
   xmlns:dc="http://purl.org/dc/elements/1.1/"
   xmlns:cc="http://creativecommons.org/ns#"
   xmlns:rdf="http://www.w3.org/1999/02/22-rdf-syntax-ns#"
   xmlns:svg="http://www.w3.org/2000/svg"
   xmlns="http://www.w3.org/2000/svg"
   xmlns:sodipodi="http://sodipodi.sourceforge.net/DTD/sodipodi-0.dtd"
   xmlns:inkscape="http://www.inkscape.org/namespaces/inkscape"
   version="1.1"
   id="svg815"
   width="49.796371"
   height="59.965565"
   viewBox="0 0 49.796371 59.965565"
   sodipodi:docname="albert.svg"
   inkscape:version="0.92.3 (2405546, 2018-03-11)">
  <metadata
     id="metadata821">
    <rdf:RDF>
      <cc:Work
         rdf:about="">
        <dc:format>image/svg+xml</dc:format>
        <dc:type
           rdf:resource="http://purl.org/dc/dcmitype/StillImage" />
        <dc:title />
      </cc:Work>
    </rdf:RDF>
  </metadata>
  <defs
     id="defs819">
    <path
       style="opacity:1;fill:none;fill-opacity:1;fill-rule:evenodd;stroke:none;stroke-width:1.88976383;stroke-linecap:square;stroke-linejoin:miter;stroke-miterlimit:4;stroke-dasharray:11.33858268, 11.33858268;stroke-dashoffset:0;stroke-opacity:1"
       d="m -517.58266,180.1028 a 190.68254,99.948845 0 0 0 180.71271,63.76689 190.68254,99.948845 0 0 0 176.85702,-66.67086"
       id="path837-0"
       inkscape:connector-curvature="0" />
  </defs>
  <sodipodi:namedview
     pagecolor="#ffffff"
     bordercolor="#666666"
     borderopacity="1"
     objecttolerance="10"
     gridtolerance="10"
     guidetolerance="10"
     inkscape:pageopacity="0"
     inkscape:pageshadow="2"
     inkscape:window-width="1920"
     inkscape:window-height="1001"
     id="namedview817"
     showgrid="false"
     fit-margin-top="0"
     fit-margin-left="0"
     fit-margin-right="0"
     fit-margin-bottom="0"
     inkscape:zoom="22.571546"
     inkscape:cx="24.379465"
     inkscape:cy="8.7763356"
     inkscape:window-x="-9"
     inkscape:window-y="-9"
     inkscape:window-maximized="1"
     inkscape:current-layer="svg815" />
  <path
     style="fill:none;fill-opacity:1;stroke:#ff0000;stroke-width:0.10351107;stroke-opacity:1"
     d="m 19.381235,45.562137 c -0.473271,-0.186161 -0.79178,-0.452703 -1.888075,-1.58003 -0.770644,-0.792458 -1.408618,-1.54569 -1.534955,-1.812261 -0.118905,-0.250893 -0.588107,-0.870972 -1.04267,-1.377952 -1.36933,-1.527235 -2.442628,-3.307189 -3.107144,-5.152876 -0.222119,-0.616933 -0.242518,-0.840488 -0.245578,-2.691288 -0.0018,-1.110156 -0.04068,-2.097186 -0.08633,-2.1934 -0.04564,-0.09621 -0.194558,-0.248038 -0.33092,-0.337387 -0.136362,-0.08935 -0.319967,-0.301752 -0.408011,-0.472009 -0.08804,-0.170257 -0.222131,-0.309559 -0.297973,-0.309559 -0.07584,0 -0.4506708,0.163031 -0.8329527,0.36229 -0.7358508,0.383551 -1.1975692,0.465354 -1.1975692,0.212175 0,-0.08256 0.3965829,-0.481358 0.8812963,-0.886211 1.1362286,-0.949025 1.9002306,-1.969525 2.1689216,-2.897096 0.06228,-0.214994 0.01636,-0.188725 -0.271373,0.155266 -0.818207,0.978169 -1.5082983,1.469512 -2.6417879,1.880948 -1.3853416,0.502851 -1.3628352,0.169331 0.052806,-0.782545 1.5325379,-1.030475 2.3256739,-2.113297 2.1210579,-2.895752 -0.08095,-0.309541 -0.310644,-0.256122 -1.5542686,0.361464 -0.8949153,0.444417 -1.1706967,0.496107 -1.1706967,0.219428 0,-0.06456 0.6005619,-0.703555 1.3345828,-1.419998 1.5876605,-1.549643 1.7271775,-1.822071 1.4103985,-2.754018 -0.104956,-0.308778 -0.249963,-0.561413 -0.322235,-0.561413 -0.159505,0 -0.4177813,0.360812 -0.862499,1.204915 C 9.1863367,22.535077 8.6949334,23.071616 8.5209841,22.96411 8.3531326,22.860377 8.3837574,22.618999 8.6661066,21.82029 8.9561902,20.999704 9.0013862,20.143154 8.7774518,19.710113 8.695411,19.551463 8.4622481,19.295015 8.2593125,19.140228 7.9560768,18.908939 7.9086511,18.82458 7.9931234,18.66674 c 0.1349817,-0.252215 0.6718149,-0.578002 1.4640058,-0.88846 0.6980298,-0.273555 1.0221548,-0.511206 1.0221548,-0.74945 0,-0.125061 -0.128751,-0.143922 -0.7023335,-0.102883 -0.8732255,0.06248 -1.3570105,0.287077 -1.9970909,0.927158 -0.2747588,0.274759 -0.5301195,0.499562 -0.5674674,0.499562 -0.130811,0 0.073682,-0.573034 0.3461886,-0.970098 0.3881366,-0.565545 1.1911434,-1.075267 1.9197942,-1.21862 0.798413,-0.157078 1.126262,-0.45025 1.586,-1.418249 0.206949,-0.435738 0.497669,-0.892881 0.646045,-1.015874 0.148376,-0.122991 0.236293,-0.257397 0.195371,-0.298676 -0.115631,-0.116646 -0.599364,0.246883 -0.789474,0.593293 -0.559436,1.019378 -1.024213,1.406255 -1.4847478,1.235892 l -0.2287097,-0.08461 0.266071,-0.248851 c 0.1463388,-0.136868 0.3885335,-0.350132 0.5382115,-0.47392 0.149678,-0.123794 0.272142,-0.302959 0.272142,-0.398159 0,-0.329344 -1.0396916,0.369849 -1.4807616,0.995814 -0.2166414,0.307456 -0.4495413,0.559012 -0.5175553,0.559012 -0.210527,0 -0.198112,-0.533072 0.022484,-0.965477 0.2698269,-0.528902 0.7039285,-0.880882 1.8555169,-1.504494 0.511139,-0.276794 1.096662,-0.64118 1.301163,-0.809747 0.34895,-0.287634 0.371819,-0.343487 0.371819,-0.908127 0,-0.921015 0.268055,-1.6028479 0.897378,-2.2825918 1.473423,-1.5914727 4.324822,-2.0125442 6.684807,-0.9871586 0.137898,0.059915 0.181144,0.029958 0.181144,-0.125484 0,-0.1123046 0.164658,-0.5333219 0.365907,-0.9355948 0.85462,-1.7082848 2.739945,-2.7062817 5.726169,-3.031148 0.854301,-0.092938 1.284535,-0.083302 2.366902,0.053011 2.449027,0.3084285 3.655709,0.6425797 4.656618,1.2894979 0.716647,0.463192 1.076564,0.8695127 1.482465,1.6735943 0.246934,0.4891751 0.402934,0.6545141 0.869296,0.9213396 0.983608,0.5627635 1.802416,1.7150214 2.283313,3.2131604 0.100509,0.313121 0.357724,0.802211 0.571586,1.086867 0.525179,0.699026 0.645999,0.959686 1.031555,2.225489 0.345079,1.132907 1.186405,2.853225 1.873029,3.829909 0.220128,0.313121 0.902349,1.014428 1.516047,1.558462 0.613696,0.544032 1.131008,1.068056 1.149581,1.164499 0.05325,0.27653 -0.506835,0.220588 -0.976199,-0.0975 -0.72411,-0.490733 -2.152571,-1.781322 -2.618481,-2.36575 -0.250901,-0.314724 -0.470256,-0.558151 -0.487458,-0.540948 -0.06907,0.06907 0.303142,1.283513 0.531461,1.734078 0.353063,0.696737 0.849582,1.078107 2.289947,1.758881 2.315411,1.094355 2.909416,1.989575 3.277688,4.939779 0.07284,0.583544 0.09749,1.060989 0.05478,1.060989 -0.04272,0 -0.175024,-0.337706 -0.294017,-0.750456 -0.541897,-1.879674 -0.655382,-2.223428 -0.879082,-2.662799 -0.131167,-0.257625 -0.364951,-0.58486 -0.519519,-0.727188 -0.26623,-0.245147 -0.259222,-0.215158 0.133058,0.56931 0.938808,1.877401 1.37093,3.623023 1.367819,5.525524 -0.0031,1.904735 -0.477695,3.395964 -1.361899,4.279367 -0.355849,0.355528 -0.6602,0.524232 -1.482859,0.821964 -0.56931,0.206041 -1.54749,0.572314 -2.173732,0.813941 -1.205969,0.465306 -2.018466,0.633515 -2.018466,0.417879 0,-0.224378 0.231809,-0.567443 0.818488,-1.211317 0.654165,-0.717937 1.457823,-1.996563 1.82272,-2.899957 0.742761,-1.838889 0.423431,-3.753056 -0.856579,-5.134629 -0.276467,-0.298403 -0.813014,-0.945115 -1.192328,-1.437139 -1.010443,-1.310686 -1.807731,-1.886915 -2.206923,-1.595018 -0.174851,0.127855 -0.152581,0.189104 0.345738,0.950844 0.885364,1.353389 1.244509,2.417038 1.338934,3.9654 0.08781,1.43982 -0.359923,3.042686 -0.987892,3.536646 -0.302217,0.237723 -0.871311,0.254883 -1.093229,0.03297 -0.08947,-0.08947 -0.162661,-0.172738 -0.162661,-0.185056 0,-0.01237 0.140515,-0.425305 0.312255,-0.91775 0.412381,-1.182451 0.545744,-2.267087 0.411544,-3.347043 -0.223439,-1.798084 -0.80446,-3.030666 -2.113129,-4.482804 -1.130076,-1.253966 -1.372579,-1.748169 -0.939388,-1.9144 0.341626,-0.131095 1.843355,0.513873 2.583886,1.109736 0.22971,0.184834 0.883454,0.655381 1.452764,1.04566 2.587633,1.773894 3.895105,3.164352 4.756368,5.058255 l 0.335706,0.738211 0.127518,-0.386387 c 0.394915,-1.196614 -0.539273,-2.384924 -4.292974,-5.460776 -1.533315,-1.256428 -2.078924,-1.771114 -2.498368,-2.356766 -0.554992,-0.774915 -1.069236,-1.954842 -1.352838,-3.104078 -0.13507,-0.547345 -0.227491,-0.70945 -0.534322,-0.937191 -0.995471,-0.738879 -1.58537,-1.513236 -2.86653,-3.762875 -0.998321,-1.752991 -0.960836,-1.714345 -1.441595,-1.486211 -0.28926,0.137263 -0.408427,0.151492 -0.498721,0.05954 -0.08955,-0.09119 -0.05558,-0.172322 0.138577,-0.330896 l 0.25722,-0.210082 -0.25722,-0.209826 c -0.233293,-0.190308 -0.353507,-0.20407 -1.29233,-0.147936 -1.030309,0.0616 -1.513984,-0.0304 -1.205568,-0.229326 0.370329,-0.238857 -0.458684,-0.8412518 -1.157727,-0.8412518 -0.35667,0 -0.363194,-0.00733 -0.276238,-0.3105333 0.107843,-0.3760083 -0.02393,-0.4122488 -0.188187,-0.051755 -0.124132,0.2724403 -0.318886,0.3313658 -0.49921,0.1510427 -0.15531,-0.1553107 -0.935879,0.04074 -1.218202,0.3059673 -0.517823,0.4864711 -0.816492,0.1354301 -0.82917,-0.9745654 -0.0045,-0.3985176 0.02747,-1.0273473 0.07117,-1.3973994 l 0.07944,-0.672822 -0.252486,0.2810179 c -0.481721,0.5361575 -0.578163,1.8521894 -0.211825,2.8905012 0.228006,0.6462368 0.01781,0.6716218 -0.62847,0.075897 l -0.463488,-0.4272272 0.0045,0.2978386 c 0.0025,0.1638106 0.07167,0.4841576 0.153708,0.7118816 0.190951,0.530034 0.193423,0.879844 0.0062,0.879844 -0.201644,0 -0.635565,-0.537939 -0.88042,-1.091473 -0.210583,-0.4760575 -0.345978,-0.5969099 -0.313745,-0.280048 0.03735,0.367201 -0.01174,0.439922 -0.297314,0.439922 -0.185144,0 -0.450023,-0.135346 -0.724241,-0.370066 L 19.381905,9.8492054 19.108829,10.064005 c -0.183935,0.144688 -0.424215,0.2148 -0.73613,0.2148 -0.442246,0 -0.460143,0.01163 -0.398113,0.258777 0.05273,0.210103 0.02678,0.258778 -0.137936,0.258778 -0.11159,0 -0.232144,-0.04734 -0.267902,-0.105199 -0.07403,-0.119773 -0.257735,-0.03768 -0.257735,0.11517 0,0.05569 0.20961,0.304981 0.4658,0.553968 0.60916,0.592036 0.60916,0.808 0,1.117737 -0.170793,0.08684 -0.590012,0.214231 -0.931599,0.283086 -0.739101,0.148982 -1.394911,0.420153 -1.591218,0.657948 -0.19159,0.232085 -0.07219,0.216751 0.659619,-0.08471 0.341586,-0.140713 0.712561,-0.256947 0.824391,-0.258299 0.190841,-0.0022 0.192592,0.0082 0.02851,0.172365 -0.09615,0.09615 -0.487785,0.340696 -0.870293,0.543432 -0.707674,0.375081 -1.050406,0.733084 -0.502321,0.524701 0.346012,-0.131553 0.778495,-0.135098 0.778495,-0.0064 0,0.05388 -0.271037,0.196776 -0.602304,0.317562 -0.331266,0.120784 -0.738842,0.332073 -0.905722,0.469527 l -0.303418,0.249916 0.329107,-0.109254 c 0.18101,-0.0601 0.456899,-0.0942 0.613084,-0.0758 0.555563,0.06546 0.379111,0.284012 -0.610074,0.755652 -1.050597,0.500918 -1.553769,0.876169 -0.827364,0.617023 0.698219,-0.249092 1.920588,-0.134742 1.736892,0.162481 -0.03192,0.05165 -0.340017,0.173031 -0.684656,0.269732 -1.224486,0.343573 -2.471944,1.416333 -2.471944,2.125766 0,0.162251 0.02924,0.295002 0.06497,0.295002 0.03574,0 0.37344,-0.227316 0.750455,-0.505148 1.597337,-1.177114 3.032621,-1.546934 3.641322,-0.938233 0.110691,0.11069 0.201249,0.298982 0.201249,0.418434 0,0.204504 -0.03635,0.212967 -0.622428,0.144945 l -0.62243,-0.07224 0.109092,0.286949 c 0.179678,0.472588 0.0633,0.597999 -0.496725,0.53529 -0.622857,-0.06974 -1.402494,0.131849 -1.744849,0.451169 -0.371697,0.346688 -0.675588,0.987282 -1.124365,2.370123 l -0.386318,1.190377 -0.01037,3.001822 c -0.0057,1.651001 0.0277,3.35117 0.07422,3.778154 0.06305,0.578631 0.04225,0.996717 -0.08165,1.641734 -0.245747,1.279314 -0.213916,1.573177 0.353715,3.265495 0.917029,2.733993 2.250285,5.044832 4.186015,7.255321 1.205467,1.376575 1.715073,1.848933 2.347912,2.176312 1.727497,0.893661 4.519431,0.305202 7.413952,-1.562648 0.918399,-0.592648 0.931864,-0.607353 0.987696,-1.078781 0.03113,-0.262869 0.25195,-0.962456 0.490705,-1.55464 0.361733,-0.897205 0.44142,-1.22411 0.478009,-1.96098 0.06381,-1.285073 0.124976,-1.61116 0.274138,-1.461459 0.190703,0.191392 0.121621,1.982035 -0.123845,3.210018 -0.11876,0.594095 -0.198391,1.097702 -0.176969,1.119124 0.08443,0.08443 0.822669,-0.661949 1.257685,-1.271569 0.88095,-1.234541 1.568402,-2.951365 2.677481,-6.686668 0.145982,-0.491655 0.361482,-1.004034 0.478891,-1.138622 l 0.213469,-0.244705 -0.06788,0.517555 c -0.03734,0.284656 -0.23089,1.053225 -0.430122,1.707933 -0.546971,1.797442 -1.060058,3.82991 -0.966843,3.82991 0.1159,0 0.726434,-0.689932 1.131401,-1.278531 0.718368,-1.044112 1.42163,-3.122596 1.616269,-4.776867 0.0688,-0.584804 0.06271,-0.61114 -0.10452,-0.451074 -0.09767,0.0935 -0.347634,0.652456 -0.555461,1.242133 -0.207827,0.589677 -0.424119,1.058618 -0.48065,1.04209 -0.204189,-0.0597 -0.06401,-0.943204 0.341495,-2.152248 0.949251,-2.830297 1.990404,-4.601902 1.987223,-3.381422 -5.17e-4,0.213492 -0.117011,0.637337 -0.258777,0.941879 -0.314234,0.675009 -0.319497,0.803367 -0.0391,0.953434 0.188258,0.100747 0.209255,0.176844 0.150963,0.547074 -0.103695,0.658635 -0.976731,3.649308 -1.31122,4.491746 -0.622362,1.567472 -1.582691,2.850213 -2.496916,3.335208 -0.302531,0.160493 -0.627311,0.487261 -1.013492,1.019695 -0.797411,1.099406 -2.567574,2.841776 -3.727777,3.669249 -1.04738,0.747007 -3.649238,2.091978 -4.759115,2.460117 -1.001378,0.332151 -1.986897,0.363973 -2.691287,0.08691 z M 43.688406,32.89526 c 0.269386,-0.342469 0.917558,-2.026592 1.050926,-2.73058 0.136632,-0.721228 0.134013,-1.596859 -0.0076,-2.527943 -0.198165,-1.303241 -0.30085,-1.0333 -0.30085,0.790884 0,1.281464 -0.03918,1.825708 -0.150594,2.092379 -0.176379,0.422138 -0.451939,0.571916 -0.591942,0.321745 -0.134651,-0.240609 -0.366189,-0.21291 -0.515254,0.06165 -0.174418,0.321246 -0.168742,1.873913 0.0076,2.086425 0.186011,0.224128 0.269162,0.208641 0.507654,-0.09455 z M 40.704515,22.139569 c 0,-0.08059 -0.346461,-0.523886 -0.769914,-0.98511 -0.423453,-0.461225 -0.800301,-0.934329 -0.837441,-1.051343 -0.04908,-0.154633 -0.11445,-0.190324 -0.239317,-0.130647 -0.223938,0.10703 -1.134905,0.110915 -1.465682,0.0062 -0.205282,-0.06496 -0.165171,-7.25e-4 0.19403,0.310533 1.180776,1.02328 2.559733,1.994404 2.833669,1.995594 0.17705,7.25e-4 0.284655,-0.05415 0.284655,-0.145283 z m -1.956377,-4.591505 c -0.09108,-0.07248 -0.450481,-0.339571 -0.798668,-0.593532 -0.348187,-0.253963 -1.11384,-0.9972 -1.70145,-1.65164 -0.587608,-0.654441 -1.087642,-1.17063 -1.111186,-1.147086 -0.07508,0.07508 0.915446,2.767446 1.340627,3.643991 0.54705,1.12778 0.940512,1.521311 1.709239,1.709535 l 0.60286,0.14761 0.06208,-0.988548 c 0.05228,-0.832349 0.03593,-1.009369 -0.103507,-1.12033 z m -4.11437,-2.016072 c -0.07244,-0.41275 -0.133549,-1.038408 -0.135809,-1.390351 -0.0037,-0.586352 -0.02932,-0.65785 -0.305449,-0.854469 -0.372518,-0.265256 -1.356183,-0.728744 -1.549524,-0.730112 -0.196984,-0.0014 -0.09531,0.575975 0.22376,1.270654 0.226524,0.493188 1.695169,2.454733 1.837904,2.454733 0.03345,0 0.0015,-0.337704 -0.07088,-0.750455 z m 3.897015,0.601957 c 0,-0.422271 -0.353844,-1.741838 -0.620102,-2.312505 -0.357052,-0.765262 -1.017461,-1.444316 -2.125239,-2.185244 -1.135398,-0.7594 -2.013209,-0.987062 -2.68899,-0.697395 -0.304495,0.130518 -0.283524,0.141924 1.078439,0.586539 0.763934,0.249388 1.672245,0.622178 2.018466,0.828423 0.599024,0.356838 0.655813,0.427175 1.173259,1.453135 0.299074,0.59298 0.638749,1.392561 0.754839,1.776846 0.191263,0.633127 0.409328,0.92624 0.409328,0.550201 z M 36.115785,10.241661 C 35.669377,9.6968781 34.836794,9.1248764 34.153823,8.8937521 33.643994,8.7212204 31.989514,8.6537123 32.170027,8.8128069 c 0.05409,0.047668 0.517556,0.2416895 1.029936,0.4311605 1.040814,0.3848791 2.426142,1.0172546 2.89831,1.3230226 0.170794,0.110603 0.328759,0.18535 0.351034,0.166106 0.02227,-0.01924 -0.127809,-0.24039 -0.333522,-0.491435 z M 20.602396,9.1660611 c 0.05921,-0.1565606 0.136336,-0.4243954 0.171389,-0.5951886 0.09404,-0.4581885 0.276004,-0.8798442 0.379695,-0.8798442 0.110504,0 0.118686,0.076078 0.10031,0.9315997 L 21.23934,9.29545 21.55008,8.9398766 c 0.170905,-0.1955654 0.570999,-0.854471 0.889096,-1.4642347 0.76904,-1.4741794 1.403676,-2.2037133 2.107394,-2.4225108 0.203444,-0.063254 0.236828,-0.04671 0.183925,0.091151 -0.05966,0.1554754 -0.03966,0.1555194 0.259974,5.694e-4 0.832166,-0.4303281 2.050586,-0.7074193 2.050586,-0.4663395 0,0.051049 -0.430867,0.2597637 -0.957483,0.4638107 -1.204576,0.4667356 -1.441304,0.6265583 -1.369459,0.9245727 0.03751,0.1555992 -0.07603,0.4178474 -0.361865,0.8358928 -0.229089,0.3350378 -0.416525,0.7068638 -0.416525,0.8262798 0,0.1808732 0.0772,0.1365599 0.462402,-0.2654376 1.029953,-1.0748501 2.166474,-1.6078179 3.289875,-1.542778 0.288102,0.016679 0.210726,0.1651867 -0.155266,0.2979994 -0.185026,0.067143 -0.581132,0.336455 -0.880232,0.5984712 -0.57284,0.5018136 -1.53345,1.6774931 -1.443842,1.7671008 0.06101,0.061012 0.526922,-0.1671892 2.039419,-0.9988934 1.148474,-0.6315334 1.552665,-0.7981734 1.552665,-0.6401329 0,0.053024 -0.197965,0.2284994 -0.439922,0.3899433 -0.782227,0.5219347 -1.100719,0.8732426 -0.791673,0.8732426 0.06272,0 0.656621,-0.2516452 1.319765,-0.5592114 0.663146,-0.3075662 1.368748,-0.6060939 1.568007,-0.6633949 0.56306,-0.1619195 1.345644,-0.2344407 1.345644,-0.1246991 0,0.1530633 -0.302018,0.2791843 -1.245264,0.5200166 -0.918675,0.2345585 -1.402773,0.4617646 -1.494793,0.7015648 -0.04408,0.1148804 0.02854,0.1298508 0.359043,0.074012 0.26528,-0.044818 0.414303,-0.030814 0.414303,0.038935 0,0.062067 0.209805,0.018999 0.48768,-0.1001125 0.873069,-0.3742414 1.918526,-0.6116881 2.693205,-0.6116881 0.413896,0 0.752536,-0.042666 0.752536,-0.094813 0,-0.1348387 -0.695922,-0.6649783 -1.224631,-0.9329001 -0.652968,-0.3308898 -1.9189,-0.6284639 -2.673591,-0.6284639 -0.379069,0 -0.656265,-0.044803 -0.656265,-0.1060724 0,-0.2016853 0.571996,-0.3274315 1.271791,-0.2795878 0.675946,0.046213 0.695993,0.04086 0.530756,-0.1417249 C 30.696409,4.9458249 29.998258,4.7572822 29.261003,4.8261282 28.689824,4.8794658 28.51961,4.8542781 28.150265,4.6617647 27.775677,4.4665186 27.553261,4.4351832 26.575355,4.439881 c -1.496633,0.00719 -2.288966,0.1779581 -2.685912,0.5788849 -0.167781,0.1694639 -0.493841,0.4028598 -0.724577,0.5186573 -0.657407,0.3299267 -1.077683,0.6844836 -1.366264,1.1526217 -0.26616,0.4317628 -0.519982,0.6904502 -0.677463,0.6904502 -0.143351,0 -0.09188,-0.4088867 0.08556,-0.6796942 0.200631,-0.3062004 0.136647,-0.4156372 -0.152524,-0.2608778 -0.252165,0.1349551 -0.703941,1.0444781 -0.8014,1.6133939 -0.03901,0.2277244 -0.157907,0.4973738 -0.264214,0.599221 -0.347002,0.3324481 -0.183238,0.7981785 0.280662,0.7981785 0.150913,0 0.261131,-0.094168 0.333173,-0.2846554 z M 18.507962,43.539672 C 18.10265,43.425571 17.512076,42.949856 17.210481,42.494527 16.49167,41.409323 16.145651,39.9616 16.15334,38.071529 c 0.0066,-1.612086 -0.09999,-1.925945 -0.913628,-2.691289 -0.302619,-0.284655 -0.661636,-0.622806 -0.797818,-0.751446 -0.349712,-0.330343 -0.563261,-0.902785 -0.568852,-1.524862 -0.0055,-0.606003 0.446376,-1.828996 0.746416,-1.924223 0.33104,-0.105069 0.103683,0.914958 0.105307,1.54123 -0.0064,1.793318 0.360268,1.468472 0.998249,0.228613 0.106156,-0.206312 0.475073,-1.305528 0.533351,-1.305528 0.43908,0.760606 -0.395825,2.517399 0.105632,2.778124 0.168231,0.08699 0.428339,0.158174 0.578017,0.158174 0.250472,0 0.176778,-2.830159 0.58689,-2.75137 0.112377,-0.01678 -0.296581,2.274445 0.85918,2.531939 0.831098,0.185159 0.506172,-2.282711 0.676755,-2.303643 0.23587,-0.08562 0.612944,2.128153 0.752584,2.434631 0.169164,0.371274 1.066804,0.38247 1.292641,-0.01441 0.20958,-0.368311 -0.154326,-3.142286 0.152498,-2.854038 0.273754,0.257176 0.57349,2.789081 0.839474,2.806571 0.235634,0.01549 0.497669,-2.824495 0.752206,-2.760609 0.377111,0.09465 -0.04959,2.446383 -0.148488,2.707214 -0.138634,0.365637 1.267082,-0.08732 1.368301,-0.374576 0.01294,-0.213542 -0.08177,-2.340805 0.131776,-2.311117 0.256508,1.034812 0.190969,2.214736 0.484341,2.53432 0.08196,0.08928 0.09552,0.52481 0.587653,0.353277 0.396691,-0.138267 -0.09318,-3.787947 0.210948,-3.366654 1.119652,1.551003 0.661588,4.314592 -0.02427,4.626947 -0.481446,0.219261 -0.789391,0.458592 -1.203781,0.935563 -0.306259,0.352511 -0.650096,0.675429 -0.764082,0.717596 -0.153526,0.05679 -0.256571,0.275998 -0.397538,0.845672 -0.396088,1.600663 -2.011299,4.341705 -2.908179,4.935233 -0.404793,0.267879 -1.218418,0.397019 -1.680968,0.266808 z m 1.552221,-1.130522 c 0.483304,-0.229345 1.113634,-0.943033 1.488162,-1.684973 0.173615,-0.343926 0.550412,-1.336149 0.837327,-2.20494 0.286916,-0.86879 0.633211,-1.769957 0.769545,-2.002595 l 0.247881,-0.422978 -0.328876,-0.01137 c -0.180883,-0.0062 -0.538488,-0.107518 -0.794678,-0.225052 -0.949035,-0.435405 -1.499668,-0.246633 -2.218352,0.76051 -0.264797,0.37108 -0.579106,0.726956 -0.698467,0.790835 -0.20999,0.11239 -0.21488,0.09986 -0.151006,-0.386802 0.0363,-0.276622 0.0944,-0.677623 0.129087,-0.891114 0.06105,-0.375689 0.05318,-0.388167 -0.244821,-0.388167 -0.169344,0 -0.437402,0.101872 -0.595684,0.226375 -0.158284,0.124506 -0.40911,0.23188 -0.557393,0.238613 -0.148284,0.0067 -0.420991,0.02131 -0.606017,0.0324 l -0.33641,0.02016 v 0.974249 c 0,2.162516 0.805648,4.377634 1.850358,5.087533 0.433225,0.294385 0.728065,0.315663 1.209344,0.08728 z m -0.725726,-0.947634 c 0.112439,-0.520697 0.116174,-1.518564 0.008,-2.121977 -0.07495,-0.417861 -0.06341,-0.491678 0.07686,-0.491678 0.185751,0 0.214965,0.104357 0.379332,1.354904 0.09875,0.751282 0.09232,0.947838 -0.04146,1.26801 -0.09328,0.223254 -0.229835,0.378907 -0.33241,0.378907 -0.147068,0 -0.161081,-0.06026 -0.09027,-0.388166 z m 8.379126,-8.28247 c -0.05709,-0.04182 -0.285929,-0.35553 -0.508525,-0.697115 -0.222594,-0.341587 -1.005545,-1.219858 -1.739887,-1.951713 -0.734343,-0.731856 -1.312523,-1.353294 -1.284843,-1.380973 0.09359,-0.09359 0.45871,0.0783 0.876051,0.412424 0.800631,0.640996 2.812763,3.144624 2.812763,3.499828 0,0.21933 -0.0082,0.225516 -0.155559,0.117549 z M 17.661951,31.507877 c -0.634298,-0.159073 -1.554586,-0.992793 -1.648508,-1.493439 -0.04153,-0.221393 0.03574,-0.771088 0.214662,-1.526991 0.235175,-0.993566 0.367135,-1.320752 0.831206,-2.060914 1.217379,-1.941637 1.615496,-3.592425 1.107951,-4.594101 -0.125758,-0.248192 -0.127784,-0.313098 -0.01199,-0.385803 0.31238,-0.196234 0.919352,0.161635 1.169995,0.689824 0.472578,0.995888 -0.0619,2.583978 -1.842392,5.474367 -0.292763,0.475258 -0.378313,0.722189 -0.376556,1.086867 0.0045,0.928012 0.567634,1.677973 1.479505,1.970243 0.508563,0.163003 0.945043,0.07937 2.037596,-0.390429 1.12162,-0.482296 1.670849,-0.507468 2.027429,-0.09292 0.137398,0.159735 0.249815,0.378479 0.249815,0.486098 0,0.187415 -0.02282,0.188894 -0.540859,0.03505 -0.742264,-0.220429 -1.304074,-0.139156 -2.460962,0.356007 -1.040696,0.445432 -1.708529,0.578631 -2.236838,0.446138 z m 5.445682,-0.939231 c 0,-0.06436 0.05069,-0.31833 0.112652,-0.564376 0.09333,-0.370641 0.08295,-0.504796 -0.06056,-0.782309 -0.130871,-0.253075 -0.143959,-0.36367 -0.05354,-0.452445 0.343314,-0.337083 0.791963,1.072158 0.504425,1.584442 -0.152654,0.271972 -0.502964,0.421501 -0.502964,0.214688 z m 2.280165,-6.327563 c -0.315244,-0.125808 -0.413332,-0.272021 -0.415381,-0.619184 -0.0024,-0.403266 0.296742,-0.61069 0.886411,-0.614676 l 0.509404,-0.0035 -0.245989,-0.20489 c -0.436849,-0.363867 -0.703573,-0.362119 -1.472037,0.0096 -0.746495,0.361132 -0.98542,0.354233 -0.653468,-0.01886 0.591913,-0.665286 2.084889,-0.819425 3.15945,-0.32619 0.336572,0.154492 0.594857,0.329166 0.573963,0.388167 -0.05017,0.141657 -0.546491,0.08105 -0.920611,-0.112415 l -0.298528,-0.154373 0.156278,0.238786 c 0.08596,0.131334 0.187448,0.434076 0.225545,0.672763 0.06569,0.411629 0.0513,0.444923 -0.279425,0.646557 -0.373475,0.227693 -0.812808,0.262866 -1.225612,0.09812 z M 14.46988,23.948256 c -0.209291,-0.09916 -1.210287,-0.589233 -0.888228,-0.681605 0.0441,-0.01264 0.879623,0.399819 1.10849,0.491007 0.399598,0.159213 1.146997,0.177614 1.183343,0.355501 0.01259,0.06161 -1.238687,-0.08676 -1.403605,-0.164903 z m 0.922625,-0.116373 c -0.246304,-0.476299 -0.16304,-0.841459 0.237487,-1.041534 l 0.337446,-0.168562 -0.255665,-0.167519 c -0.329087,-0.215625 -0.646362,-0.08928 -1.320512,0.525855 -0.46131,0.420926 -0.82866,0.556684 -0.954663,0.352806 -0.0312,-0.05048 0.01263,-0.149343 0.0974,-0.219697 0.08477,-0.07035 0.154126,-0.229757 0.154126,-0.354233 0,-0.292469 0.171866,-0.506668 0.621067,-0.774046 0.427341,-0.254366 1.03511,-0.292711 1.03511,-0.06531 0,0.09025 0.17715,0.198628 0.439922,0.269111 0.957766,0.256902 1.385806,0.455905 1.707932,0.794047 0.185026,0.194225 0.33641,0.41969 0.33641,0.501033 0,0.184798 -0.0431,0.184454 -0.406061,-0.0032 -0.316905,-0.163881 -0.422026,-0.123395 -0.422026,0.16252 0,0.28801 -0.410303,0.506172 -0.951973,0.506172 -0.444191,0 -0.507775,-0.03077 -0.656003,-0.317406 z m 8.801995,-0.09664 c -0.23911,-0.264213 -0.079,-0.264213 0.258778,0 0.188382,0.147355 0.213865,0.203045 0.09368,0.20472 -0.0908,0.0012 -0.249409,-0.09085 -0.352454,-0.20472 z m 3.18012,0.04588 c -0.126531,-0.08863 -0.230055,-0.228365 -0.230055,-0.310533 0,-0.180989 0.324597,-0.197441 0.496854,-0.02518 0.138039,0.13804 0.169623,0.496854 0.04373,0.496854 -0.04426,0 -0.184004,-0.07252 -0.310533,-0.161137 z m -0.333566,-1.832642 c -0.562871,-0.267539 -0.803054,-0.32106 -1.469747,-0.327509 -0.508938,-0.0049 -0.843724,0.03905 -0.926425,0.121683 -0.147909,0.147784 -0.502138,0.174981 -0.502138,0.03855 0,-0.352117 1.191538,-0.610544 2.034502,-0.441253 0.776088,0.15586 1.691896,0.580851 1.691896,0.785143 0,0.208648 -0.03183,0.20186 -0.828088,-0.176612 z m 4.036932,-4.137715 c 0,-0.07981 -0.07299,-0.390882 -0.162196,-0.691277 -0.284815,-0.959075 -1.148128,-1.706825 -2.533043,-2.193972 -0.573753,-0.201819 -0.882309,-0.235995 -2.169782,-0.24034 -1.144199,-0.0039 -1.64,0.03774 -2.086153,0.175035 -0.321882,0.09906 -0.733339,0.180098 -0.914347,0.180098 -0.621588,0 -0.260166,-0.242495 0.880812,-0.590978 3.657351,-1.117047 6.489363,-0.368481 7.145553,1.888734 0.182331,0.627195 0.164688,1.51064 -0.03145,1.57521 -0.07117,0.02342 -0.129389,-0.0227 -0.129389,-0.102509 z"
     id="path825"
     inkscape:connector-curvature="0"
     sodipodi:nodetypes="csccscccsssscccsssssscssssscccsccscssscsccccssscscsssscssscsscsssccscssssccccssccscssscssscssssccsccssscssscccsssssccsccccsscccsscscccscscsssscsscscscccccssscssccssccscscccsssssccssssssccssssccccscsccssssscccscscscccccsccccccccsscsscscscsccssscsssscsssssssssscssccssscssccssssscsssssssscssssssssscscssscsccccsscccsccccsccscsccccscsccssscccssccccccccscccsccccsscccsscscccsssssccssscccscsssssscscscssccccccscccccccccssssscccccccssscsscssccccccsssccccssscsssscssccs" />
  <g
     aria-label=" E=mc²"
     transform="matrix(0.10351107,0,0,0.10351107,56.990193,30.589194)"
     style="font-style:normal;font-variant:normal;font-weight:bold;font-stretch:normal;font-size:101.33333588px;line-height:1.25;font-family:'Segoe Print';-inkscape-font-specification:'Segoe Print, Bold';font-variant-ligatures:normal;font-variant-caps:normal;font-variant-numeric:normal;font-feature-settings:normal;text-align:start;letter-spacing:0px;word-spacing:0px;writing-mode:lr-tb;text-anchor:start;fill:none;fill-opacity:1;stroke:#ff0000;stroke-opacity:1"
     id="text829-2">
    <path
       d="m -406.74854,177.2659 -14.3699,-5.13592 q -7.52366,-2.65562 -13.20186,-3.95179 -5.65917,-1.34183 -6.32535,-1.02998 -0.60146,0.28524 -1.75554,2.53802 -1.1807,2.18806 -4.99631,7.35152 -2.97019,3.90776 -4.3604,6.59815 2.92262,1.21903 8.65016,2.91105 5.72754,1.69201 8.23941,2.09639 7.24257,1.1445 10.85019,2.64924 7.21524,3.00947 5.42479,7.30208 -1.31427,3.15096 -3.83785,3.54586 -2.50454,0.34923 -6.98762,-0.98455 -2.76291,-0.83075 -6.27944,-1.65416 -1.84959,-0.44981 -4.56684,-1.26151 -13.25901,-3.81479 -15.88516,-3.94516 l -0.0457,-0.019 q -0.87156,-0.0955 -1.6254,0.55509 -0.70818,0.66961 -4.20803,6.23282 -3.48081,5.51755 -4.47127,7.89218 -0.47642,1.78488 1.39589,2.56582 2.19197,0.91427 12.00308,3.61261 9.87581,2.67171 12.30392,3.14837 6.80862,1.28516 8.7266,2.08515 5.45673,3.241 3.552,7.8076 -0.87617,2.10064 -2.70329,2.62521 -5.42373,0.15024 -13.71615,-2.71881 -6.40862,-2.24415 -15.80873,-4.77106 -8.65065,-1.62459 -15.68322,-4.55787 -3.69895,-1.54284 -4.67627,-3.82685 -0.99637,-2.23835 0.0744,-5.7053 l 0.49157,-1.56412 q 0.10671,-0.38438 1.9382,-2.46183 4.16947,-4.85503 14.89416,-23.11269 10.72469,-18.25766 11.63896,-20.44963 0.019,-0.0457 -0.12162,-0.47961 -0.20538,-0.40733 -0.37219,-2.19245 -0.10209,-1.81174 0.54552,-3.36438 0.34285,-0.82199 0.73503,-1.24813 0.58266,-0.8828 2.76363,-1.09894 2.18097,-0.21614 3.73361,0.43147 2.14631,0.89522 4.22399,2.08349 3.79029,1.58093 25.80251,7.54558 7.32219,1.98187 7.64185,2.11521 l 0.65837,0.22099 q 8.4675,2.83486 6.0104,8.72578 -0.45713,1.09598 -2.64982,2.1114 -2.12797,0.9888 -3.65033,0.78271 z"
       style="fill:none;stroke:#ff0000;stroke-opacity:1"
       id="path867"
       inkscape:connector-curvature="0" />
    <path
       d="m -362.71133,199.38691 q -0.83735,5.42798 -6.26533,4.59063 -1.51592,-0.23385 -3.52422,-1.49489 -1.5232,-0.83575 -2.11001,-0.92627 -0.44011,-0.0679 -1.79815,-0.0271 -1.41448,0.0822 -2.49029,-0.0838 l -8.80941,-1.95976 -18.35339,-1.42949 q -6.18049,-0.50286 -5.35822,-5.83303 0.99576,-6.4549 15.12807,-4.27477 l 6.10114,1.34171 q 0.92157,0.19223 5.93208,0.81498 5.0594,0.6303 9.02817,0.54164 0.36494,-0.0939 1.78306,0.12487 l 2.44504,0.37719 q 2.93404,0.45262 5.8072,2.59804 2.87316,2.14542 2.49181,5.5911 z m -2.81202,23.0965 q -0.30175,1.95603 -1.8861,3.46387 -1.5768,1.45895 -2.89712,1.25527 -1.71153,-0.26403 -4.84845,-1.34872 -2.85861,-0.94163 -4.61903,-1.2132 l -29.54749,-4.15764 q -1.46702,-0.22631 -3.1174,-2.83394 -1.59393,-2.64898 -1.34499,-4.26271 0.38473,-2.49393 4.48902,-2.81201 4.10429,-0.31807 6.79383,0.0968 3.91206,0.6035 11.16054,1.97201 1.16608,0.22995 7.81684,0.60509 6.25202,0.3637 12.36771,2.9092 6.1157,2.5455 5.64018,6.27705 z"
       style="fill:none;stroke:#ff0000;stroke-opacity:1"
       id="path869"
       inkscape:connector-curvature="0" />
    <path
       d="m -343.13359,242.45486 q -0.17333,5.1279 -5.25248,5.54631 -6.45989,0.53216 -7.22766,-8.78783 -1.24305,-15.08951 -0.49726,-25.9243 0.59559,-8.43937 -0.0666,-16.47725 -0.15843,-1.92317 0.96876,-3.30684 1.12312,-1.43299 3.34217,-1.61579 7.39682,-0.60934 8.13615,8.36547 0.23967,2.90942 -1.3908,15.05825 -0.99303,7.23094 -0.72898,10.43623 11.55217,-32.12983 22.89396,-33.06415 4.58603,-0.37779 7.64811,3.04382 3.1114,3.41755 4.24184,15.93471 0.99176,11.43635 2.12594,11.34292 0.88762,-0.0731 5.25,-11.60301 4.85664,-12.76213 8.67388,-17.04833 3.86655,-4.29027 8.45258,-4.66806 5.47365,-0.45091 8.32923,4.07994 2.85152,4.48154 4.7599,15.59415 1.47089,8.81525 3.07742,13.25041 1.65584,4.4311 4.83506,5.6586 2.5631,0.98038 2.75809,3.34736 0.17468,2.12042 -2.45737,4.5217 -2.63612,2.35198 -5.54553,2.59165 -5.02984,0.41435 -8.29617,-4.28125 -3.22108,-4.74898 -5.43819,-19.60931 -1.13552,-7.15488 -1.96751,-9.41974 -0.78673,-2.31824 -2.01953,-2.21668 -1.08487,0.0894 -2.8635,3.81045 -1.78269,3.67178 -5.99657,14.59368 -3.70745,9.83759 -6.65332,13.85342 -2.89656,4.01177 -6.59497,4.31644 -2.8601,0.23561 -5.97263,-1.99032 -3.06322,-2.22999 -4.58126,-17.64438 -1.37994,-13.73777 -2.90861,-13.61184 -2.07111,0.17061 -8.95361,13.04998 -6.8825,12.87937 -10.08058,22.87359 z"
       style="fill:none;stroke:#ff0000;stroke-opacity:1"
       id="path871"
       inkscape:connector-curvature="0" />
    <path
       d="m -240.61285,232.22181 q -7.72398,2.64425 -13.19213,-0.19062 -5.46815,-2.83486 -8.03227,-10.32478 -4.03849,-11.79663 0.86242,-28.79782 4.90092,-17.0012 14.12288,-20.15827 4.44714,-1.52245 9.10599,1.85097 4.64282,3.3266 6.27745,8.10142 1.53847,4.49395 0.39812,6.66249 -1.10957,2.1057 -2.65437,2.63455 -4.54076,1.55449 -7.43721,-4.4619 -2.13226,-4.39527 -3.86431,-3.80232 -3.65133,1.25001 -6.08555,13.69357 -2.43422,12.44356 0.24208,20.26117 2.16348,6.31962 8.99803,3.97986 7.53673,-2.58015 13.38696,-10.54494 2.72311,-3.80864 4.82965,-4.5298 2.57466,-0.88142 3.45608,1.69324 1.23398,3.60453 -5.06455,12.24577 -6.26775,8.57841 -15.34927,11.68741 z"
       style="fill:none;stroke:#ff0000;stroke-opacity:1"
       id="path873"
       inkscape:connector-curvature="0" />
    <path
       d="m -224.92738,153.53783 q -1.8394,1.53145 -4.3626,5.20543 -0.19977,0.42187 -0.50956,0.85549 -1.39405,1.95126 -1.15699,2.50455 -0.0686,2.27716 -1.60994,3.26499 -1.74965,1.12132 -3.69883,0.37239 -1.97589,-0.79059 -3.2574,-2.79018 -1.12131,-1.74964 -0.95882,-3.14668 0.13579,-1.43871 3.10756,-4.87125 1.75401,-2.12318 3.13633,-4.18446 1.11418,-1.65435 3.14162,-3.7177 2.0691,-2.09004 2.81895,-2.57061 2.66612,-1.70867 5.82546,-1.08886 3.15935,0.6198 4.57435,2.82769 0.66745,1.04145 1.50452,4.08986 0.81038,3.00675 0.50473,4.73062 -0.26398,1.69717 -1.37679,10.87301 l -1.18553,10.16275 q -0.19241,1.53376 -0.18067,1.64377 0.80762,-1.39912 4.86779,-5.05905 l 8.27202,-7.3583 q 2.79547,-2.79064 3.62864,-3.3246 2.0829,-1.3349 4.3504,-0.73121 2.30915,0.577 3.67075,2.70157 0.98783,1.54135 0.39909,3.74049 -0.58874,2.19913 -2.71331,3.56073 -0.74984,0.48057 -3.05485,1.19382 -3.82496,1.27598 -16.67132,16.4437 -2.80513,3.32575 -4.55478,4.44707 -2.24954,1.44169 -4.45512,1.20969 -2.16392,-0.25869 -3.33864,-2.09165 -1.57518,-2.45783 -0.57147,-10.15331 1.00371,-7.69549 3.50964,-20.29121 1.13697,-5.19507 0.34477,-8.44855 z"
       style="fill:none;stroke:#ff0000;stroke-opacity:1"
       id="path875"
       inkscape:connector-curvature="0" />
  </g>
  <rect
     style="opacity:1;fill:none;fill-opacity:1;fill-rule:evenodd;stroke:#000000;stroke-width:0.19561146;stroke-linecap:square;stroke-linejoin:miter;stroke-miterlimit:4;stroke-dasharray:none;stroke-dashoffset:0;stroke-opacity:1"
     id="rect1984"
     width="49.600761"
     height="59.769955"
     x="0.097805731"
     y="0.097805731"
     ry="0.12646878" />
  <ellipse
     style="opacity:1;fill:none;fill-opacity:1;fill-rule:evenodd;stroke:#0300ff;stroke-width:0.00771012;stroke-linecap:square;stroke-linejoin:miter;stroke-miterlimit:4;stroke-dasharray:none;stroke-dashoffset:0;stroke-opacity:1"
     id="path820"
     cx="15.594856"
     cy="10.068673"
     rx="0.15603764"
     ry="0.14496191" />
  <ellipse
     ry="0.14496191"
     rx="0.15603764"
     cy="29.916672"
     cx="16.658142"
     id="ellipse822"
     style="opacity:1;fill:none;fill-opacity:1;fill-rule:evenodd;stroke:#0300ff;stroke-width:0.00771012;stroke-linecap:square;stroke-linejoin:miter;stroke-miterlimit:4;stroke-dasharray:none;stroke-dashoffset:0;stroke-opacity:1" />
  <ellipse
     style="opacity:1;fill:none;fill-opacity:1;fill-rule:evenodd;stroke:#0300ff;stroke-width:0.00771012;stroke-linecap:square;stroke-linejoin:miter;stroke-miterlimit:4;stroke-dasharray:none;stroke-dashoffset:0;stroke-opacity:1"
     id="ellipse824"
     cx="20.041496"
     cy="35.492939"
     rx="0.15603764"
     ry="0.14496191" />
  <ellipse
     ry="0.14496191"
     rx="0.15603764"
     cy="29.415432"
     cx="11.583111"
     id="ellipse826"
     style="opacity:1;fill:none;fill-opacity:1;fill-rule:evenodd;stroke:#0300ff;stroke-width:0.00771012;stroke-linecap:square;stroke-linejoin:miter;stroke-miterlimit:4;stroke-dasharray:none;stroke-dashoffset:0;stroke-opacity:1" />
  <ellipse
     style="opacity:1;fill:none;fill-opacity:1;fill-rule:evenodd;stroke:#0300ff;stroke-width:0.00771012;stroke-linecap:square;stroke-linejoin:miter;stroke-miterlimit:4;stroke-dasharray:none;stroke-dashoffset:0;stroke-opacity:1"
     id="ellipse828"
     cx="27.998644"
     cy="41.539116"
     rx="0.15603764"
     ry="0.14496191" />
  <ellipse
     ry="0.14496191"
     rx="0.15603764"
     cy="50.045403"
     cx="9.3468418"
     id="ellipse830"
     style="opacity:1;fill:none;fill-opacity:1;fill-rule:evenodd;stroke:#0300ff;stroke-width:0.00771012;stroke-linecap:square;stroke-linejoin:miter;stroke-miterlimit:4;stroke-dasharray:none;stroke-dashoffset:0;stroke-opacity:1" />
  <ellipse
     style="opacity:1;fill:none;fill-opacity:1;fill-rule:evenodd;stroke:#0300ff;stroke-width:0.00771012;stroke-linecap:square;stroke-linejoin:miter;stroke-miterlimit:4;stroke-dasharray:none;stroke-dashoffset:0;stroke-opacity:1"
     id="ellipse832"
     cx="16.922752"
     cy="50.798565"
     rx="0.15603764"
     ry="0.14496191" />
  <ellipse
     ry="0.14496191"
     rx="0.15603764"
     cy="53.058048"
     cx="16.701235"
     id="ellipse834"
     style="opacity:1;fill:none;fill-opacity:1;fill-rule:evenodd;stroke:#0300ff;stroke-width:0.00771012;stroke-linecap:square;stroke-linejoin:miter;stroke-miterlimit:4;stroke-dasharray:none;stroke-dashoffset:0;stroke-opacity:1" />
  <ellipse
     style="opacity:1;fill:none;fill-opacity:1;fill-rule:evenodd;stroke:#0300ff;stroke-width:0.00771012;stroke-linecap:square;stroke-linejoin:miter;stroke-miterlimit:4;stroke-dasharray:none;stroke-dashoffset:0;stroke-opacity:1"
     id="ellipse836"
     cx="24.808788"
     cy="54.608673"
     rx="0.15603764"
     ry="0.14496191" />
  <ellipse
     ry="0.14496191"
     rx="0.15603764"
     cy="52.039829"
     cx="30.322403"
     id="ellipse838"
     style="opacity:1;fill:none;fill-opacity:1;fill-rule:evenodd;stroke:#0300ff;stroke-width:0.00771012;stroke-linecap:square;stroke-linejoin:miter;stroke-miterlimit:4;stroke-dasharray:none;stroke-dashoffset:0;stroke-opacity:1" />
  <ellipse
     style="opacity:1;fill:none;fill-opacity:1;fill-rule:evenodd;stroke:#0300ff;stroke-width:0.00771012;stroke-linecap:square;stroke-linejoin:miter;stroke-miterlimit:4;stroke-dasharray:none;stroke-dashoffset:0;stroke-opacity:1"
     id="ellipse840"
     cx="34.019032"
     cy="48.593819"
     rx="0.15603764"
     ry="0.14496191" />
  <ellipse
     style="opacity:1;fill:none;fill-opacity:1;fill-rule:evenodd;stroke:#0300ff;stroke-width:0.00771012;stroke-linecap:square;stroke-linejoin:miter;stroke-miterlimit:4;stroke-dasharray:none;stroke-dashoffset:0;stroke-opacity:1"
     id="ellipse842"
     cx="16.348017"
     cy="23.337591"
     rx="0.15603764"
     ry="0.14496191" />
  <ellipse
     ry="0.14496191"
     rx="0.15603764"
     cy="14.853458"
     cx="29.151749"
     id="ellipse844"
     style="opacity:1;fill:none;fill-opacity:1;fill-rule:evenodd;stroke:#0300ff;stroke-width:0.00771012;stroke-linecap:square;stroke-linejoin:miter;stroke-miterlimit:4;stroke-dasharray:none;stroke-dashoffset:0;stroke-opacity:1" />
  <ellipse
     style="opacity:1;fill:none;fill-opacity:1;fill-rule:evenodd;stroke:#0300ff;stroke-width:0.00771012;stroke-linecap:square;stroke-linejoin:miter;stroke-miterlimit:4;stroke-dasharray:none;stroke-dashoffset:0;stroke-opacity:1"
     id="ellipse846"
     cx="26.028347"
     cy="23.802778"
     rx="0.15603764"
     ry="0.14496191" />
  <ellipse
     ry="0.14496191"
     rx="0.15603764"
     cy="23.669868"
     cx="42.287758"
     id="ellipse848"
     style="opacity:1;fill:none;fill-opacity:1;fill-rule:evenodd;stroke:#0300ff;stroke-width:0.00771012;stroke-linecap:square;stroke-linejoin:miter;stroke-miterlimit:4;stroke-dasharray:none;stroke-dashoffset:0;stroke-opacity:1" />
  <ellipse
     style="opacity:1;fill:none;fill-opacity:1;fill-rule:evenodd;stroke:#0300ff;stroke-width:0.00771012;stroke-linecap:square;stroke-linejoin:miter;stroke-miterlimit:4;stroke-dasharray:none;stroke-dashoffset:0;stroke-opacity:1"
     id="ellipse850"
     cx="27.40176"
     cy="9.0496912"
     rx="0.15603764"
     ry="0.14496191" />
  <ellipse
     ry="0.14496191"
     rx="0.15603764"
     cy="21.468891"
     cx="25.668083"
     id="ellipse852"
     style="opacity:1;fill:none;fill-opacity:1;fill-rule:evenodd;stroke:#0300ff;stroke-width:0.00771012;stroke-linecap:square;stroke-linejoin:miter;stroke-miterlimit:4;stroke-dasharray:none;stroke-dashoffset:0;stroke-opacity:1" />
  <ellipse
     ry="0.14496191"
     rx="0.15603764"
     cy="29.974266"
     cx="23.459503"
     id="ellipse854"
     style="opacity:1;fill:none;fill-opacity:1;fill-rule:evenodd;stroke:#0300ff;stroke-width:0.00771012;stroke-linecap:square;stroke-linejoin:miter;stroke-miterlimit:4;stroke-dasharray:none;stroke-dashoffset:0;stroke-opacity:1" />
</svg>
