<?xml version="1.0" encoding="UTF-8" standalone="no"?>
<!-- Created with Inkscape (http://www.inkscape.org/) -->

<svg
   xmlns:dc="http://purl.org/dc/elements/1.1/"
   xmlns:cc="http://creativecommons.org/ns#"
   xmlns:rdf="http://www.w3.org/1999/02/22-rdf-syntax-ns#"
   xmlns:svg="http://www.w3.org/2000/svg"
   xmlns="http://www.w3.org/2000/svg"
   xmlns:sodipodi="http://sodipodi.sourceforge.net/DTD/sodipodi-0.dtd"
   xmlns:inkscape="http://www.inkscape.org/namespaces/inkscape"
   width="210mm"
   height="297mm"
   viewBox="0 0 210 297"
   version="1.1"
   id="svg6443"
   inkscape:version="0.92.3 (2405546, 2018-03-11)"
   sodipodi:docname="sechseck.svg">
  <defs
     id="defs6437" />
  <sodipodi:namedview
     id="base"
     pagecolor="#ffffff"
     bordercolor="#666666"
     borderopacity="1.0"
     inkscape:pageopacity="0.0"
     inkscape:pageshadow="2"
     inkscape:zoom="0.98994949"
     inkscape:cx="240.0983"
     inkscape:cy="819.34134"
     inkscape:document-units="mm"
     inkscape:current-layer="layer1"
     showgrid="false"
     inkscape:window-width="1920"
     inkscape:window-height="1001"
     inkscape:window-x="-9"
     inkscape:window-y="-9"
     inkscape:window-maximized="1" />
  <metadata
     id="metadata6440">
    <rdf:RDF>
      <cc:Work
         rdf:about="">
        <dc:format>image/svg+xml</dc:format>
        <dc:type
           rdf:resource="http://purl.org/dc/dcmitype/StillImage" />
        <dc:title></dc:title>
      </cc:Work>
    </rdf:RDF>
  </metadata>
  <g
     inkscape:label="Ebene 1"
     inkscape:groupmode="layer"
     id="layer1">
    <path
       style="opacity:1;fill:none;fill-opacity:1;fill-rule:evenodd;stroke:#000000;stroke-width:0.18158385;stroke-linecap:square;stroke-linejoin:miter;stroke-miterlimit:4;stroke-dasharray:none;stroke-dashoffset:0;stroke-opacity:1"
       d="M 26.043754,1.33582 19.75329,4.967591 v 7.263541 l -6.28992,3.631769 V 23.1259 l -6.2904637,3.631771 v 7.263542 l -6.29046395,3.631771 v 7.262995 L 7.1729063,48.54775 v 7.263542 l 6.2904637,3.631771 v 7.262995 l 6.28992,3.631773 v 7.263541 l 6.290464,3.631771 6.289918,-3.631771 6.29047,3.631771 6.29046,-3.631771 6.28992,3.631771 6.29047,-3.631771 6.28991,3.631771 6.29047,-3.631771 v -7.263541 l 6.29046,-3.631773 v -7.262995 l 6.28993,-3.631771 V 48.54775 l 6.29045,-3.631771 v -7.262995 l -6.29045,-3.631771 V 26.757671 L 76.365832,23.1259 v -7.262999 l -6.29046,-3.631769 V 4.967591 l -6.29047,-3.631771 -6.28991,3.631771 -6.29047,-3.631771 -6.28992,3.631771 -6.29046,-3.631771 -6.29047,3.631771 z"
       id="path9239"
       inkscape:connector-curvature="0" />
  </g>
</svg>
