<?xml version="1.0" encoding="UTF-8" standalone="no"?>
<!-- Created with Inkscape (http://www.inkscape.org/) -->

<svg
   xmlns:dc="http://purl.org/dc/elements/1.1/"
   xmlns:cc="http://creativecommons.org/ns#"
   xmlns:rdf="http://www.w3.org/1999/02/22-rdf-syntax-ns#"
   xmlns:svg="http://www.w3.org/2000/svg"
   xmlns="http://www.w3.org/2000/svg"
   xmlns:sodipodi="http://sodipodi.sourceforge.net/DTD/sodipodi-0.dtd"
   xmlns:inkscape="http://www.inkscape.org/namespaces/inkscape"
   id="svg4155"
   version="1.1"
   inkscape:version="0.92.3 (2405546, 2018-03-11)"
   xml:space="preserve"
   width="7.5cm"
   height="2.3886228cm"
   viewBox="0 0 265.74804 84.636242"
   sodipodi:docname="Logo.svg"
   inkscape:export-filename="C:\Users\Johannes\Documents\Projects\LaserCutter\FREILabLogo.png"
   inkscape:export-xdpi="15.125712"
   inkscape:export-ydpi="15.125712"><metadata
     id="metadata4161"><rdf:RDF><cc:Work
         rdf:about=""><dc:format>image/svg+xml</dc:format><dc:type
           rdf:resource="http://purl.org/dc/dcmitype/StillImage" /><dc:title></dc:title></cc:Work></rdf:RDF></metadata><defs
     id="defs4159" /><sodipodi:namedview
     pagecolor="#ffffff"
     bordercolor="#666666"
     borderopacity="1"
     objecttolerance="10"
     gridtolerance="10"
     guidetolerance="10"
     inkscape:pageopacity="0"
     inkscape:pageshadow="2"
     inkscape:window-width="1920"
     inkscape:window-height="1001"
     id="namedview4157"
     showgrid="false"
     showguides="true"
     inkscape:guide-bbox="true"
     inkscape:zoom="3.8196406"
     inkscape:cx="147.15013"
     inkscape:cy="62.157779"
     inkscape:window-x="-9"
     inkscape:window-y="-9"
     inkscape:window-maximized="1"
     inkscape:current-layer="g4163"
     inkscape:document-units="cm"
     units="cm"
     fit-margin-top="0"
     fit-margin-left="0"
     fit-margin-right="0"
     fit-margin-bottom="0"><sodipodi:guide
       position="-151.38413,1576.527"
       orientation="0,1"
       id="guide5278"
       inkscape:label=""
       inkscape:color="rgb(0,0,255)"
       inkscape:locked="false" /><sodipodi:guide
       position="1.7716533,1155.1558"
       orientation="1,0"
       id="guide4150"
       inkscape:label=""
       inkscape:color="rgb(0,0,255)"
       inkscape:locked="false" /><sodipodi:guide
       position="5316.7321,985.68546"
       orientation="1,0"
       id="guide4152"
       inkscape:label=""
       inkscape:color="rgb(0,0,255)"
       inkscape:locked="false" /></sodipodi:namedview><g
     id="g4163"
     inkscape:groupmode="layer"
     inkscape:label="BLECHSCHILD EINFAHRT"
     transform="matrix(1.25,0,0,-1.25,-5.3149608,-0.44103835)"><g
       id="g4165" /><path
       inkscape:connector-curvature="0"
       id="path4203"
       style="fill:none;fill-opacity:1;fill-rule:evenodd;stroke:#ff0000;stroke-width:0.11595514;stroke-opacity:1"
       d="m 53.727834,-37.029183 h -5.463106 v -3.414666 h 4.611468 c 1.05621,0 2.731551,0.23251 2.731551,1.1968 v 1.193194 c 0,0.697535 -1.13642,1.024672 -1.879913,1.024672 z m -12.46547,6.487775 h 11.613832 c 3.379518,0 4.794411,-0.221695 6.899625,-1.636587 1.299537,-0.873268 3.002815,-3.449814 3.002815,-5.5343 v -2.048442 c 0,-1.587921 -1.745633,-4.643908 -2.900077,-4.953021 0.101837,-0.394729 0.99583,-1.957419 1.305846,-2.616199 0.390222,-0.823702 0.816491,-2.115128 1.102174,-2.995607 0.517292,-1.573504 1.505913,-4.555591 2.199842,-5.994816 h -7.684578 c -0.06038,0.735383 -1.419397,4.484396 -1.774471,5.392812 -0.66509,1.696968 -1.067027,3.826517 -3.347979,3.826517 H 48.264728 V -56.32038 H 41.262364 Z M 73.365093,-49.664079 H 86.854334 V -56.32038 H 66.366336 v 25.778972 h 19.977915 v -6.657201 H 73.365093 v -2.562128 h 12.123912 v -6.657201 H 73.365093 Z m -46.444508,9.916862 0.01082,-0.01353 H 37.16549 V -46.59008 H 26.920589 l -0.17213,-9.730312 H 19.7497 v 25.778972 h 18.954147 v -6.657201 H 26.920589 v -2.548608 z m 62.496772,9.205809 h 6.998761 V -56.32038 h -6.998761 z" /><path
       style="fill:none;fill-opacity:1;fill-rule:evenodd;stroke:#ff0000;stroke-width:0.11595514;stroke-opacity:1"
       d="m 147.12963,-39.930163 h -1.53475 c -1.40498,0 -4.2699,-2.298974 -4.2699,-3.586796 v -8.023429 c 0,-1.023769 3.31553,-2.562126 4.77998,-2.562126 3.65438,0 4.7809,3.625547 4.7809,7.339414 v 0.514588 c 0,2.671173 -1.35541,6.318349 -3.75623,6.318349 z"
       id="path845"
       inkscape:connector-curvature="0" /><path
       style="fill:none;fill-opacity:1;fill-rule:evenodd;stroke:#ff0000;stroke-width:0.11595514;stroke-opacity:1"
       d="m 141.32498,-54.785628 v -1.366227 h -3.24614 v 25.438317 h 3.24614 v -9.047199 c 1.44642,0.967897 2.48461,2.562128 5.12154,2.562128 h 0.17304 c 4.82234,0 7.68096,-4.227554 7.68096,-9.049903 v -0.341556 c 0,-5.027824 -2.67568,-10.071869 -7.51245,-10.071869 -3.02353,0 -3.68592,0.686718 -5.46309,1.876309 z"
       id="path843"
       inkscape:connector-curvature="0" /><path
       style="fill:none;fill-opacity:1;fill-rule:evenodd;stroke:#ff0000;stroke-width:0.11595514;stroke-opacity:1"
       d="m 120.32239,-51.370962 c 0,-1.62307 2.01328,-2.731552 3.75622,-2.731552 h 0.51008 c 1.79881,0 5.29457,1.654612 5.29457,3.241635 v 3.587697 h -2.73154 c -3.23533,0 -6.82933,-0.810183 -6.82933,-3.929254 z"
       id="path841"
       inkscape:connector-curvature="0" /><path
       style="fill:none;fill-opacity:1;fill-rule:evenodd;stroke:#ff0000;stroke-width:0.11595514;stroke-opacity:1"
       d="m 117.07624,-51.202436 c 0,5.030526 5.27025,6.319249 10.41704,6.319249 h 2.38998 v 1.534754 c 0,1.897938 -1.15804,3.41827 -3.0731,3.41827 h -2.73155 c -2.04213,0 -2.84421,-1.359016 -3.24254,-3.076714 h -3.24523 c 0,4.450153 3.85445,5.808268 8.36408,5.808268 h 0.17213 c 5.12605,0 7.00237,-2.526979 7.00237,-7.684578 v -11.268668 h -3.24616 v 1.707784 c -0.3866,-0.102738 -1.99256,-1.222035 -2.72793,-1.538358 -0.56686,-0.246929 -2.75679,-0.679508 -3.59041,-0.679508 -3.19657,0 -6.48868,1.774473 -6.48868,4.780894 z"
       id="path839"
       inkscape:connector-curvature="0" /><path
       style="fill:none;fill-opacity:1;fill-rule:evenodd;stroke:#ff0000;stroke-width:0.11595514;stroke-opacity:1"
       d="m 101.88283,-53.247271 h 12.46187 v -2.904584 H 98.464555 v 25.438317 h 3.418275 z"
       id="path837"
       inkscape:connector-curvature="0" /><path
       style="fill:none;fill-opacity:1;fill-rule:evenodd;stroke:#ff0000;stroke-width:0.11595514;stroke-opacity:1"
       d="m 160.61977,-47.101051 c -0.0459,2.088092 -0.89399,8.452402 -1.46806,10.138558 -0.90841,2.657652 -2.95054,5.111635 -5.0909,6.522922 -4.84038,3.196575 -10.30348,4.777288 -17.50592,5.545116 -6.94199,0.735382 -14.18767,1.178776 -22.03716,1.178776 -4.77368,0 -19.637267,-0.355075 -19.637267,3.418269 v 0.341558 c 0,6.520218 42.001567,9.730313 52.249167,9.730313 h 11.78236 c 13.25403,0 41.66362,-2.18993 41.66362,-13.658666 v -0.169426 c 0,-3.548045 -3.96441,-7.934211 -5.6821,-10.198038 -1.21753,-1.601442 -6.04439,-7.744956 -7.29436,-8.582176 v 1.023769 h 0.51098 c -0.0775,0.954375 -0.8309,1.735722 -1.01385,2.742368 -0.17663,1.010251 -0.22891,2.158385 -0.69393,2.893769 0,-1.872705 -1.53836,-4.474485 -1.53836,-5.121548 0,-0.30641 0.25685,-0.282078 0.51369,-0.341557 l -1.14362,-2.587361 c 0.14058,-0.102737 0.62993,-0.376704 0.62993,-0.658782 0,-0.929141 -1.28512,-2.298973 -1.8763,-2.731551 l -0.16492,-0.06308 -0.65158,1.717695 0.64797,0.05227 -0.7534,2.021402 1.09135,0.02794 c -0.21178,0.925537 -1.19409,1.72851 -1.19409,2.731553 v 0.513687 h 0.85614 l -1.21483,3.347977 0.19017,0.06669 h 0.33794 l -0.57766,2.372872 0.7498,0.01443 -1.69969,6.149823 c -0.84171,-0.612818 -0.34155,-1.471666 -0.74979,-2.672071 -0.40915,-1.193198 -0.65879,-1.21032 -1.13733,-2.10882 l 0.84804,-0.210884 -1.54196,-3.71026 c 0.39833,-0.112652 0.69392,-0.173033 0.69392,-0.690324 v -0.17213 c 0,-0.947167 -0.93275,-1.633884 -1.02105,-2.727948 h 0.67951 c -0.0315,-1.45815 -0.80298,-2.063758 -1.36623,-2.904584 l 0.54252,-0.655177 -1.37974,-2.153879 0.155,-0.09553 c -1.32747,0 -1.97544,0.845331 -2.21787,1.879914 h 1.1932 l -1.38335,2.985693 0.19015,0.08742 h 0.68222 c -0.23882,0.8976 -1.02376,0.830911 -1.02376,2.390896 0,0.566859 0.34154,0.355074 0.34154,0.682213 0,0.475836 -0.6831,1.345501 -0.6831,2.049341 0,0.535315 0.30641,0.485749 0.6831,0.683112 l -1.68345,3.161428 0.65879,0.08021 c 0.33074,0 0.3028,-0.05227 0.51008,-0.168526 -0.10544,1.277907 -1.87631,3.256052 -1.87631,6.657201 -0.67951,-0.180241 -1.09857,-2.651345 -1.39056,-3.390334 -0.33075,-0.851638 -1.25988,-2.291764 -1.34099,-3.266867 l 0.6759,0.190155 -1.67895,-4.396982 0.66149,-0.06038 c 0.33075,0 0.30281,0.05317 0.51009,0.169428 l -1.27791,-3.20739 0.94716,-0.161315 -1.46806,-2.725246 1.29232,-0.369494 -1.32026,-2.344034 c 0.66508,-0.08111 0.9751,-0.01442 0.9751,-0.581277 0,-0.06669 -1.22833,-1.707784 -1.70688,-1.707784 -0.60921,0 -0.6696,0.405541 -0.68672,1.02467 h 0.51369 l -0.97871,1.443731 0.81018,0.09102 c -0.0315,1.303143 -1.02828,1.88352 -1.02828,2.904585 0,0.513687 0.20458,0.471329 0.68312,0.510082 l -1.31666,2.668467 0.12346,0.147797 h 0.34157 l -1.38066,4.808834 -1.53835,-4.548383 0.51458,0.197362 -1.20762,-3.090232 0.71107,-0.01442 c 0,-1.752844 -1.08055,-1.514025 -1.19681,-2.900979 h 0.85165 l -0.85165,-2.048439 v -0.341558 c 0.3767,-0.0072 0.85165,0.05227 0.85165,-0.341556 0,-0.531711 -0.42268,-1.21122 -0.85165,-1.366228 v 0.514589 c 0,0.738987 -0.27127,0.524502 -0.34156,1.365326 z"
       id="path835"
       inkscape:connector-curvature="0" /><path
       style="fill:none;fill-opacity:1;fill-rule:evenodd;stroke:#ff0000;stroke-width:0.11595514;stroke-opacity:1"
       d="m 173.93684,-48.466366 -1.30941,-1.986313 0.45778,-0.06302 -0.7326,-1.333796 0.3911,-0.03151 -0.90478,-1.852049 0.90478,-0.02795 -0.80579,-1.036913 c -0.26166,-0.117181 -0.51459,-0.222023 -0.76005,-0.316197 l -1.07472,1.275661 0.76066,0.07745 c -0.14779,0.647065 -0.68311,1.232032 -0.68311,1.534836 0,0.362284 0.064,0.228842 0.17299,0.685752 l -0.59844,0.426271 0.42545,0.08477 -1.08783,1.833958 -0.27757,0.04594 -1.05257,-1.689733 0.53086,-0.221774 -0.6264,-0.704657 c 0.0604,-0.105441 0.29557,-0.355081 0.29557,-0.460522 0,-0.503773 -0.45421,-0.848982 -0.68311,-1.194144 l 0.53898,-0.657904 -1.0175,-0.915559 0.14423,-0.112716 0.69032,-0.203679 -0.33764,-0.407671 c -1.19498,0.177722 -2.04605,0.754717 -2.70113,1.477004 -0.12713,0.211709 -0.22086,0.461151 -0.22086,0.820525 v 0.683107 h 0.3415 l -0.61999,0.904783 -0.7814,1.981739 -1.02461,-1.499568 c 0.25685,-0.47133 0.20816,0.119916 0.20816,-0.530754 0,-0.02523 -0.16948,-0.337953 -0.17309,-0.345163 0.32916,-0.618097 0.80255,-1.546082 1.42395,-2.221096 0.90275,-1.100452 2.20556,-2.057345 4.15466,-2.111939 2.54805,-0.07137 6.08919,1.334611 11.32187,5.585623 l -0.008,0.01016 0.75528,0.536039 -0.73535,1.281453 c -0.34877,-0.232511 -1.03193,-1.042684 -1.03193,-1.541952 0,-0.03574 9.3e-4,-0.0657 0.002,-0.09381 -0.93862,-0.743837 -1.81743,-1.388817 -2.63964,-1.944538 -0.14696,0.195926 -0.26619,0.412783 -0.26619,0.672131 0,0.02433 0.16847,0.337997 0.17207,0.341605 l -0.53796,0.834448 c 0.24963,0.467725 0.19646,-0.119801 0.19646,0.531771 0,0.386616 -0.89409,1.675324 -1.19689,1.879898 z"
       id="path833"
       inkscape:connector-curvature="0"
       sodipodi:nodetypes="cccccccccccsccccccccscccccccscccccscccccccsccsccsc" /><path
       style="opacity:1;fill:none;fill-opacity:1;fill-rule:evenodd;stroke:#020000;stroke-width:0.19668168;stroke-linecap:square;stroke-linejoin:miter;stroke-miterlimit:4;stroke-dasharray:none;stroke-dashoffset:0;stroke-opacity:1"
       d="M 11.812498,-0.45117152 H 209.28987 c 4.13405,0 7.46219,-3.32813598 7.46219,-7.46218828 V -60.501293 c 0,-4.134053 -3.32814,-7.462189 -7.46219,-7.462189 H 11.812498 c -4.1340525,0 -7.4621885,3.328136 -7.4621885,7.462189 v 52.5879332 c 0,4.1340523 3.328136,7.46218828 7.4621885,7.46218828 z"
       id="rect822"
       inkscape:connector-curvature="0" /></g></svg>