<?xml version="1.0" encoding="UTF-8" standalone="no"?>
<!-- Created with Inkscape (http://www.inkscape.org/) -->

<svg
   xmlns:dc="http://purl.org/dc/elements/1.1/"
   xmlns:cc="http://creativecommons.org/ns#"
   xmlns:rdf="http://www.w3.org/1999/02/22-rdf-syntax-ns#"
   xmlns:svg="http://www.w3.org/2000/svg"
   xmlns="http://www.w3.org/2000/svg"
   xmlns:sodipodi="http://sodipodi.sourceforge.net/DTD/sodipodi-0.dtd"
   xmlns:inkscape="http://www.inkscape.org/namespaces/inkscape"
   width="75mm"
   height="126.66741mm"
   viewBox="0 0 75 126.66741"
   version="1.1"
   id="svg8"
   sodipodi:docname="Hut2.svg"
   inkscape:version="0.92.3 (2405546, 2018-03-11)">
  <defs
     id="defs2" />
  <sodipodi:namedview
     id="base"
     pagecolor="#ffffff"
     bordercolor="#666666"
     borderopacity="1.0"
     inkscape:pageopacity="0.0"
     inkscape:pageshadow="2"
     inkscape:zoom="2"
     inkscape:cx="69.95649"
     inkscape:cy="314.45127"
     inkscape:document-units="mm"
     inkscape:current-layer="layer1"
     showgrid="false"
     inkscape:snap-global="false"
     fit-margin-top="0"
     fit-margin-bottom="0"
     fit-margin-right="0"
     fit-margin-left="0"
     inkscape:window-width="1920"
     inkscape:window-height="1138"
     inkscape:window-x="-8"
     inkscape:window-y="-8"
     inkscape:window-maximized="1" />
  <metadata
     id="metadata5">
    <rdf:RDF>
      <cc:Work
         rdf:about="">
        <dc:format>image/svg+xml</dc:format>
        <dc:type
           rdf:resource="http://purl.org/dc/dcmitype/StillImage" />
        <dc:title></dc:title>
      </cc:Work>
    </rdf:RDF>
  </metadata>
  <g
     inkscape:label="Ebene 1"
     inkscape:groupmode="layer"
     id="layer1"
     transform="translate(58.604121,128.3372)">
    <path
       style="color:#000000;font-style:normal;font-variant:normal;font-weight:normal;font-stretch:normal;font-size:medium;line-height:normal;font-family:sans-serif;font-variant-ligatures:normal;font-variant-position:normal;font-variant-caps:normal;font-variant-numeric:normal;font-variant-alternates:normal;font-feature-settings:normal;text-indent:0;text-align:start;text-decoration:none;text-decoration-line:none;text-decoration-style:solid;text-decoration-color:#000000;letter-spacing:normal;word-spacing:normal;text-transform:none;writing-mode:lr-tb;direction:ltr;text-orientation:mixed;dominant-baseline:auto;baseline-shift:baseline;text-anchor:start;white-space:normal;shape-padding:0;clip-rule:nonzero;display:inline;overflow:visible;visibility:visible;opacity:1;isolation:auto;mix-blend-mode:normal;color-interpolation:sRGB;color-interpolation-filters:linearRGB;solid-color:#000000;solid-opacity:1;vector-effect:none;fill:#000001;fill-opacity:1;fill-rule:nonzero;stroke:#ff0000;stroke-width:0;stroke-linecap:butt;stroke-linejoin:miter;stroke-miterlimit:4;stroke-dasharray:none;stroke-dashoffset:0;stroke-opacity:1;paint-order:markers stroke fill;color-rendering:auto;image-rendering:auto;shape-rendering:auto;text-rendering:auto;enable-background:accumulate"
       d="m -6.6602991,-99.712058 -13.7352809,8.35079 -13.512369,-1.74731 5.434343,13.62139 c 0.0021,0.0117 0.0042,0.0235 0.0064,0.0352 0.51002,0.93385 1.329472,1.63682 2.404151,2.11766 -0.170846,2.0754 -0.440846,4.56757 -0.84804,8.10608 -0.844613,7.33967 -5.098922,16.42926 -5.023284,23.60391 0.0579,5.49252 2.345986,10.69483 4.509307,13.71043 1.905449,2.65614 3.598467,4.18617 4.835441,5.12483 0.618487,0.46932 1.124755,0.79346 1.454566,1.01987 0.162768,0.11174 0.258736,0.21573 0.307075,0.26347 -0.0034,0.0638 0.0041,0.63166 -0.174579,1.38535 -0.190242,0.8023 -0.509416,1.80247 -0.910552,2.82253 -0.375285,0.95432 -1.300674,2.62084 -2.13565,4.2004 -0.417488,0.78978 -0.814126,1.56442 -1.118522,2.25427 -0.304395,0.68985 -0.533965,1.25618 -0.560023,1.84581 -0.06285,1.42205 0.380236,2.88692 1.463105,3.6990804 0.305216,0.22891 0.771524,0.47808 1.50976,0.79635 0.738235,0.31827 1.719886,0.6779 2.931544,1.01316 2.420824,0.66983 5.759966,1.24164 9.8719915,1.17204 4.1063997,0.0695 7.3832554,-0.46154 9.7451343,-1.09138 1.1822806,-0.31528 2.1352007,-0.65511 2.8525659,-0.95889 0.7173644,-0.30378 1.1739612,-0.54621 1.4775886,-0.77393 1.0860448,-0.81454 1.7265614,-2.3524904 1.6600963,-3.8564304 -0.02443,-0.55285 -0.2162667,-1.13404 -0.4845503,-1.84123 -0.2682813,-0.7072 -0.624319,-1.50695 -1.0159098,-2.31831 -0.7831808,-1.62274 -1.6998367,-3.27858 -2.3408748,-4.27115 -0.5446968,-0.8434 -0.8469394,-1.77972 -0.9841959,-2.57187 -0.1164891,-0.6723 -0.088493,-1.28043 -0.060378,-1.50793 -0.011368,0.005 -0.0056,-0.0199 0.01418,-0.0872 -0.0042,0.0143 -0.00917,0.0466 -0.01418,0.0872 0.02364,-0.01 0.1225148,-0.14843 0.3311647,-0.30799 0.308992,-0.23629 0.786429,-0.57331 1.3836673,-1.04885 1.1944814,-0.95106 2.8746996,-2.46651 4.8883481,-5.02267 2.2855652,-2.90134 4.4711531,-8.25192 4.5289761,-13.73696 0.07564,-7.17465 -4.178666,-16.26424 -5.0232822,-23.60391 -0.9569681,-8.31605 -1.1612917,-10.87724 -1.0828413,-15.74116 l -0.1123703,-0.002 c -0.00612,-0.26978 -0.1344283,-0.50199 -0.2645365,-0.64752 -0.1333026,-0.14911 -0.2730479,-0.24163 -0.4200555,-0.32324 -0.2940145,-0.16322 -0.6318101,-0.27773 -1.0459452,-0.38895 -0.8282647,-0.22245 -1.9549539,-0.40795 -3.3406228,-0.56536 -0.7063893,-0.0802 -1.4796832,-0.15233 -2.3080947,-0.21544 -0.011259,-0.20799 -0.046553,-0.41178 -0.1077965,-0.61019 -2.0799754,-4.92191 -2.9139045,-7.04216 -4.9854711,-11.98995 z m 4.8099788,14.05912 c 0.87749863,0.0648 1.6919748,0.1392 2.4248866,0.22246 1.2278415,0.13948 2.1571377,0.30772 2.8548524,0.4783 -0.6977179,0.17058 -1.6269695,0.33942 -2.8548524,0.47891 -0.9773021,0.11101 -2.0967906,0.20678 -3.3230888,0.28405 0.3945268,-0.493 0.6973392,-0.98372 0.8982022,-1.46372 z m 6.2871092,1.97617 c -0.018981,4.14365 0.236064,7.06551 1.105105,14.61747 0.8913278,7.74561 5.0826431,16.86337 5.0135251,23.41943 -0.05369,5.0926 -2.2003565,10.28549 -4.2124471,12.83967 -1.9427961,2.46622 -3.5226793,3.88577 -4.6482076,4.78193 -0.5627649,0.44807 -1.0104046,0.76266 -1.3611012,1.03085 -0.3506973,0.26819 -0.6766528,0.43399 -0.8361469,0.97626 -0.169399,0.57596 -0.1579625,1.30883 0.00747,2.26358 0.1654278,0.95475 0.5209737,2.07066 1.1985688,3.11985 0.5812499,0.89999 1.4941813,2.54307 2.2515281,4.11227 0.3786758,0.7846 0.7205822,1.55389 0.9657462,2.20014 0.245167,0.64626 0.382223,1.20322 0.3901715,1.38306 0.041552,0.94023 -0.5966208,2.25461 -1.0718658,2.61105 -0.086697,0.065 -0.5186958,0.32112 -1.1674647,0.5958604 -0.6487689,0.27473 -1.5398632,0.59401 -2.6577084,0.8921 -2.2356873,0.59618 -5.3804839,1.10986 -9.3528294,1.04137 h -0.01266 -0.01266 c -3.9674265,0.0684 -7.1699855,-0.4836 -9.4651995,-1.11867 -1.147608,-0.31754 -2.06855,-0.65641 -2.740806,-0.94623 -0.672254,-0.2898204 -1.123829,-0.5579404 -1.208935,-0.6217804 -0.478428,-0.35881 -0.919894,-1.43158 -0.874722,-2.4537 0.0063,-0.14307 0.158783,-0.68692 0.436217,-1.31566 0.277434,-0.62875 0.662119,-1.38144 1.073543,-2.15975 0.822848,-1.55661 1.746973,-3.18898 2.203652,-4.35028 0.423377,-1.07661 0.761483,-2.12838 0.97337,-3.02196 0.211887,-0.89358 0.367462,-1.54589 0.165888,-2.23125 -0.172852,-0.58769 -0.533205,-0.72334 -0.898965,-0.97443 -0.365759,-0.2511 -0.827168,-0.54586 -1.39739,-0.97856 -1.140444,-0.8654 -2.707614,-2.27059 -4.528975,-4.80952 -1.976604,-2.75535 -4.178965,-7.78109 -4.232574,-12.8662 -0.06912,-6.55606 4.12281,-15.67382 5.014137,-23.41943 0.384124,-3.33804 0.646789,-5.76363 0.820594,-7.79687 2.811074,0.66268 6.760081,0.25678 11.274564,-1.13666 3.7482585,-1.15694 6.9400537,-2.84693 9.0533776,-4.63449 1.8940875,-0.0875 3.602968,-0.217 5.0374642,-0.37995 1.3856689,-0.15741 2.5123581,-0.34291 3.3406228,-0.56536 0.1258193,-0.0338 0.242466,-0.0685 0.3551025,-0.10414 z"
       id="path832"
       inkscape:connector-curvature="0" />
    <path
       style="fill:#000000;fill-opacity:1;fill-rule:evenodd;stroke:#000000;stroke-width:0.07806475px;stroke-linecap:butt;stroke-linejoin:miter;stroke-opacity:1"
       d="m -21.624818,-16.693348 c -1.003272,1.66935 -3.326498,4.87146 -0.37119,6.15396 2.341943,1.1152104 8.13195,2.1578604 13.0479682,2.0073704 5.4645322,-0.16728 4.5753198,-0.37033 4.5753198,-0.37033 0,0 -9.013415,-0.54136 -9.486559,-2.8282204 -0.473144,-2.28687 10.8211233,-10.016137 10.7932442,-12.999317 -2.1952354,0.607477 -6.0425141,0.39366 -15.3029312,-0.565452 -0.429022,3.059352 -1.681732,5.948828 -3.255852,8.601989 z"
       id="path839"
       inkscape:connector-curvature="0"
       sodipodi:nodetypes="ccscsccc" />
    <path
       style="fill:#000000;fill-opacity:1;fill-rule:evenodd;stroke:#000000;stroke-width:0.07806475px;stroke-linecap:butt;stroke-linejoin:miter;stroke-opacity:1"
       d="m -29.238676,-42.595288 c 12.050547,2.53412 26.615236,2.29304 38.4886515,0.18361 -2.9790842,9.08985 -7.1282308,12.89898 -11.729795,15.25564 -2.0006609,1.02463 -13.3251035,0.60889 -14.4908935,0.15936 -4.496204,-1.73373 -8.86037,-5.72258 -12.267963,-15.59861 z"
       id="path843"
       inkscape:connector-curvature="0"
       sodipodi:nodetypes="ccssc" />
    <path
       style="fill:#000000;fill-opacity:1;fill-rule:evenodd;stroke:#000000;stroke-width:0.07806475px;stroke-linecap:butt;stroke-linejoin:miter;stroke-opacity:1"
       d="m -27.976959,-43.068438 c 4.460843,-1.17097 12.03511,-2.11482 17.709798,-2.10105 6.3008812,0.0153 13.0526101,0.93556 18.1126138,2.27265 0,0 -12.1938461,1.55151 -18.2317188,1.50424 -6.037873,-0.0473 -17.590693,-1.67584 -17.590693,-1.67584 z"
       id="path845"
       inkscape:connector-curvature="0"
       sodipodi:nodetypes="csczc" />
    <path
       style="opacity:1;fill:#000001;fill-opacity:1;stroke:#ff0000;stroke-width:0;stroke-linecap:butt;stroke-linejoin:miter;stroke-miterlimit:4;stroke-dasharray:none;stroke-dashoffset:0;stroke-opacity:1;paint-order:markers stroke fill"
       d="m -27.958866,-114.29142 -27.991705,17.113112 5.885241,0.84819 c 0.06522,3.13185 0.04959,8.67709 0.07746,10.83057 0,0 0.0069,0.102815 -0.0435,0.283854 -0.05043,0.18104 -0.188282,0.271674 -0.432721,0.295308 -0.244439,0.02363 -0.477461,-0.186037 -0.687375,-0.708337 -0.177952,-0.35974 -0.254333,-0.707435 -0.25127,-0.832305 0.0031,-0.12487 0.0078,-0.2751 -0.03807,-0.29533 -0.138519,-0.0704 -0.48241,0.58134 -0.52343,0.72774 -0.04102,0.14638 -0.03448,0.28504 -0.02409,0.3952 0.03451,0.36568 0.08882,0.55438 0.352816,1.22617 0.2383,0.60639 0.297457,0.83683 0.301891,1.17447 0.0021,0.16016 -0.0158,0.28013 -0.06861,0.45741 -0.03636,0.12206 -0.123928,0.35748 -0.163601,0.43988 -0.01185,0.0246 -0.03731,0.0812 -0.05657,0.12564 -0.08083,0.18666 -0.282448,0.57272 -0.328421,0.66187 l -0.05443,0.13051 c -0.02161,0.0603 -0.04346,0.10091 -0.08599,0.213 -0.102972,0.27139 -0.117266,0.31995 -0.153233,0.51978 -0.02366,0.13143 -0.02949,0.22238 -0.02546,0.39657 0.0077,0.33284 0.06864,0.56842 0.217117,0.83904 0.03923,0.0715 0.07807,0.14621 0.0863,0.16589 0.0092,0.022 0.06817,0.0907 0.153538,0.17885 0.07622,0.0787 0.13975,0.14715 0.141035,0.15216 0.0039,0.0154 0.318481,0.23658 0.411974,0.2897 0.233847,0.13285 0.536955,0.25167 0.746495,0.29274 -0.352938,0.325946 -0.770197,0.610251 -1.089281,1.111083 -0.483975,0.74701 -0.685439,2.201896 -0.725201,4.011086 -0.01332,0.39763 0.725813,0.422783 0.730377,0.02499 0.160785,-1.685138 0.275012,-0.563104 0.248177,0.256197 -0.01296,0.39768 0.773041,0.387134 0.777148,-0.01069 0.0038,-1.119469 0.25884,-1.243551 0.196649,-0.314334 -0.01332,0.39762 0.714119,0.41109 0.718683,0.0133 0.04902,-1.118197 0.227788,-0.835039 0.252857,-0.14286 -0.0066,0.40845 0.707256,0.39514 0.683146,-0.0127 0.08002,-1.045728 0.110653,-0.620315 0.139278,0.69374 -0.0086,0.4108 0.616509,0.39674 0.589449,-0.0133 -0.01415,-0.822532 0.164702,-1.675456 0.169397,-0.44186 -0.0059,0.4082 0.777559,0.452725 0.753306,0.04516 -0.02773,-1.061224 0.155674,-1.384176 0.160037,-0.04567 -0.0059,0.40822 0.777574,0.347508 0.753305,-0.06007 -0.03976,-1.8092 -0.251384,-3.272766 -0.627378,-3.954627 -0.375994,-0.681861 -0.657033,-0.904365 -0.998633,-1.157752 0.0023,-0.002 0.01777,-0.005 0.03431,-0.006 0.08516,-0.004 0.396062,-0.0673 0.41167,-0.0836 0.0051,-0.005 0.02958,-0.013 0.05428,-0.0171 0.07814,-0.0129 0.224518,-0.0747 0.321408,-0.13555 0.04006,-0.0252 0.08527,-0.0498 0.100478,-0.0547 0.0152,-0.005 0.02572,-0.0106 0.02348,-0.0128 -0.0023,-0.002 0.01515,-0.0132 0.03858,-0.0244 v -1.5e-4 c 0.05748,-0.0275 0.296241,-0.28547 0.359525,-0.3885 0.06069,-0.0988 0.171612,-0.3807 0.165277,-0.4199 -9.13e-4,-0.005 0.0055,-0.0508 0.01403,-0.10109 0.03692,-0.21721 0.03874,-0.40415 0.0066,-0.65318 -0.06629,-0.51299 -0.252032,-1.03236 -0.56902,-1.59088 -0.226348,-0.39882 -0.304225,-0.5697 -0.351443,-0.77089 -0.05874,-0.25023 -0.0224,-0.58578 0.08904,-0.82181 0.01825,-0.0386 0.03595,-0.0834 0.03934,-0.0994 0.005,-0.0236 0.03595,-0.0868 0.04574,-0.0933 0.0013,-8.8e-4 0.01162,-0.0259 0.02287,-0.0556 0.01125,-0.0298 0.02227,-0.0524 0.02455,-0.0502 0.0023,0.002 0.0093,-0.0133 0.01555,-0.0343 0.0062,-0.021 0.01329,-0.0363 0.0157,-0.034 0.0024,0.002 0.0153,-0.0257 0.02867,-0.0624 0.01336,-0.0366 0.02588,-0.0652 0.02775,-0.0634 0.005,0.005 0.08873,-0.21304 0.128532,-0.33437 0.06422,-0.19578 0.09463,-0.40685 0.08599,-0.59799 -0.0088,-0.19566 -0.04695,-0.33418 -0.13082,-0.47601 -0.04957,-0.0838 -0.179733,-0.2108 -0.208274,-0.23983 -0.02855,-0.029 -0.02996,-0.0345 -0.04681,-0.0342 -0.01685,3.1e-4 -0.127072,0.005 -0.115922,0.05753 0.01917,0.0902 0.04109,0.354937 0.02554,0.433697 -0.09538,0.479253 -0.185404,0.667697 -0.54931,0.941618 -0.125633,0.065 -0.277489,0.140909 -0.379911,0.142909 -0.126619,0.001 -0.24636,0.02744 -0.421311,-0.131939 -0.17495,-0.159376 -0.217496,-0.28921 -0.235649,-0.390623 -0.01815,-0.101413 -0.02695,-0.255635 -0.03242,-0.363967 l -0.158265,-11.28676 28.154192,3.978166 27.9917053,-17.113266 z m -7.869903,17.328392 -12.020906,-1.68525 0.04101,-0.29213 12.266688,1.71971 7.345101,-4.469212 -11.476129,-1.60886 0.04147,-0.29214 11.832451,1.65888 7.121885,-4.33336 -11.825286,-1.65781 0.04086,-0.29228 12.182372,1.70797 6.302509,-3.83493 -11.659094,-1.63479 0.04102,-0.29228 25.5832851,3.58732 -0.040861,0.29213 c 4.4943113,0.5659 -13.4576291,-1.88773 -13.4576291,-1.88773 l -6.308151,3.83493 12.9398428,1.81409 -0.040862,0.29213 -13.2969288,-1.8641 -7.121427,4.33336 13.289305,1.86318 -0.04086,0.292142 -13.646389,-1.913202 -7.344797,4.469362 12.854918,1.8022 -0.04101,0.29213 -13.211851,-1.85221 z m -15.784938,12.67989 c 2e-5,0 1.32e-4,4.6e-4 1.56e-4,4.6e-4 2e-5,0 -2.2e-5,-4.6e-4 0,-4.6e-4 z m 1.56e-4,4.6e-4 c -8.79e-4,8e-5 -3.44e-4,0.006 0.0014,0.0198 0.0021,0.016 0.0076,0.0327 0.0122,0.037 0.0108,0.0104 0.0097,0.002 -0.0044,-0.0355 -0.0053,-0.0141 -0.0081,-0.0209 -0.0091,-0.0213 z"
       id="rect880"
       inkscape:connector-curvature="0"
       sodipodi:nodetypes="cccczzccccccccccccsscccccscccccccccccccccczcccccccccccsccccccccccccccccccccczzcccccccccccccccccccccccccccccccccccccccccccccc" />
    <g
       id="g949" />
    <rect
       style="opacity:1;fill:none;fill-opacity:1;stroke:#ff0000;stroke-width:0.5993858;stroke-linecap:round;stroke-linejoin:miter;stroke-miterlimit:4;stroke-dasharray:none;stroke-dashoffset:0;stroke-opacity:1;paint-order:markers stroke fill"
       id="rect978"
       width="74.400612"
       height="126.06802"
       x="-58.304428"
       y="-128.03751" />
  </g>
</svg>
