<?xml version="1.0" encoding="UTF-8" standalone="no"?>
<!-- Created with Inkscape (http://www.inkscape.org/) -->

<svg
   xmlns:dc="http://purl.org/dc/elements/1.1/"
   xmlns:cc="http://creativecommons.org/ns#"
   xmlns:rdf="http://www.w3.org/1999/02/22-rdf-syntax-ns#"
   xmlns:svg="http://www.w3.org/2000/svg"
   xmlns="http://www.w3.org/2000/svg"
   xmlns:sodipodi="http://sodipodi.sourceforge.net/DTD/sodipodi-0.dtd"
   xmlns:inkscape="http://www.inkscape.org/namespaces/inkscape"
   width="240.41086mm"
   height="375.97784mm"
   viewBox="0 0 240.41086 375.97784"
   version="1.1"
   id="svg8"
   inkscape:version="0.92.3 (2405546, 2018-03-11)"
   sodipodi:docname="Hut1.svg">
  <defs
     id="defs2" />
  <sodipodi:namedview
     id="base"
     pagecolor="#ffffff"
     bordercolor="#666666"
     borderopacity="1.0"
     inkscape:pageopacity="0.0"
     inkscape:pageshadow="2"
     inkscape:zoom="0.35355339"
     inkscape:cx="671.85482"
     inkscape:cy="657.72341"
     inkscape:document-units="mm"
     inkscape:current-layer="layer1"
     showgrid="false"
     inkscape:snap-global="false"
     fit-margin-top="5"
     fit-margin-bottom="5"
     fit-margin-right="5"
     fit-margin-left="5"
     inkscape:window-width="1920"
     inkscape:window-height="1138"
     inkscape:window-x="-8"
     inkscape:window-y="-8"
     inkscape:window-maximized="1" />
  <metadata
     id="metadata5">
    <rdf:RDF>
      <cc:Work
         rdf:about="">
        <dc:format>image/svg+xml</dc:format>
        <dc:type
           rdf:resource="http://purl.org/dc/dcmitype/StillImage" />
        <dc:title></dc:title>
      </cc:Work>
    </rdf:RDF>
  </metadata>
  <g
     inkscape:label="Ebene 1"
     inkscape:groupmode="layer"
     id="layer1"
     transform="translate(55.069832,86.103224)">
    <ellipse
       style="opacity:1;fill:none;fill-opacity:1;stroke:#000001;stroke-width:5;stroke-linecap:butt;stroke-linejoin:miter;stroke-miterlimit:4;stroke-dasharray:none;stroke-dashoffset:0;stroke-opacity:1;paint-order:markers stroke fill"
       id="path832"
       ry="5.8072114"
       rx="51.121365"
       cy="18.337053"
       cx="105.64435" />
    <path
       id="path836"
       style="fill:none;fill-rule:evenodd;stroke:#000000;stroke-width:5;stroke-linecap:butt;stroke-linejoin:miter;stroke-miterlimit:4;stroke-dasharray:none;stroke-opacity:1"
       d="m 157.14368,18.237882 c -0.26727,16.570711 0.43962,25.47343 3.68518,53.677296 2.9418,25.564119 17.25424,56.419512 17.00893,79.688132 -0.18897,17.92528 -7.5312,35.79182 -14.81418,45.03698 -13.4095,17.02228 -22.09698,19.89676 -22.76516,22.16855 -0.66817,2.27179 -0.35366,9.77016 3.78902,16.18463 4.14268,6.41447 12.40416,22.36063 12.62366,27.32721 0.18305,4.142 -1.98438,8.97693 -4.63021,10.9613 -2.64583,1.98438 -18.80432,9.54392 -46.20759,9.07143 -27.403272,0.47249 -44.363563,-7.62159 -47.009396,-9.60597 -2.645834,-1.98437 -4.145087,-6.28476 -3.962035,-10.42676 0.219494,-4.96658 9.93753,-20.15679 12.75729,-27.32721 2.794502,-7.10619 4.457195,-13.91284 3.789021,-16.18463 -0.668173,-2.27179 -10.133953,-4.56101 -22.765157,-22.16855 -7.015712,-9.7797 -14.62521,-27.1117 -14.814185,-45.03698 -0.245306,-23.26862 14.067139,-54.124013 17.00893,-79.688132 3.24556,-28.203866 3.952454,-37.106585 3.685185,-53.677296"
       inkscape:connector-curvature="0"
       sodipodi:nodetypes="cssscsccccssssssc" />
    <path
       style="fill:#000000;fill-opacity:1;fill-rule:evenodd;stroke:#000000;stroke-width:0.26458332px;stroke-linecap:butt;stroke-linejoin:miter;stroke-opacity:1"
       d="m 76.908655,222.11485 c 0.944942,6.2366 -6.923774,21.3881 -10.638685,27.56934 -3.400371,5.65788 -11.274435,16.51073 -1.258066,20.85748 7.9375,3.77976 27.561455,7.31361 44.223216,6.80356 18.52083,-0.56697 15.50704,-1.25515 15.50704,-1.25515 0,0 -30.548986,-1.83485 -32.152602,-9.58566 -1.603618,-7.75082 30.959052,-32.15397 30.864562,-42.26483 -19.54635,1.05008 -46.545465,-2.12474 -46.545465,-2.12474 z"
       id="path839"
       inkscape:connector-curvature="0"
       sodipodi:nodetypes="cscscscc" />
    <path
       style="fill:#000000;fill-opacity:1;fill-rule:evenodd;stroke:#000000;stroke-width:0.26458332px;stroke-linecap:butt;stroke-linejoin:miter;stroke-opacity:1"
       d="m 40.464472,161.89525 c 40.842681,8.58886 90.206488,7.77176 130.448818,0.62232 -10.09695,30.80804 -24.15957,43.71825 -39.75556,51.70564 -6.7808,3.47275 -45.162505,2.06367 -49.113694,0.5401 -15.238897,-5.87608 -30.030275,-19.39542 -41.579564,-52.86806 z"
       id="path843"
       inkscape:connector-curvature="0"
       sodipodi:nodetypes="ccssc" />
    <path
       style="fill:#000000;fill-opacity:1;fill-rule:evenodd;stroke:#000000;stroke-width:0.26458332px;stroke-linecap:butt;stroke-linejoin:miter;stroke-opacity:1"
       d="m 44.740784,160.29163 c 15.119048,-3.96875 40.790358,-7.16773 60.023466,-7.12107 21.35545,0.0518 44.23895,3.17088 61.38872,7.70266 0,0 -41.32836,5.2585 -61.7924,5.09827 -20.464042,-0.16024 -59.619786,-5.67986 -59.619786,-5.67986 z"
       id="path845"
       inkscape:connector-curvature="0"
       sodipodi:nodetypes="csczc" />
    <path
       style="fill:#000000;fill-opacity:1;fill-rule:evenodd;stroke:#000000;stroke-width:0.18016139px;stroke-linecap:butt;stroke-linejoin:miter;stroke-opacity:1"
       d="M 116.98902,-31.689578 70.43621,-3.386323 24.639125,-9.3084494 43.057388,36.858258 c 0.007,0.03982 0.01417,0.07957 0.02167,0.119228 6.246774,11.437954 26.170777,12.68263 51.23725,4.945582 25.066512,-7.737063 42.801242,-22.506877 39.569852,-32.975209 -7.04962,-16.6817397 -9.87602,-23.867993 -16.89714,-40.637437 z"
       id="path876"
       inkscape:connector-curvature="0"
       sodipodi:nodetypes="cccccscc" />
    <path
       style="opacity:1;fill:#000000;fill-opacity:1;stroke:none;stroke-width:3.4046247;stroke-linecap:butt;stroke-linejoin:miter;stroke-miterlimit:4;stroke-dasharray:none;stroke-dashoffset:0;stroke-opacity:1;paint-order:markers stroke fill"
       d="M 44.801973,-81.103224 164.1127,-64.375216 69.240904,-6.3737869 -50.069832,-23.101795 Z"
       id="rect880"
       inkscape:connector-curvature="0"
       sodipodi:nodetypes="ccccc" />
    <path
       style="fill:none;fill-rule:evenodd;stroke:#ffffff;stroke-width:1;stroke-linecap:butt;stroke-linejoin:miter;stroke-miterlimit:4;stroke-dasharray:none;stroke-opacity:1"
       d="M 93.269173,-67.789796 18.263344,-22.150672"
       id="path888"
       inkscape:connector-curvature="0"
       sodipodi:nodetypes="cc" />
    <path
       style="fill:none;fill-rule:evenodd;stroke:#ffffff;stroke-width:1;stroke-linecap:butt;stroke-linejoin:miter;stroke-miterlimit:4;stroke-dasharray:none;stroke-opacity:1"
       d="m 52.745052,-73.754542 86.709388,12.157123"
       id="path890"
       inkscape:connector-curvature="0" />
    <path
       inkscape:connector-curvature="0"
       id="path892"
       d="M 29.470901,-60.015033 116.18029,-47.85791"
       style="fill:none;fill-rule:evenodd;stroke:#ffffff;stroke-width:1;stroke-linecap:butt;stroke-linejoin:miter;stroke-miterlimit:4;stroke-dasharray:none;stroke-opacity:1" />
    <path
       style="fill:none;fill-rule:evenodd;stroke:#ffffff;stroke-width:1;stroke-linecap:butt;stroke-linejoin:miter;stroke-miterlimit:4;stroke-dasharray:none;stroke-opacity:1"
       d="M 5.1698982,-44.341388 91.879283,-32.184265"
       id="path894"
       inkscape:connector-curvature="0" />
    <path
       inkscape:connector-curvature="0"
       id="path896"
       d="m -22.544011,-28.579496 86.709385,12.157123"
       style="fill:none;fill-rule:evenodd;stroke:#ffffff;stroke-width:1;stroke-linecap:butt;stroke-linejoin:miter;stroke-miterlimit:4;stroke-dasharray:none;stroke-opacity:1" />
    <path
       style="fill:#000000;stroke-width:0.0399713"
       d="m -29.688551,-24.524487 c 0.365245,8.77599 0.276683,32.5766137 0.385732,41.005244 0,0 0.01002,1.0145 -0.151344,1.30535 -0.161369,0.29085 -0.394528,0.57589 -0.700439,0.85295 -0.305903,0.27707 -0.861617,0.48218 -1.431749,0.47733 -1.0577,-0.009 -1.954517,-0.91099 -2.665975,-2.68121 -0.60313,-1.21927 -0.681428,-2.78987 -0.671047,-3.21308 0.01037,-0.42321 0.29413,-0.93266 0.138686,-1.00124 -0.46948,-0.23855 -1.635235,1.97075 -1.774265,2.46692 -0.139031,0.49615 -0.116849,0.9657 -0.08163,1.33905 0.11695,1.23939 0.300943,1.87902 1.195709,4.15588 0.807665,2.05524 1.008583,2.83634 1.023614,3.98071 0.0072,0.5428 -0.05396,0.94945 -0.232952,1.55031 -0.123234,0.41369 -0.419982,1.21173 -0.554445,1.49102 -0.04015,0.0834 -0.126404,0.27494 -0.191669,0.42569 -0.273953,0.63265 -0.957258,1.94111 -1.113074,2.24327 l -0.184459,0.44234 c -0.07324,0.20424 -0.147178,0.34186 -0.291334,0.72179 -0.348999,0.9198 -0.397606,1.08471 -0.519509,1.76197 -0.08018,0.44546 -0.09992,0.75332 -0.08628,1.34371 0.02617,1.1281 0.232906,1.92698 0.736133,2.84419 0.132951,0.24231 0.264559,0.49516 0.292461,0.56186 0.03123,0.0747 0.231103,0.30748 0.520426,0.60616 0.258339,0.26672 0.473296,0.49888 0.477651,0.51587 0.01337,0.0521 1.079649,0.80161 1.396523,0.98163 0.792572,0.45027 1.819577,0.8531 2.529765,0.99232 0.115503,0.0226 0.268094,0.0562 0.339138,0.0744 0.07103,0.0182 0.273256,0.0434 0.449413,0.0559 0.176168,0.0125 0.512116,0.042 0.746555,0.0654 0.234443,0.0235 0.846322,0.0443 1.359658,0.0462 0.637087,0.002 0.953835,0.0232 0.997864,0.0655 0.07617,0.0732 0.07418,0.2103 -0.0042,0.29179 -0.03758,0.0393 -0.03595,0.0905 0.0055,0.15924 0.05336,0.0887 0.09426,0.10169 0.328806,0.10497 0.166415,0.002 0.291412,-0.0207 0.329992,-0.0607 0.06786,-0.0705 0.06994,-0.20953 0.0033,-0.22389 -0.07097,-0.0153 -0.04007,-0.20889 0.04411,-0.27661 0.05405,-0.0435 0.419094,-0.0733 1.133948,-0.0925 1.935496,-0.0522 3.462658,-0.14069 3.523333,-0.20381 0.0078,-0.008 0.06012,-0.0172 0.116171,-0.0199 0.288616,-0.0142 1.34284,-0.22833 1.395739,-0.2833 0.01731,-0.018 0.09992,-0.044 0.18364,-0.0578 0.264847,-0.0438 0.760985,-0.25288 1.08937,-0.45911 0.135792,-0.0853 0.289038,-0.16874 0.340561,-0.18544 0.05152,-0.0167 0.08732,-0.0364 0.07974,-0.0438 -0.0077,-0.008 0.05114,-0.0445 0.130547,-0.0825 l -9e-6,-3.8e-4 c 0.19481,-0.0931 1.003878,-0.96756 1.218364,-1.31674 0.20569,-0.33491 0.581986,-1.29021 0.560515,-1.42307 -0.0031,-0.018 0.01833,-0.17225 0.0473,-0.34267 0.125143,-0.73619 0.1316,-1.36975 0.02254,-2.2138 -0.224663,-1.73867 -0.854331,-3.499 -1.928689,-5.39197 -0.76716,-1.35173 -1.031248,-1.93094 -1.191283,-2.6128 -0.199075,-0.84813 -0.07578,-1.9857 0.301931,-2.78567 0.06186,-0.131 0.122017,-0.28262 0.133511,-0.33694 0.01703,-0.08 0.121709,-0.29362 0.154886,-0.31583 0.0045,-0.003 0.03931,-0.0881 0.07745,-0.18904 0.03814,-0.10098 0.07565,-0.17744 0.08339,-0.16998 0.0078,0.008 0.03149,-0.0447 0.05264,-0.11587 0.02115,-0.0711 0.045,-0.12301 0.0532,-0.11519 0.0081,0.008 0.05182,-0.0874 0.09712,-0.21162 0.04528,-0.12422 0.0874,-0.22087 0.09375,-0.21483 0.01697,0.0164 0.30107,-0.7224 0.435975,-1.1336 0.217674,-0.66356 0.320421,-1.37859 0.291148,-2.02642 -0.02999,-0.66316 -0.159012,-1.13267 -0.443266,-1.61338 -0.168013,-0.28411 -0.609311,-0.71445 -0.706043,-0.81287 v 0 c -0.09676,-0.0984 -0.101425,-0.11705 -0.158525,-0.11593 -0.05709,10e-4 -0.15028,0.0873 -0.11249,0.26519 0.06498,0.30572 0.08291,1.14681 0.03018,1.41376 -0.0906,0.45869 -0.315103,1.15949 -0.43515,1.35816 -0.01747,0.0289 -0.06806,0.13006 -0.112327,0.22474 -0.04428,0.0946 -0.109578,0.21903 -0.145172,0.27631 -0.558124,0.89833 -1.159803,1.51237 -1.813263,1.85056 -0.425808,0.22037 -0.730711,0.30991 -1.077847,0.31662 -0.429148,0.004 -0.941239,-0.084 -1.399759,-0.7068 -0.458522,-0.62285 -0.688195,-1.01481 -0.854801,-1.44961 -0.1666,-0.43481 -0.1754,-0.83185 -0.21497,-1.15699 l -0.62724,-44.757084 z m -5.681861,45.127764 c -0.0033,-7e-4 -9.38e-4,0.0225 0.005,0.069 0.0071,0.0542 0.02546,0.11077 0.04093,0.12565 0.03661,0.0352 0.03303,0.006 -0.0147,-0.1206 -0.01841,-0.0489 -0.02797,-0.0733 -0.03144,-0.074 z"
       id="path915"
       inkscape:connector-curvature="0"
       sodipodi:nodetypes="cccccccccccccccccccccccccccccccccsccccccccccccccccccccccccccccccccccccccccccccccccccsc" />
    <path
       style="fill:none;fill-rule:evenodd;stroke:#000000;stroke-width:2;stroke-linecap:round;stroke-linejoin:miter;stroke-miterlimit:4;stroke-dasharray:none;stroke-opacity:1"
       d="m -28.777332,40.206297 c -3.704167,3.83646 -7.805209,5.29167 -8.069792,17.33021"
       id="path918"
       inkscape:connector-curvature="0" />
    <path
       inkscape:connector-curvature="0"
       id="path920"
       d="m -25.998623,40.178897 c 3.704167,3.83646 7.805209,5.29167 8.069792,17.33021"
       style="fill:none;fill-rule:evenodd;stroke:#000000;stroke-width:2;stroke-linecap:round;stroke-linejoin:miter;stroke-miterlimit:4;stroke-dasharray:none;stroke-opacity:1" />
    <path
       style="fill:none;fill-rule:evenodd;stroke:#000000;stroke-width:2;stroke-linecap:round;stroke-linejoin:miter;stroke-miterlimit:4;stroke-dasharray:none;stroke-opacity:1"
       d="m -27.123102,40.245047 c 3.704167,3.83645 5.279512,5.38521 5.544095,17.42375"
       id="path922"
       inkscape:connector-curvature="0"
       sodipodi:nodetypes="cc" />
    <path
       sodipodi:nodetypes="cc"
       inkscape:connector-curvature="0"
       id="path924"
       d="m -27.986906,41.064247 c -3.704167,3.83646 -5.279512,5.38521 -5.544095,17.42375"
       style="fill:none;fill-rule:evenodd;stroke:#000000;stroke-width:2;stroke-linecap:round;stroke-linejoin:miter;stroke-miterlimit:4;stroke-dasharray:none;stroke-opacity:1" />
    <path
       style="fill:none;fill-rule:evenodd;stroke:#000000;stroke-width:2;stroke-linecap:round;stroke-linejoin:miter;stroke-miterlimit:4;stroke-dasharray:none;stroke-opacity:1"
       d="m -26.183542,41.648207 c -3.704167,3.83646 -3.782803,3.70141 -4.047386,15.73995"
       id="path926"
       inkscape:connector-curvature="0"
       sodipodi:nodetypes="cc" />
    <path
       sodipodi:nodetypes="cc"
       inkscape:connector-curvature="0"
       id="path928"
       d="m -27.263419,41.741757 c 3.704167,3.83645 2.84736,5.43198 3.111943,17.47052"
       style="fill:none;fill-rule:evenodd;stroke:#000000;stroke-width:2;stroke-linecap:round;stroke-linejoin:miter;stroke-miterlimit:4;stroke-dasharray:none;stroke-opacity:1" />
    <path
       style="fill:none;fill-rule:evenodd;stroke:#000000;stroke-width:2;stroke-linecap:round;stroke-linejoin:miter;stroke-miterlimit:4;stroke-dasharray:none;stroke-opacity:1"
       d="m -27.197273,40.088107 c 1.038153,1.68494 -0.0057,4.77717 0.258841,16.81571"
       id="path930"
       inkscape:connector-curvature="0"
       sodipodi:nodetypes="cc" />
  </g>
</svg>
