<?xml version="1.0" encoding="UTF-8" standalone="no"?>
<!-- Created with Inkscape (http://www.inkscape.org/) -->

<svg
   xmlns:dc="http://purl.org/dc/elements/1.1/"
   xmlns:cc="http://creativecommons.org/ns#"
   xmlns:rdf="http://www.w3.org/1999/02/22-rdf-syntax-ns#"
   xmlns:svg="http://www.w3.org/2000/svg"
   xmlns="http://www.w3.org/2000/svg"
   xmlns:sodipodi="http://sodipodi.sourceforge.net/DTD/sodipodi-0.dtd"
   xmlns:inkscape="http://www.inkscape.org/namespaces/inkscape"
   width="210mm"
   height="297mm"
   viewBox="0 0 210 297"
   version="1.1"
   id="svg8438"
   inkscape:version="0.92.3 (2405546, 2018-03-11)"
   sodipodi:docname="BockSchichten.svg">
  <defs
     id="defs8432" />
  <sodipodi:namedview
     id="base"
     pagecolor="#ffffff"
     bordercolor="#666666"
     borderopacity="1.0"
     inkscape:pageopacity="0.0"
     inkscape:pageshadow="2"
     inkscape:zoom="1.4"
     inkscape:cx="388.25409"
     inkscape:cy="992.33382"
     inkscape:document-units="mm"
     inkscape:current-layer="layer1"
     showgrid="false"
     showguides="true"
     inkscape:guide-bbox="true"
     inkscape:window-width="1920"
     inkscape:window-height="1001"
     inkscape:window-x="-9"
     inkscape:window-y="-9"
     inkscape:window-maximized="1">
    <sodipodi:guide
       position="10.772321,274.22173"
       orientation="1,0"
       id="guide9015"
       inkscape:locked="false" />
    <sodipodi:guide
       position="-2.8348214,236.99108"
       orientation="0,1"
       id="guide9017"
       inkscape:locked="false" />
  </sodipodi:namedview>
  <metadata
     id="metadata8435">
    <rdf:RDF>
      <cc:Work
         rdf:about="">
        <dc:format>image/svg+xml</dc:format>
        <dc:type
           rdf:resource="http://purl.org/dc/dcmitype/StillImage" />
        <dc:title></dc:title>
      </cc:Work>
    </rdf:RDF>
  </metadata>
  <g
     inkscape:label="Ebene 1"
     inkscape:groupmode="layer"
     id="layer1">
    <path
       inkscape:connector-curvature="0"
       id="path7833"
       style="fill:none;stroke:#000000;stroke-width:0.03406599;stroke-linecap:butt;stroke-linejoin:miter;stroke-miterlimit:4;stroke-dasharray:none;stroke-opacity:1"
       d="m 44.196654,0.63322206 c -0.07347,-0.010429 -0.122136,0.0401196 -0.161015,0.13440177 -0.101471,0.24600647 -0.412248,0.88724837 -0.6913,1.42518247 -0.279051,0.5379303 -0.507663,1.1394337 -0.507663,1.3366903 0,0.5669036 -0.677316,0.7415228 -1.385263,0.3572944 -0.598148,-0.3246348 -0.670716,-0.3042609 -0.933487,0.2588213 -0.187445,0.4016667 -0.477128,0.6107931 -0.845661,0.6107931 -0.405141,0 -0.586931,0.1531173 -0.656703,0.5535725 -0.05307,0.3045995 -0.191639,0.5542381 -0.308058,0.5542381 -0.116419,0 -0.417739,0.5086504 -0.670008,1.1304313 -0.473808,1.1678238 -1.184587,1.9155474 -1.820402,1.9155474 -0.200737,0 -0.489779,0.1866138 -0.642064,0.4151793 -0.152284,0.2285874 -0.453622,0.3848361 -0.670009,0.3466478 -0.316231,-0.055815 -0.476292,0.2209459 -0.815721,1.4125412 -0.275022,0.965487 -0.725584,1.872044 -1.292112,2.598862 -0.784478,1.006437 -0.912222,1.081901 -1.297436,0.772474 -0.565307,-0.454086 -1.045037,-0.190798 -2.060593,1.128436 -1.030032,1.338034 -1.223882,2.483503 -3.248911,3.499082 -0.431262,0.216285 -4.021678,1.555688 -5.792549,2.466459 -7.390061,3.800759 -4.960081,2.029637 -6.96623,1.359977 -1.915819,0.92619 -2.418577,1.734373 -2.644771,1.749874 v 35.334818 h 0.09981 40.612386 1.459779 91.875717 19.51942 V 1.9858816 c -1.51147,0.021296 -3.03829,0.8846579 -3.29216,1.1743452 -0.03,0.03421 -0.35788,0.2931354 -0.72856,0.5755288 -0.37068,0.2823858 -0.77002,0.6356193 -0.88758,0.7851148 -0.11755,0.149493 -0.25645,0.2721293 -0.30872,0.2721293 -0.0523,0 -0.6578,0.5640246 -1.34534,1.253522 -0.68755,0.6894949 -1.21025,1.2535221 -1.16171,1.2535221 0.0485,0 -0.061,0.1258822 -0.24352,0.2794476 -0.5037,0.4238341 -1.30099,1.7839202 -1.58486,2.7039876 -0.32813,1.063495 -0.6412,1.56607 -1.64009,2.6308 -1.36063,1.450276 -1.56586,1.990537 -1.85368,4.88368 -0.22713,2.283358 -0.35995,2.708592 -1.11845,3.586909 -0.22568,0.261351 -0.60648,0.811929 -0.84632,1.223582 -0.28931,0.496608 -0.58296,0.841212 -0.87228,1.024641 -1.28838,0.816841 -1.55163,1.000716 -1.81841,1.267494 -0.16046,0.160464 -0.41095,0.521588 -0.5569,0.802414 -0.3053,0.587485 -1.16703,2.998723 -1.16703,3.265545 l -0.21822,0.334006 c 0,0.07504 -0.24516,0.749632 -0.54493,1.499701 -0.18832,0.474015 -0.44485,1.054461 -0.76782,1.690659 -1.61041,-1.172565 -4.36935,-3.497166 -5.13453,-3.607536 -0.99879,-0.144072 -7.72472,1.045423 -8.78329,0.890241 -0.0433,-0.0063 -0.36449,-0.0319 -0.4897,-0.04392 l -0.0166,-0.07718 c -0.22062,-1.029373 -0.53011,-3.800312 -0.48504,-4.343416 l 0.0339,-0.405864 0.22954,0.435806 c 0.12618,0.239825 0.48612,1.156456 0.80042,2.036641 0.33313,0.932915 0.64217,1.627637 0.74054,1.665374 0.44016,0.1689 1.00934,-0.907999 1.00934,-1.909559 0,-0.462862 -0.10494,-0.925098 -0.3746,-1.653397 -0.20582,-0.556003 -0.42955,-1.223192 -0.49701,-1.482404 -0.0675,-0.259215 -0.22345,-0.651176 -0.34731,-0.87161 -0.12387,-0.220439 -0.47087,-0.866911 -0.77115,-1.436494 -0.73372,-1.391825 -1.05657,-1.841946 -1.78115,-2.487748 -0.63185,-0.563152 -1.81526,-1.264322 -2.01934,-1.196303 l -0.58613,-0.287432 c -1.39006,-0.580803 -4.57854,-1.04327 -7.19511,-1.04327 h -3.26289 c -0.56184,0.431368 -3.93514,-0.776777 -6.0354,-0.477057 -2.46968,0.509392 -4.58492,0.265636 -6.48518,-0.74719 -0.34865,-0.18583 -0.74113,-0.48848 -0.87227,-0.67267 -0.21668,-0.303755 -0.23588,-0.449402 -0.21026,-1.562911 0.019,-0.828556 -0.0118,-1.241878 -0.0905,-1.227573 -0.48052,0.08732 -0.783455,0.614486 -1.130434,1.151723 -0.08632,0.235867 -0.168248,0.35541 -0.181644,0.265475 -0.01325,-0.08993 -0.036,-0.212834 -0.0499,-0.272794 -0.01391,-0.05996 -0.03082,-0.194488 -0.03726,-0.299409 0.04084,-1.28429 0.357748,-2.619006 0.634078,-3.3793195 0.0705,-0.1939231 0.24571,-0.5390954 0.39522,-0.7651541 0.31876,-0.4819663 0.37783,-0.467282 1.17834,0.3027351 0.41809,0.4005582 0.62695,0.6503963 1.19963,1.5150045 0.95455,1.442506 1.18785,2.895198 0.61479,3.822445 -0.26672,0.43154 -0.25059,0.445997 0.25948,0.232873 0.84704,-0.353915 1.2655,-1.017541 1.2655,-2.007366 -0.21912,-2.9819338 -1.12445,-4.1176774 -1.42185,-4.5137433 -0.4274,-0.5692354 -0.48992,-0.5925462 -1.11712,-1.1696882 0.52912,-0.4188862 0.59226,-0.3432204 1.46311,-0.7811222 0.91328,-0.3152745 2.3032,-0.7815998 3.71931,-0.61545 2.01041,0.23588 3.48827,0.6621064 4.61488,1.8144129 0.64229,0.6569562 0.86354,1.2600576 0.86096,2.3553443 -0.003,1.0924515 -0.21629,1.6730275 -0.78578,2.1311205 l -0.30273,0.243519 0.42449,-0.0652 c 0.60301,-0.09299 1.20383,-0.53098 1.55892,-1.135089 0.2708,-0.460776 0.30606,-0.627171 0.30606,-1.4551245 0,-0.8802481 -0.0274,-0.9890884 -0.46308,-1.8683065 -0.37764,-0.7621065 -0.62017,-1.0811148 -1.32006,-1.7359016 -0.47162,-0.4412326 -1.13785,-0.9701514 -1.4804,-1.1750109 -0.67045,-0.4009534 -2.26867,-1.0350765 -2.90559,-1.1530532 -1.59584,-0.294056 -2.84022,-0.3692981 -4.43856,0.1244143 -1.23822,0.3544258 -3.13876,1.3083504 -3.708009,1.8609869 -0.176056,0.1709149 -0.392219,0.2173176 -1.423853,0.3053965 -0.442668,0.037789 -1.116953,0.1649652 -1.498372,0.2827746 -2.202455,0.6802696 -3.513733,4.1115864 -2.804455,7.3394914 0.232643,1.011459 0.877716,1.685014 1.147066,2.711307 0.09748,0.371411 0.246597,0.717931 0.282772,1.492384 0.04523,0.967018 0.02194,1.112867 -0.34465,2.201648 -0.215917,0.641302 -0.39256,1.365777 -0.39256,1.610149 0,0.413479 0.03577,0.466067 0.517644,0.75717 1.020937,0.616775 1.045359,0.66101 0.960769,1.743222 -0.06621,0.846317 -0.051,0.979872 0.137726,1.212935 0.190425,0.235164 0.232327,0.245418 0.40653,0.101792 0.663067,-0.546628 1.242877,-2.034746 1.413207,-3.62683 0.06551,-0.612343 0.124814,-0.772073 0.338664,-0.912197 0.235539,-0.154298 0.283667,-0.153351 0.530949,0.0086 0.149652,0.09804 0.426562,0.483465 0.614786,0.856972 0.543556,1.078613 0.990596,1.720164 1.703306,2.443171 l 0.66402,0.673335 0.34332,0.233538 c 0.0598,0 0.30126,0.174309 0.53694,0.387234 0.29735,0.268642 0.53345,0.643888 0.77114,1.226244 0.21536,0.52765 0.35618,0.858188 0.47972,1.128435 -1.91518,-0.215409 -3.215,-0.405085 -3.37134,-0.538934 -0.52037,-0.445524 -5.671638,-0.375922 -6.409331,-0.725899 -2.950765,-1.399908 -5.263097,-2.274044 -5.445234,-2.459804 -0.364278,-0.371521 -1.366787,-1.174387 -1.822398,-1.968109 -0.811159,-1.413116 -0.840711,-1.436804 -1.435163,-1.125775 -0.524677,0.27452 -0.693529,0.237309 -1.244873,-0.274124 -0.370202,-0.343401 -0.781733,-1.068936 -0.98073,-1.729249 -0.487307,-1.617026 -0.795754,-2.107168 -1.325378,-2.107168 -0.279348,0 -0.921972,-0.550156 -1.617471,-1.384596 -0.634707,-0.761507 -1.213669,-1.384597 -1.286788,-1.384597 -0.170506,0 -0.829183,-2.177358 -0.711928,-2.353347 0.0045,-1.313595 -0.194476,-1.147213 -0.417175,-1.8104218 0,0 -0.108591,-0.5719005 -0.514979,-0.8583033 -0.406397,-0.2864016 -0.796426,-0.026613 -0.796426,-0.026613 -0.758755,0.094441 -1.050071,0.018901 -1.238221,-0.3213646 -0.14682,-0.2655241 -0.528064,-0.4451209 -0.946127,-0.4451209 -0.597597,0 -0.757383,-0.1379773 -1.088518,-0.9421372 C 73.170617,5.952257 71.8936,4.2021036 71.516684,4.2021036 c -0.156639,0 -0.425961,0.4052409 -0.598817,0.9002203 C 70.554847,6.1418309 68.473896,9.634697 68.158656,9.634697 66.689969,8.6275604 65.015625,7.9350154 63.680804,6.6599735 63.30538,6.1119825 60.966132,3.9253797 60.755253,3.9253797 c -0.09427,0 -0.438254,0.7164494 -0.763824,1.5921859 -0.681827,1.8340362 -1.246648,2.8383883 -1.596843,2.8383883 -0.134526,0 -0.244849,0.1149382 -0.244849,0.25483 0,0.1398789 -0.292893,0.5257192 -0.650711,0.8576377 -0.608123,0.5640864 -0.679958,0.5745824 -1.100493,0.161015 -0.611882,-0.6017416 -0.97055,-0.5545716 -1.911554,0.2528343 -0.441622,0.3789201 -0.901706,0.6893031 -1.022644,0.6893031 -0.120939,0 -1.004579,-0.8073841 -1.96412,-1.7937867 C 50.540678,7.7913859 49.298441,6.6148004 48.740339,6.162956 48.182238,5.7111141 46.937137,4.211695 45.973141,2.8308758 44.864866,1.2433791 44.417033,0.66440098 44.196654,0.63322206 Z M 98.056691,7.7652606 c -0.828032,1.9722259 -0.99364,3.7186304 -0.978586,5.7059134 -0.867529,-2.43457 -0.983591,-4.2062986 0.978586,-5.7059134 z" />
    <path
       inkscape:connector-curvature="0"
       id="path7833-1"
       style="fill:none;stroke:#ff0000;stroke-width:0.03406599;stroke-linecap:butt;stroke-linejoin:miter;stroke-miterlimit:4;stroke-dasharray:none;stroke-opacity:1"
       d="m 44.270508,1.1721579 c -0.02836,0.067441 -0.245425,0.5375555 -0.48238,1.0446017 -0.285084,0.6100437 -0.39434,1.1391028 -0.323361,1.5635756 0.131989,0.789298 -0.23837,1.0590762 -1.114463,0.8123938 -0.341535,-0.096153 -0.619538,-0.067312 -0.618112,0.063874 0.0042,0.3991882 1.478302,4.3453459 1.898913,5.0839512 0.361209,0.6343048 0.350114,0.6304628 -0.136396,-0.049235 C 43.20267,9.283318 42.57239,7.9805684 42.094808,6.7963748 41.617228,5.6121839 41.146802,4.6031322 41.048876,4.5541403 40.950946,4.5051496 40.771153,4.7926829 40.649665,5.192878 40.47742,5.7602695 40.373906,5.8523462 40.179928,5.6107187 c -0.433801,-0.5403534 -0.849337,-0.00773 -1.49438,1.9148817 -0.344766,1.0275354 -0.754506,1.9416431 -0.910201,2.0313172 -0.445379,0.2565192 -0.145045,0.9264434 0.694627,1.5502694 0.8766,0.651261 0.622042,0.776319 -0.345317,0.169664 -0.367202,-0.23028 -0.716378,-0.69977 -0.817718,-1.099826 C 37.130919,9.4821557 37.12686,9.480572 36.523822,9.9554633 36.1905,10.217948 35.876603,10.474637 35.825868,10.525669 c -0.157136,0.158057 0.926451,1.430506 1.218257,1.430506 0.482273,0 1.442051,0.866453 1.894922,1.711284 0.240882,0.449366 0.780271,1.135994 1.198962,1.52565 0.418695,0.38965 1.185769,1.193699 1.704632,1.786468 0.518867,0.592771 1.640052,1.618731 2.491075,2.28016 2.060543,1.601487 3.668747,2.958132 3.668747,3.09455 0,0.232723 -0.970926,-0.458779 -1.909559,-1.359978 -0.53809,-0.51663 -1.359681,-1.192285 -1.825723,-1.5017 -0.987049,-0.655322 -4.773872,-4.45547 -5.581633,-5.600926 -0.304421,-0.431686 -1.010131,-1.106437 -1.568233,-1.499703 -0.5581,-0.393263 -1.300682,-1.029734 -1.650072,-1.414537 -0.520761,-0.573536 -0.661631,-0.628776 -0.782453,-0.304731 -0.197648,0.530089 0.254591,2.088561 0.848323,2.923554 0.262544,0.369228 0.477057,0.958762 0.477057,1.309411 0,0.474772 0.197101,0.780397 0.772473,1.197633 0.922605,0.669037 1.182114,0.697597 1.323383,0.145047 0.150993,-0.590594 0.541979,-0.51379 0.823041,0.161679 0.132871,0.31934 0.355982,0.509919 0.499679,0.427156 0.142791,-0.08222 0.310737,-0.02539 0.373261,0.12641 0.06252,0.151834 0.264726,0.203932 0.449778,0.115776 0.240547,-0.114591 0.814425,0.462081 2.012688,2.022668 1.162636,1.514193 2.199147,2.565397 3.383978,3.431217 1.726683,1.261772 2.907584,2.508736 2.907584,3.070597 0,0.168647 -0.270726,-0.08706 -0.601476,-0.56821 -0.330754,-0.481155 -1.430737,-1.514469 -2.444501,-2.296128 -1.731393,-1.33499 -2.132849,-1.730326 -3.944869,-3.88299 -0.657513,-0.781115 -2.053205,-1.548984 -2.046621,-1.125776 0.0086,0.556027 0.530305,2.316818 0.837677,2.827079 0.197221,0.327402 0.670754,0.783196 1.052586,1.012664 0.381833,0.229475 0.861618,0.769719 1.065893,1.200294 0.204274,0.430575 0.536459,0.861494 0.737874,0.957441 0.280744,0.133727 1.099827,2.026305 1.099827,2.540977 0,0.36073 -0.369296,-0.03282 -0.467742,-0.498347 -0.160222,-0.757691 -1.838502,-3.167796 -2.668725,-3.832425 -0.839515,-0.672067 -1.582289,-1.894243 -1.732574,-2.851696 -0.181918,-1.158983 -0.595196,-0.922038 -0.829695,0.475727 -0.212019,1.263772 -0.73628,1.986664 -1.232895,1.700637 -0.158725,-0.09144 -0.364591,0.144595 -0.525628,0.602143 -0.145575,0.413588 -0.907692,1.686147 -1.693985,2.828409 -1.183161,1.718793 -1.299935,1.838492 -0.676662,0.692631 0.414211,-0.761506 1.017715,-1.758718 1.340683,-2.215621 0.322967,-0.456904 0.706558,-1.173354 0.852315,-1.592186 0.175415,-0.504052 0.412373,-0.761161 0.701281,-0.761161 0.337371,0 0.503821,-0.252645 0.733217,-1.113134 0.163227,-0.612285 0.296747,-1.494866 0.296747,-1.96079 0,-0.793902 -0.03448,-0.8354 -0.544258,-0.667347 -0.407562,0.134345 -0.688066,0.01913 -1.119121,-0.459092 l -0.574863,-0.638738 -0.347979,0.688638 -0.347314,0.688639 0.105797,-1.542284 0.105127,-1.542285 -0.76715,-0.911531 -0.766484,-0.911531 -1.054583,1.483734 c -0.579907,0.816065 -1.087028,1.608998 -1.127105,1.76185 -0.213095,0.812705 -3.543255,6.019928 -3.699353,5.784565 -0.05636,-0.08499 0.32408,-0.735456 0.844996,-1.445809 1.237495,-1.687525 1.912219,-3.106083 1.912219,-4.018056 0,-1.033972 -0.313107,-0.908571 -1.596177,0.472398 -0.09993,0.107548 -0.820446,1.379358 -2.433855,2.360667 -1.613411,0.981308 -4.119639,1.671998 -6.344126,3.026684 -2.224486,1.354686 -3.696868,1.399118 -5.708716,2.493072 -0.57514,0.312735 -0.730756,-1.078151 -1.385926,-1.094503 -0.327585,-0.0081 -1.235847,0.99403 -2.773186,1.881613 v 34.84046 h 0.09981 40.612385 1.45978 91.87773 19.51743 V 1.9858829 c -1.51148,0.021296 -3.0383,0.8846579 -3.29216,1.1743452 -0.03,0.03421 -0.35788,0.2931354 -0.72857,0.5755288 -0.37068,0.2823857 -0.77002,0.6356193 -0.88757,0.7851148 -0.11755,0.149493 -0.25645,0.2721292 -0.30872,0.2721292 -0.0523,0 -0.65781,0.5640247 -1.34535,1.2535208 -0.68754,0.6894961 -1.21024,1.2535234 -1.1617,1.2535234 0.0485,0 -0.061,0.1258821 -0.24353,0.2794463 -0.50369,0.4238341 -1.30098,1.7839215 -1.58486,2.7039896 -0.32813,1.063495 -0.64119,1.566069 -1.64008,2.630799 -1.36063,1.450275 -1.56586,1.990536 -1.85368,4.883679 -0.22713,2.283358 -0.35996,2.708592 -1.11845,3.586909 -0.22568,0.261351 -0.60648,0.811929 -0.84633,1.223582 -0.2893,0.496608 -0.58295,0.841212 -0.87227,1.024641 -1.28839,0.816841 -1.55164,1.000716 -1.81841,1.267494 -0.16047,0.160464 -0.41096,0.521588 -0.5569,0.802414 -0.3053,0.587484 -1.16703,2.998723 -1.16703,3.265545 L 144.71,29.302549 c 0,0.07504 -0.24516,0.749633 -0.54492,1.499702 -0.22683,0.570926 -0.55168,1.295069 -0.97608,2.088538 -1.77211,-1.094161 -5.06092,-3.237195 -5.55902,-3.290162 -1.08051,-0.114899 -7.04624,0.608984 -8.5757,0.431813 l -0.0813,-0.377919 c -0.22063,-1.029372 -0.53011,-3.800311 -0.48505,-4.343415 l 0.0339,-0.405864 0.22956,0.435806 c 0.12618,0.239825 0.48611,1.156456 0.8004,2.03664 0.33313,0.932914 0.64218,1.627638 0.74054,1.665375 0.44016,0.1689 1.00934,-0.907999 1.00934,-1.909559 0,-0.462862 -0.10494,-0.925098 -0.37458,-1.653399 -0.20583,-0.556001 -0.42956,-1.22319 -0.49703,-1.482402 -0.0675,-0.259215 -0.22345,-0.651177 -0.34731,-0.871611 -0.12386,-0.220438 -0.47087,-0.86691 -0.77114,-1.436493 -0.73373,-1.391825 -1.05657,-1.841947 -1.78115,-2.487749 -0.63183,-0.563152 -1.81526,-1.264321 -2.01933,-1.196302 l -0.58619,-0.287432 c -1.39006,-0.580803 -4.57854,-1.04327 -7.19511,-1.04327 h -3.26277 c -0.56184,0.431366 -3.93514,-0.776778 -6.0354,-0.477058 -2.46968,0.509392 -4.58492,0.265637 -6.48518,-0.747189 -0.34865,-0.18583 -0.74113,-0.48848 -0.87227,-0.67267 -0.21668,-0.303755 -0.23588,-0.449402 -0.21026,-1.562911 0.019,-0.828556 -0.0118,-1.241878 -0.0905,-1.227573 -0.48052,0.08732 -0.783456,0.614486 -1.130435,1.151723 -0.08632,0.235867 -0.168248,0.35541 -0.181644,0.265475 -0.01325,-0.08993 -0.036,-0.212833 -0.0499,-0.272793 -0.01391,-0.05996 -0.03082,-0.194487 -0.03726,-0.299408 0.04084,-1.284291 0.357748,-2.619007 0.634079,-3.3793202 0.0705,-0.1939232 0.24571,-0.5390954 0.39522,-0.7651542 0.31876,-0.4819663 0.37783,-0.4672819 1.17834,0.3027352 0.41809,0.4005582 0.62695,0.6503963 1.19963,1.5150052 0.95455,1.442504 1.18785,2.895198 0.61479,3.822443 -0.26672,0.43154 -0.25059,0.445997 0.25948,0.232873 0.84704,-0.353915 1.2655,-1.017539 1.2655,-2.007364 -0.21912,-2.9819345 -1.12445,-4.1176794 -1.42185,-4.513744 -0.4274,-0.5692367 -0.48992,-0.5925462 -1.11712,-1.1696882 0.52912,-0.4188862 0.59226,-0.3432204 1.46311,-0.7811235 0.91328,-0.3152732 2.3032,-0.7815998 3.71931,-0.6154487 2.01041,0.2358787 3.48827,0.6621064 4.61488,1.8144129 0.64229,0.6569562 0.86354,1.2600576 0.86096,2.355343 -0.003,1.0924525 -0.21629,1.6730275 -0.78578,2.1311215 l -0.30273,0.243518 0.42449,-0.0652 c 0.60301,-0.09299 1.20383,-0.53098 1.55892,-1.135088 0.2708,-0.460777 0.30606,-0.627171 0.30606,-1.4551242 0,-0.8802481 -0.0274,-0.9890884 -0.46308,-1.8683065 -0.37764,-0.7621065 -0.62017,-1.0811149 -1.32006,-1.7359029 -0.47162,-0.4412326 -1.13785,-0.9701501 -1.4804,-1.1750096 -0.67045,-0.4009534 -2.26867,-1.0350778 -2.90559,-1.1530545 -1.59584,-0.294056 -2.84022,-0.3692981 -4.43856,0.1244143 -1.23822,0.3544258 -3.13876,1.3083517 -3.70801,1.8609882 -0.176056,0.1709149 -0.392219,0.2173176 -1.423853,0.3053965 -0.442668,0.037789 -1.116953,0.1649652 -1.498372,0.2827745 -2.202455,0.6802697 -3.513733,4.1115862 -2.804455,7.3394912 0.232643,1.011458 0.877716,1.685013 1.147066,2.711306 0.09748,0.371411 0.246597,0.71793 0.282772,1.492384 0.04523,0.967016 0.02194,1.112867 -0.34465,2.201648 -0.215917,0.641302 -0.39256,1.365777 -0.39256,1.610149 0,0.413479 0.03577,0.466067 0.517644,0.75717 1.020937,0.616775 1.045359,0.66101 0.960769,1.743222 -0.06621,0.846317 -0.051,0.979872 0.137726,1.212935 0.190425,0.235164 0.232327,0.245418 0.40653,0.101792 0.663067,-0.546628 1.242877,-2.034746 1.413207,-3.62683 0.06551,-0.612343 0.124814,-0.772073 0.338664,-0.912197 0.235539,-0.154298 0.283667,-0.153351 0.530949,0.0086 0.149652,0.09804 0.426562,0.483465 0.614786,0.856972 0.543557,1.078613 0.990597,1.720164 1.703307,2.443171 l 0.66402,0.673335 0.34332,0.233538 c 0.0598,0 0.30126,0.174309 0.53694,0.387234 0.29735,0.268642 0.53345,0.643888 0.77114,1.226244 0.3206,0.785494 0.49296,1.180376 0.65537,1.487725 -2.63505,-0.232662 -4.499492,-0.417013 -4.789867,-0.500344 -1.177685,-0.337971 -5.683727,-0.355268 -6.487177,-0.759832 -3.213802,-1.618253 -5.578486,-3.360715 -6.013445,-3.978136 -0.553517,-0.785707 -1.035926,-1.377832 -1.071882,-1.316065 -0.03595,0.06176 -0.284962,0.641507 -0.553572,1.288786 -0.268608,0.647283 -0.570477,1.177007 -0.670675,1.177007 -0.310378,0 -0.201937,-0.42905 0.279447,-1.107811 0.582337,-0.821113 0.57768,-0.894752 -0.08051,-1.332033 -0.86571,-0.575148 -1.470796,-1.409265 -1.865645,-2.570918 -0.202179,-0.594809 -0.484033,-1.081196 -0.626096,-1.081196 -0.142059,0 -0.949873,0.696385 -1.795118,1.547608 -1.498236,1.508829 -1.444254,1.323761 0.226887,-0.779127 l 0.819045,-1.031295 -0.737873,-0.992704 c -1.052905,-1.416374 -1.147813,-1.51562 -1.739228,-1.825059 -0.548535,-0.287004 -1.117801,-1.830244 -1.391917,-3.773207 -0.06984,-0.494976 -0.223879,-0.900034 -0.342656,-0.900221 -0.40144,-6.47e-4 -2.150045,3.103904 -2.370646,4.209013 -0.270479,1.355002 -0.964513,2.249126 -2.221609,2.862342 -0.535883,0.261407 -1.249824,0.784043 -1.586863,1.161703 -1.052769,1.179654 -4.527925,4.228308 -4.819806,4.228308 -0.152973,0 0.37164,-0.555717 1.165697,-1.234892 0.794051,-0.679178 1.913038,-1.816157 2.486419,-2.526339 0.573374,-0.710187 1.808298,-1.86294 2.744574,-2.562269 1.352533,-1.010243 1.740282,-1.435161 1.886936,-2.066581 0.101509,-0.437094 0.513579,-1.383952 0.915524,-2.104506 0.897564,-1.609004 0.949941,-1.874948 0.455102,-2.3127324 C 76.086297,9.4812377 75.694819,9.0959626 75.431575,8.8157129 75.019408,8.3769214 74.861416,8.3519059 74.293161,8.6334058 73.482111,9.0351536 73.313185,8.855629 72.725591,6.9726884 72.02144,4.7162356 71.773518,4.7991772 69.651002,7.9940025 68.204822,10.170803 68.625286,9.690982 67.963672,9.9760857 L 66.779345,9.5063472 C 66.274521,9.3062078 64.158248,7.7611855 62.451901,6.137007 61.619501,5.3446885 60.54833,5.0249218 60.54833,5.5687979 c 0,0.7182879 0.468486,1.9378706 1.141742,2.9727901 0.614449,0.9445166 0.728809,1.2839104 0.631421,1.866311 -0.107715,0.644211 -0.02753,0.777561 0.843,1.407883 l 0.962095,0.696623 c 0,0 1.278405,-1.538116 2.31476,-2.19433 0.382687,0.150885 0.610474,0.0138 0.664021,0.204264 -1.732678,1.355767 -3.072596,2.871657 -3.072596,2.871657 L 63.341476,12.67475 c -0.866788,-0.901574 -1.011832,-0.897389 -1.41986,0.03726 -0.20272,0.464369 -0.360132,0.620766 -0.407862,0.405865 -0.04272,-0.192396 0.0089,-0.50615 0.114436,-0.697288 0.10568,-0.191141 0.213431,-0.891016 0.239534,-1.554927 0.04179,-1.0633305 -0.02372,-1.2960573 -0.548916,-1.9541363 -1.293823,-1.6211747 -1.358344,-1.6217451 -2.620155,-0.039257 -0.623814,0.7823414 -1.236102,1.4225213 -1.360644,1.4225213 -0.12453,0 -0.366894,0.441347 -0.53827,0.980728 -0.657687,2.070034 -8.0594,12.677875 -8.0594,11.550501 0,-0.131448 0.57784,-0.897489 1.283462,-1.702634 1.386245,-1.581772 4.585273,-6.587843 5.399328,-8.448633 0.2762,-0.631343 0.525348,-1.456077 0.553572,-1.833042 0.04366,-0.583353 -0.0173,-0.674096 -0.409858,-0.608798 -0.253682,0.04221 -1.181075,0.69975 -2.061258,1.461113 -1.551059,1.341668 -4.322361,2.814464 -6.01012,3.194351 -1.388274,0.312476 -0.838984,-0.06675 1.273482,-0.878928 2.033351,-0.781772 4.262528,-2.222784 4.254925,-2.750563 -0.0021,-0.149631 -0.354059,-0.55009 -0.781788,-0.889575 -0.427729,-0.339487 -1.21855,-1.1827608 -1.757859,-1.8742951 -1.034792,-1.326878 -2.417204,-2.6218715 -2.804456,-2.6274723 -0.309936,-0.00425 -0.290999,0.897004 0.04524,2.1517467 0.237743,0.8872097 0.238656,0.9561353 0.0053,0.5023402 C 47.581554,8.2320069 47.239746,7.1545177 46.971159,6.1270286 46.603525,4.7205888 46.215636,3.8626047 45.402269,2.6545596 44.808058,1.7720069 44.298872,1.104713 44.270508,1.1721579 Z m 53.786183,6.593104 c -0.828032,1.9722246 -0.99364,3.7186301 -0.978586,5.7059131 -0.867529,-2.43457 -0.983591,-4.2062996 0.978586,-5.7059131 z" />
    <path
       inkscape:connector-curvature="0"
       id="path7825"
       style="fill:none;stroke:#007a00;stroke-width:0.03406599;stroke-linecap:butt;stroke-linejoin:miter;stroke-miterlimit:4;stroke-dasharray:none;stroke-opacity:1"
       d="m 127.64996,32.971958 0.63008,0.805742 c 0.94778,1.211881 1.33897,1.994619 1.72259,3.448515 0.28875,1.094425 0.34703,1.52031 0.35863,2.634793 0.009,0.790788 -0.0314,1.375861 -0.0985,1.443149 -0.0621,0.06223 -0.76131,0.146203 -1.5536,0.186295 -1.19953,0.06071 -1.43974,0.04693 -1.43716,-0.08051 0.003,-0.08418 0.0556,-0.496495 0.11845,-0.916191 0.0628,-0.419693 0.14693,-2.283832 0.18698,-4.142479 z m -18.37501,-1.645415 c 0.35007,-7.84e-4 0.74824,0.242615 0.8776,0.683316 0.21926,0.747194 0.25441,1.671874 0.10648,2.789821 -0.13885,1.048739 -0.13449,1.12506 0.0932,1.759854 0.34755,0.96916 0.29965,1.873904 -0.21624,4.105217 l -0.25017,1.082528 h -1.01067 c -0.52365,-6.81e-4 -0.46092,-0.196247 -1.27282,-0.07784 -0.31104,0.07806 -0.32861,-0.06141 0.12975,-1.230234 l 0.54093,-3.71133 0.0672,-0.406531 c 0.0368,-0.223336 0.0678,-0.724748 0.0685,-1.114462 0.001,-0.761872 0.18062,-2.911228 0.28478,-3.413916 0.0659,-0.318079 0.30923,-0.465801 0.58152,-0.466415 z m 11.62501,-1.023309 c 0.13643,-9.54e-4 0.48348,0.265539 0.87228,0.670675 1.2435,1.295755 1.6335,1.642437 2.52634,2.243566 0.49499,0.333247 0.95505,0.671835 1.02198,0.752511 0.067,0.08068 0.13705,0.147042 0.15635,0.147042 l 0.16104,0.09581 0.17299,1.232896 c 0.11781,0.838431 0.15663,1.686201 0.1218,2.650094 -0.0469,1.294593 -0.0798,1.478502 -0.38325,2.125796 -0.18269,0.389719 -0.34893,0.830839 -0.36926,0.980734 -0.0362,0.266425 -0.0581,0.272806 -0.96411,0.272125 -2.20556,-0.01468 -3.66866,0.03202 -5.87704,0.105784 l -0.74519,-0.212913 c -1.69903,0.142829 -5.71799,0.393912 -5.75263,0.359291 -0.0218,-0.02163 10e-4,-1.239974 0.0525,-2.707313 0.0816,-2.354058 0.12554,-2.789559 0.3746,-3.703347 0.16916,-0.620686 0.34918,-1.73447 0.4491,-2.779836 0.0917,-0.959299 0.18992,-1.809187 0.21824,-1.888268 0.1317,-0.0475 0.32566,-0.05888 0.48836,-0.109788 l 1.66472,0.08782 c 0.79304,-0.0013 2.37388,-0.07389 3.51305,-0.161678 1.13917,-0.08778 2.1735,-0.159994 2.29814,-0.161016 z M 164.35381,1.9858829 c -1.51147,0.021296 -3.03829,0.8846579 -3.29216,1.1743452 -0.03,0.03421 -0.35788,0.2931367 -0.72856,0.5755301 -0.37068,0.2823857 -0.77002,0.6356193 -0.88758,0.7851148 -0.11755,0.1494917 -0.25646,0.2721279 -0.30872,0.2721279 -0.0523,0 -0.6578,0.5640247 -1.34534,1.2535221 -0.68755,0.6894948 -1.21025,1.2535208 -1.16171,1.2535208 0.0485,0 -0.061,0.1258822 -0.24352,0.2794489 -0.5037,0.4238341 -1.30099,1.7839202 -1.58486,2.7039883 -0.32813,1.063495 -0.64121,1.566069 -1.64009,2.630799 -1.36063,1.450275 -1.56586,1.990536 -1.85368,4.883679 -0.22713,2.283358 -0.35995,2.708593 -1.11845,3.58691 -0.22568,0.261351 -0.60648,0.811928 -0.84632,1.223581 -0.28931,0.496608 -0.58296,0.841212 -0.87228,1.024641 -1.28838,0.816841 -1.55163,1.000716 -1.81841,1.267494 -0.16046,0.160464 -0.41095,0.521588 -0.5569,0.802414 -0.3053,0.587485 -1.16703,2.998723 -1.16703,3.265546 l -0.21822,0.334005 c 0,0.07504 -0.24516,0.749633 -0.54493,1.499703 -1.08119,2.721401 -4.25716,8.823421 -10.95568,10.179877 -0.53961,0.105076 -1.01164,0.160676 -1.04861,0.123758 -0.037,-0.03693 -0.12734,-0.606647 -0.20093,-1.266164 -0.15297,-1.370002 -0.63084,-3.780593 -1.11314,-5.614236 -0.36944,-1.404596 -0.37671,-1.420106 -1.03395,-2.383288 -0.26043,-0.381696 -0.47306,-0.758916 -0.47306,-0.838343 l -0.18962,-0.523632 -0.177,-0.825702 c -0.22061,-1.029371 -0.53009,-3.800309 -0.48502,-4.343413 l 0.0339,-0.405864 0.22953,0.435804 c 0.12617,0.239825 0.48612,1.156458 0.80042,2.036642 0.33313,0.932914 0.64218,1.627636 0.74055,1.665374 0.44015,0.1689 1.00933,-0.907998 1.00933,-1.909558 0,-0.462862 -0.10493,-0.925099 -0.37459,-1.653399 -0.20583,-0.556002 -0.42955,-1.223192 -0.49702,-1.482403 -0.0675,-0.259215 -0.22345,-0.651176 -0.34732,-0.87161 -0.12386,-0.220439 -0.47086,-0.86691 -0.77113,-1.436493 -0.73374,-1.391825 -1.05658,-1.841947 -1.78115,-2.48775 -0.63186,-0.563151 -1.81527,-1.26432 -2.01936,-1.196301 l -0.58616,-0.287432 c -1.39006,-0.580803 -4.57854,-1.043271 -7.19511,-1.043271 h -3.26289 c -0.56184,0.431367 -3.93514,-0.776777 -6.03539,-0.477057 -2.4697,0.509392 -4.58494,0.265637 -6.48519,-0.74719 -0.34864,-0.185829 -0.74113,-0.488479 -0.87228,-0.67267 -0.21668,-0.303754 -0.23587,-0.449401 -0.21024,-1.56291 0.019,-0.828556 -0.0116,-1.241879 -0.0905,-1.227574 -0.48052,0.08732 -0.783461,0.614486 -1.130439,1.151724 -0.08626,0.235867 -0.168242,0.355409 -0.181645,0.265475 -0.01326,-0.08993 -0.03605,-0.212834 -0.04996,-0.272795 -0.0139,-0.05996 -0.03077,-0.194487 -0.03721,-0.299408 0.04082,-1.28429 0.357754,-2.619007 0.634084,-3.3793196 0.0704,-0.1939232 0.24572,-0.5390955 0.39523,-0.7651542 0.31875,-0.4819676 0.37782,-0.467282 1.17833,0.3027352 0.41809,0.4005581 0.62696,0.6503963 1.19964,1.5150046 0.95454,1.442505 1.18785,2.895197 0.61478,3.822444 -0.26672,0.43154 -0.25059,0.445998 0.25948,0.232874 0.84704,-0.353915 1.2655,-1.017541 1.2655,-2.007366 -0.21912,-2.9819339 -1.12447,-4.1176788 -1.42185,-4.5137435 -0.42742,-0.5692353 -0.48994,-0.5925461 -1.11713,-1.1696882 0.52913,-0.4188861 0.59226,-0.3432204 1.46311,-0.7811221 0.91328,-0.3152745 2.3032,-0.7815998 3.71931,-0.6154501 2.01042,0.23588 3.48827,0.6621052 4.61488,1.8144129 0.6423,0.6569563 0.86355,1.2600576 0.86097,2.3553431 -0.003,1.0924529 -0.21629,1.6730279 -0.78578,2.1311219 l -0.30274,0.243519 0.42449,-0.0652 c 0.60302,-0.09299 1.20383,-0.53098 1.55892,-1.135091 0.27079,-0.460775 0.30606,-0.627169 0.30606,-1.4551239 0,-0.8802468 -0.0274,-0.9890884 -0.46308,-1.8683065 -0.37763,-0.7621065 -0.62016,-1.0811149 -1.32005,-1.7359017 -0.47163,-0.4412326 -1.13786,-0.9701513 -1.48041,-1.1750108 -0.67044,-0.4009534 -2.26867,-1.0350766 -2.90559,-1.1530533 -1.59584,-0.2940559 -2.84022,-0.3692981 -4.43856,0.1244144 -1.23821,0.3544258 -3.13877,1.3083504 -3.708002,1.8609881 -0.176057,0.170915 -0.392221,0.2173164 -1.423857,0.3053966 -0.442671,0.037789 -1.116956,0.1649652 -1.498373,0.2827732 -2.202454,0.680271 -3.513733,4.1115879 -2.804455,7.3394919 0.232643,1.011457 0.877717,1.685015 1.147066,2.711308 0.09748,0.371411 0.246596,0.71793 0.282772,1.492383 0.04523,0.967017 0.02194,1.112866 -0.344649,2.201647 -0.215917,0.641303 -0.392563,1.365779 -0.392563,1.610151 0,0.413479 0.03577,0.466067 0.517647,0.75717 1.020936,0.616775 1.045358,0.661008 0.960766,1.74322 -0.0662,0.846318 -0.051,0.979874 0.137729,1.212937 0.190425,0.235164 0.232326,0.245418 0.40653,0.101792 0.663067,-0.54663 1.24287,-2.034747 1.413211,-3.626831 0.06553,-0.612343 0.124762,-0.772074 0.33866,-0.912197 0.235541,-0.154298 0.283669,-0.153352 0.530953,0.0086 0.14965,0.09805 0.42656,0.483467 0.614784,0.856974 0.543561,1.078613 0.990591,1.720163 1.703291,2.443169 l 0.66402,0.673337 0.34332,0.233538 c 0.0597,0 0.30127,0.174308 0.53694,0.387234 0.29737,0.268642 0.53347,0.643887 0.77116,1.226243 0.54412,1.333144 0.66161,1.572705 1.0273,2.093195 0.82048,1.1678 1.19572,2.173874 1.36862,3.670744 0.16495,1.428089 0.39802,2.651466 0.40188,2.821754 l 0.0366,1.421192 v 0.505666 c 0.0863,0.936688 -0.0895,3.348507 -0.72524,3.974145 -0.24607,0.242182 -0.36115,0.460906 -0.34531,1.078533 -0.65349,0.310103 -1.7455,0.331407 -2.61683,0.05123 -0.70904,-0.227981 -0.77151,-0.231386 -1.16769,-0.06587 -0.23018,0.09618 -0.66659,0.338643 -0.97009,0.538934 -0.66859,0.441225 -0.71305,0.455424 -2.064589,0.656701 -3.531577,2.04432 -1.118982,2.301641 -3.531676,2.044623 -1.011645,0.927399 -1.64567,1.579142 -3.146447,1.834375 -0.799931,6.81e-4 -1.233755,0.119239 -2.601525,0.711261 -1.697809,0.734867 -2.457092,0.113805 -3.775203,0.224223 -0.237188,0.01987 -3.031526,1.770092 -3.185037,1.588193 -5.78317,2.138561 -3.651191,0.951187 -4.783213,1.163037 -0.292515,0.05474 -0.812703,0.189983 -1.441816,0.377918 L 74.772159,50.83332 c -3.268572,-0.680983 -7.927955,-1.272457 -14.328341,-2.79647 0.01197,-0.03496 0.01788,-0.07118 0.0153,-0.119097 -0.0093,-0.173168 -0.01352,-0.178554 -0.421833,-0.527625 -0.164546,-0.140672 -0.179879,-0.155869 -0.232875,-0.242185 -0.0479,-0.07787 -0.05445,-0.0938 -0.04325,-0.101136 0.0072,-0.0048 0.049,-0.02562 0.09248,-0.04657 0.123552,-0.05957 0.186498,-0.09739 0.28344,-0.168997 0.146696,-0.108385 0.203084,-0.165854 0.248842,-0.254167 0.05634,-0.108733 0.06489,-0.135542 0.06587,-0.217569 6.81e-4,-0.05744 -0.0024,-0.07562 -0.01465,-0.09515 -0.01393,-0.02211 -0.08248,-0.07318 -0.09847,-0.07318 -0.01403,0 -0.187575,-0.122174 -0.245514,-0.172991 -0.08204,-0.07197 -0.232786,-0.303348 -0.302069,-0.463751 -0.02401,-0.05562 -0.09183,-0.246031 -0.09181,-0.257491 1e-5,-0.0035 0.04277,-0.0063 0.09515,-0.0067 0.08923,-3.4e-4 0.09863,-0.0027 0.155029,-0.03926 0.06808,-0.0441 0.127916,-0.105242 0.133067,-0.135733 0.01846,-0.107547 0.0112,-0.16492 -0.0346,-0.265476 -0.05095,-0.111835 -0.22796,-0.379846 -0.445784,-0.675331 -0.09757,-0.13236 -0.140369,-0.202709 -0.230215,-0.378586 -0.07618,-0.149127 -0.108307,-0.21886 -0.135064,-0.290756 l -0.0266,-0.06986 0.01465,-0.03993 c 0.02085,-0.05831 0.01803,-0.09468 -0.0153,-0.182307 -0.03294,-0.08665 -0.05719,-0.171019 -0.05256,-0.183637 0.0017,-0.0045 0.02446,0.0031 0.05123,0.01598 0.07564,0.03664 0.136489,0.02749 0.206259,-0.03127 0.0711,-0.05994 0.08051,-0.08392 0.08051,-0.203599 0,-0.07599 -0.0037,-0.104123 -0.01996,-0.160349 -0.01683,-0.05839 -0.02759,-0.07809 -0.07519,-0.131075 -0.03066,-0.03413 -0.10102,-0.104484 -0.156357,-0.156357 -0.113637,-0.106543 -0.279365,-0.278888 -0.304729,-0.317372 -0.0093,-0.01407 -0.02078,-0.03939 -0.02596,-0.05656 l -0.01004,-0.03127 0.0519,-0.02194 c 0.08893,-0.03816 0.128483,-0.09199 0.151703,-0.205588 0.01465,-0.0716 0.01424,-0.179515 -6.82e-4,-0.207594 -0.01069,-0.02014 -0.01004,-0.02585 0.004,-0.07518 0.01921,-0.06748 0.01931,-0.131219 6.81e-4,-0.171661 -0.01352,-0.02929 -0.125637,-0.160257 -0.25483,-0.29741 -0.09279,-0.09852 -0.203599,-0.290675 -0.282111,-0.489698 -0.09786,-0.248103 -0.195531,-0.698326 -0.245513,-1.133093 -0.04297,-0.37354 -0.04415,-0.392355 -0.05123,-0.713924 -0.0067,-0.305583 -0.01308,-0.376107 -0.04125,-0.429151 -0.03335,-0.06279 -0.09977,-0.07724 -0.135733,-0.02995 -0.03708,0.04879 -0.08017,0.155703 -0.09781,0.242185 -0.08664,0.424787 -0.123539,0.584461 -0.160349,0.697956 -0.08517,0.262665 -0.170378,0.506316 -0.380582,1.084524 -0.07478,0.205701 -0.107934,0.300858 -0.275458,0.79643 -0.09972,0.294963 -0.111874,0.339964 -0.12641,0.46175 -0.02132,0.178687 -0.01159,0.290696 0.02861,0.316705 0.0279,0.01799 0.08028,0.01366 0.105784,-0.0086 0.02916,-0.02555 0.09198,-0.108411 0.169665,-0.222894 0.05175,-0.07618 0.06153,-0.08589 0.0672,-0.06854 0.01017,0.0309 6.81e-4,0.109557 -0.02596,0.206259 -0.01894,0.06899 -0.04748,0.130249 -0.135065,0.295417 -0.06082,0.114707 -0.118929,0.228307 -0.129743,0.252834 -0.01082,0.02453 -0.02426,0.0522 -0.02927,0.06121 -0.127607,0.229031 -0.286059,0.589573 -0.322032,0.731222 -0.01836,0.07251 -0.02467,0.171625 -0.01397,0.226883 0.01223,0.06328 0.06424,0.108887 0.111783,0.0978 0.03855,-0.009 0.212239,-0.181854 0.312715,-0.311383 0.03359,-0.04331 0.07537,-0.08918 0.09314,-0.101793 0.01778,-0.01262 0.03915,-0.02844 0.04791,-0.03527 0.0112,-0.0089 0.02258,-0.0081 0.03793,0.0027 l 0.0213,0.0153 -0.0213,0.03059 c -0.02399,0.03438 -0.04746,0.106595 -0.07518,0.232207 -0.0279,0.126539 -0.117474,0.386704 -0.159687,0.463748 -0.0073,0.01349 -0.04119,0.08753 -0.07518,0.165009 -0.034,0.07748 -0.10478,0.21839 -0.157024,0.312714 -0.14754,0.266407 -0.260428,0.472533 -0.292089,0.532947 -0.08602,0.164152 -0.140897,0.371049 -0.128418,0.484376 0.0055,0.05067 0.04166,0.11799 0.07518,0.140386 0.05547,0.03707 0.09707,0.01853 0.246846,-0.111783 l 0.06986,-0.06121 v 0.107793 c 0,0.105191 -3.41e-4,0.109582 -0.02861,0.182975 -0.04783,0.124775 -0.145145,0.300676 -0.234868,0.423825 -0.0466,0.06396 -0.09797,0.137783 -0.113779,0.164345 -0.01581,0.02654 -0.05758,0.08692 -0.09315,0.133736 -0.291635,0.383753 -0.347374,0.473813 -0.337333,0.544252 0.01391,0.09738 0.05739,0.132966 0.182973,0.149038 0.111269,0.01431 0.11544,0.01455 0.328682,0.004 l 0.174323,-0.0086 -0.0073,0.03527 c -0.0086,0.04231 -0.0466,0.118723 -0.137725,0.284103 -2.421216,-0.567652 -4.999273,-1.157406 -7.787942,-1.734569 -0.0045,-0.01043 -0.0084,-0.02647 -0.01262,-0.03196 -0.0155,-0.01952 -0.03117,-0.05988 -0.0233,-0.05988 0.0039,0 0.05096,0.0093 0.105127,0.02061 0.184536,0.03868 0.210811,0.04142 0.439134,0.04591 0.324295,0.0063 0.412404,-0.01356 0.455766,-0.103131 0.02374,-0.04907 0.02306,-0.06104 -0.0067,-0.123758 -0.01747,-0.03689 -0.03959,-0.06564 -0.07519,-0.09647 -0.117101,-0.101458 -0.250708,-0.214973 -0.274789,-0.233539 -0.01424,-0.01094 -0.0432,-0.0361 -0.06453,-0.05589 -0.05655,-0.05243 -0.132542,-0.115453 -0.212913,-0.176983 -0.03885,-0.02974 -0.07173,-0.05736 -0.07318,-0.06121 -0.0014,-0.0039 -0.05614,-0.06262 -0.121092,-0.131076 -0.142504,-0.150176 -0.184681,-0.200264 -0.196281,-0.233535 l -0.0086,-0.02527 0.208919,0.0061 c 0.255768,0.0075 0.261103,0.0073 0.394557,-0.0027 0.150626,-0.01133 0.202914,-0.03662 0.219564,-0.105127 0.0121,-0.04957 -0.0554,-0.112556 -0.405197,-0.382578 -0.04267,-0.03295 -0.09282,-0.0758 -0.111784,-0.09448 -0.01898,-0.01871 -0.08051,-0.07076 -0.136396,-0.115775 -0.107612,-0.08665 -0.224076,-0.209618 -0.281443,-0.29741 -0.03376,-0.05164 -0.0346,-0.05507 -0.0346,-0.129083 v -0.07585 l 0.08383,0.04258 c 0.179647,0.09169 0.229561,0.105256 0.296081,0.07917 0.0402,-0.01577 0.08379,-0.06349 0.09049,-0.09914 0.01495,-0.07974 -0.05119,-0.225153 -0.154363,-0.34066 -0.03797,-0.0425 -0.173678,-0.187806 -0.350641,-0.375258 -0.06266,-0.06637 -0.146856,-0.165046 -0.18763,-0.219565 -0.04078,-0.05451 -0.08163,-0.106956 -0.09049,-0.116432 -0.05063,-0.05421 -0.158131,-0.236987 -0.191621,-0.326022 -0.03325,-0.08839 -0.06108,-0.139483 -0.08982,-0.163677 l -0.02596,-0.0213 0.02596,-0.01069 c 0.0184,-0.0076 0.03111,-0.0081 0.04457,-0.0021 0.01043,0.0048 0.03655,0.01577 0.05789,0.02463 0.02132,0.0089 0.07214,0.04138 0.11244,0.07186 0.120514,0.09114 0.328367,0.212565 0.37459,0.218901 0.05705,0.0079 0.119715,-0.02399 0.134405,-0.06853 0.01288,-0.03888 0.0055,-0.108668 -0.01662,-0.159685 -0.04315,-0.09967 -0.23419,-0.353826 -0.387235,-0.514983 -0.0059,-0.0063 -0.02163,-0.02531 -0.0346,-0.04258 -0.01298,-0.01724 -0.08274,-0.09759 -0.155693,-0.178316 -0.105049,-0.116213 -0.138968,-0.159048 -0.161679,-0.207592 -0.03185,-0.06805 -0.04411,-0.123294 -0.03192,-0.145042 0.0068,-0.01223 0.01911,-0.005 0.08118,0.04857 0.09317,0.08056 0.168623,0.138393 0.203596,0.156356 0.03059,0.01571 0.09297,0.01863 0.126423,0.0061 0.04813,-0.0183 0.06018,-0.09717 0.0346,-0.222894 -0.01745,-0.0857 -0.03208,-0.11714 -0.151699,-0.32469 -0.200925,-0.348693 -0.240322,-0.41615 -0.330015,-0.56089 -0.252122,-0.40684 -0.354276,-0.577677 -0.456433,-0.762495 -0.04415,-0.07985 -0.08838,-0.192801 -0.192285,-0.491695 -0.02115,-0.06085 -0.07329,-0.136002 -0.117771,-0.17033 -0.04313,-0.03328 -0.122354,-0.02289 -0.162349,0.02129 -0.03376,0.03733 -0.04187,0.08705 -0.04991,0.30207 -0.0084,0.226263 -0.0103,0.239508 -0.06188,0.502338 -0.05995,0.305911 -0.176693,0.622517 -0.294085,0.797095 -0.09417,0.140039 -0.226703,0.275333 -0.338,0.344646 -0.154945,0.0965 -0.289182,0.188977 -0.305393,0.209591 -0.02238,0.02844 -0.02238,0.07295 6.81e-4,0.120436 0.01679,0.03471 0.01745,0.03905 0.0046,0.05323 -0.01788,0.01976 -0.01822,0.09533 -6.81e-4,0.145714 0.02784,0.07993 0.07564,0.117526 0.182304,0.144382 l 0.06121,0.01598 -0.01133,0.02194 c -0.0063,0.0121 -0.02014,0.03001 -0.03127,0.03991 -0.03042,0.02708 -0.228979,0.148592 -0.365276,0.223557 -0.06637,0.0365 -0.150862,0.08578 -0.18763,0.109788 -0.05709,0.03727 -0.07029,0.05072 -0.09049,0.09181 -0.01946,0.03957 -0.02331,0.05963 -0.02331,0.11311 0,0.0842 0.0112,0.100891 0.09647,0.14305 0.08368,0.04134 0.155463,0.04774 0.24618,0.02198 0.03209,-0.0091 0.05993,-0.0138 0.06188,-0.01069 0.0055,0.0089 -0.02368,0.06811 -0.06321,0.129076 -0.03996,0.06165 -0.04363,0.08672 -0.01863,0.127749 l 0.0173,0.02794 -0.03127,0.04991 c -0.03209,0.05059 -0.07164,0.09933 -0.163013,0.204266 -0.107767,0.123744 -0.158424,0.173004 -0.275454,0.266141 -0.261266,0.207908 -0.473838,0.397035 -0.534942,0.475721 -0.05495,0.07075 -0.06407,0.110625 -0.04192,0.1863 0.0063,0.02146 0.07801,0.06478 0.159682,0.0958 0.06765,0.02573 0.07994,0.02695 0.186967,0.02728 0.06282,2.14e-4 0.113779,0.0027 0.113779,0.0053 1.1e-5,0.0081 -0.08163,0.14184 -0.110444,0.180976 -0.0831,0.112865 -0.264218,0.275379 -0.36262,0.326021 -0.06949,0.03575 -0.276567,0.121762 -0.29342,0.121762 -0.01918,0 -0.102397,0.03634 -0.119097,0.0519 -0.01474,0.01373 -0.01811,0.02612 -0.0173,0.06654 0.0012,0.05772 0.01094,0.07652 0.07851,0.153031 0.05489,0.06214 0.122779,0.102719 0.298743,0.17898 0.116265,0.05039 0.192467,0.07717 0.340663,0.119097 0.05214,0.01476 0.101715,0.02919 0.110444,0.0326 0.01339,0.0052 0.0055,0.01639 -0.0519,0.0712 -0.06357,0.06073 -0.08142,0.07136 -0.278783,0.17033 -0.05836,0.02927 -0.05771,0.03223 -0.103132,0.05522 -0.56516,-0.105603 -1.123444,-0.212537 -1.701971,-0.315379 -1.319149,-0.234483 -2.559134,-0.619453 -3.766555,-1.105813 -0.007,-0.04458 -0.008,-0.06771 -0.01796,-0.125084 -0.0084,-0.04858 -0.01738,-0.100621 -0.01996,-0.115775 l -0.0046,-0.02728 0.03527,0.0233 c 0.02641,0.01761 0.06878,0.02695 0.17033,0.03726 0.0742,0.0075 0.143546,0.01649 0.154361,0.01996 0.01082,0.0035 0.03097,-0.0031 0.04524,-0.01397 0.02414,-0.01873 0.03077,-0.01877 0.09515,-0.0014 0.0802,0.02153 0.44382,0.02592 0.618777,0.0073 0.163888,-0.01747 0.396746,-0.124118 0.476391,-0.218234 0.06068,-0.07177 0.0754,-0.114333 0.06986,-0.194949 -0.01159,-0.166446 -0.01685,-0.171474 -0.528289,-0.506998 -0.20611,-0.135211 -0.224375,-0.149901 -0.290759,-0.232871 -0.05988,-0.07483 -0.06857,-0.09006 -0.05455,-0.09714 0.0091,-0.0046 0.06131,-0.02511 0.115775,-0.04524 0.154766,-0.05726 0.23387,-0.09351 0.355298,-0.162348 0.183749,-0.104174 0.254731,-0.159296 0.31205,-0.244182 0.07053,-0.104522 0.08061,-0.130074 0.08184,-0.208916 8.52e-4,-0.05521 -0.0026,-0.07239 -0.01796,-0.09116 -0.01746,-0.02126 -0.103724,-0.07053 -0.123758,-0.07053 -0.0176,0 -0.234828,-0.117487 -0.307392,-0.166337 -0.102771,-0.06917 -0.291791,-0.291611 -0.378585,-0.445787 -0.03009,-0.05346 -0.115119,-0.236439 -0.115106,-0.24751 0,-0.0033 0.0535,-0.0063 0.119097,-0.0067 0.111771,-3.42e-4 0.124312,-0.0027 0.194948,-0.03793 0.0853,-0.04239 0.15977,-0.100441 0.166338,-0.129745 0.02312,-0.103363 0.01414,-0.158839 -0.04325,-0.255494 -0.06381,-0.107496 -0.286048,-0.365369 -0.558895,-0.649383 -0.122226,-0.127221 -0.175554,-0.194235 -0.288098,-0.363283 -0.09542,-0.14334 -0.13615,-0.210344 -0.169664,-0.279448 l -0.0326,-0.06787 0.01796,-0.03859 c 0.02612,-0.05605 0.02243,-0.0901 -0.0193,-0.174323 -0.04127,-0.08329 -0.07166,-0.164212 -0.06587,-0.176315 0.0021,-0.0044 0.03102,0.0021 0.06454,0.01465 0.09475,0.03523 0.170094,0.02654 0.25749,-0.02995 0.08911,-0.05759 0.100466,-0.08059 0.100466,-0.195613 0,-0.07305 -0.0042,-0.100312 -0.02462,-0.15436 -0.02109,-0.05612 -0.03485,-0.07483 -0.09448,-0.125754 -0.03839,-0.03281 -0.126307,-0.100504 -0.195613,-0.150367 -0.142345,-0.10241 -0.349481,-0.267738 -0.381247,-0.304731 -0.01159,-0.01352 -0.0267,-0.03802 -0.03327,-0.05455 l -0.01197,-0.02995 0.06454,-0.0213 c 0.111385,-0.03668 0.161219,-0.08842 0.190291,-0.197606 0.01835,-0.06882 0.01801,-0.172619 -6.81e-4,-0.199606 -0.01339,-0.01935 -0.01288,-0.02511 0.0046,-0.07253 0.02405,-0.06487 0.02405,-0.126139 6.47e-4,-0.165009 -0.01693,-0.02817 -0.157544,-0.153605 -0.319368,-0.285437 -0.116225,-0.09468 -0.254293,-0.279099 -0.352636,-0.470403 -0.122586,-0.238473 -0.244779,-0.671292 -0.307393,-1.08918 -0.05376,-0.359045 -0.05578,-0.376886 -0.06454,-0.685977 -0.0084,-0.293714 -0.01664,-0.362198 -0.0519,-0.413183 -0.04175,-0.06036 -0.12462,-0.07407 -0.169665,-0.02861 -0.04644,0.04689 -0.100994,0.149752 -0.123088,0.232873 -0.108526,0.408298 -0.154165,0.561582 -0.200271,0.670673 -0.106685,0.252468 -0.213753,0.48684 -0.477056,1.042606 -0.09367,0.197713 -0.134817,0.28883 -0.344653,0.765155 -0.12489,0.283522 -0.140809,0.326725 -0.159018,0.443789 -0.02672,0.171751 -0.01367,0.27974 0.03659,0.304731 0.03493,0.01734 0.100466,0.01288 0.132405,-0.0086 0.03653,-0.02453 0.114951,-0.103531 0.212247,-0.213576 0.06482,-0.07325 0.07742,-0.08323 0.0845,-0.06654 0.01275,0.0297 -9e-6,0.105333 -0.03327,0.198277 -0.02373,0.0663 -0.05862,0.125342 -0.168333,0.284104 -0.07618,0.110251 -0.14948,0.219944 -0.163011,0.243517 -0.01355,0.02358 -0.02976,0.04993 -0.03594,0.05856 -0.159831,0.220142 -0.359471,0.566461 -0.404533,0.702613 -0.02311,0.06969 -0.03004,0.165123 -0.01663,0.218233 0.01535,0.06082 0.08015,0.104496 0.139723,0.09381 0.04827,-0.0086 0.265374,-0.174897 0.391228,-0.299401 0.04208,-0.04164 0.09481,-0.0857 0.117101,-0.09781 0.02227,-0.0121 0.04961,-0.02736 0.06055,-0.03393 0.01407,-0.0086 0.02735,-0.0077 0.04657,0.0027 l 0.02728,0.01465 -0.02728,0.02995 c -0.03003,0.03305 -0.05908,0.102166 -0.09381,0.222894 -0.03498,0.12162 -0.146739,0.371725 -0.199605,0.445784 -0.0093,0.01294 -0.0519,0.08388 -0.09448,0.158356 -0.04258,0.07447 -0.130833,0.210068 -0.19628,0.300739 -0.184808,0.256067 -0.326286,0.454252 -0.365942,0.512317 -0.107741,0.157785 -0.176636,0.356822 -0.161016,0.465747 0.007,0.04871 0.05251,0.113535 0.09448,0.135069 0.06948,0.03563 0.121118,0.01747 0.308723,-0.107792 l 0.08782,-0.05855 v 0.103789 c 0,0.101097 -6.81e-4,0.105114 -0.03592,0.175654 -0.05991,0.119934 -0.182361,0.288818 -0.294752,0.407194 -0.05838,0.06148 -0.121916,0.132827 -0.14172,0.158352 -0.0198,0.02552 -0.07254,0.08275 -0.117101,0.12775 -0.253083,0.255545 -0.359498,0.372224 -0.399877,0.444455 -1.638829,-0.916325 -3.303175,-1.940317 -5.111894,-2.970793 0.0217,-0.01693 0.03994,-0.03789 0.04392,-0.06255 0.0049,-0.0308 -0.02146,-0.127916 -0.04192,-0.153695 -0.01479,-0.01867 -0.03015,-0.05722 -0.02262,-0.05722 0.0036,0 0.04871,0.0085 0.100467,0.01931 0.176356,0.03697 0.201633,0.03962 0.419836,0.04392 0.309912,0.0061 0.394365,-0.01288 0.435806,-0.09847 0.0227,-0.04689 0.02101,-0.05782 -0.0073,-0.117771 -0.01669,-0.03525 -0.03784,-0.06301 -0.07186,-0.09248 -0.111912,-0.09696 -0.239799,-0.205148 -0.262813,-0.222894 -0.0136,-0.01043 -0.0415,-0.03433 -0.06188,-0.05323 -0.05404,-0.05011 -0.126127,-0.110869 -0.202932,-0.169662 -0.03712,-0.02842 -0.06846,-0.05487 -0.06986,-0.05856 -0.0014,-0.0036 -0.0537,-0.05968 -0.115775,-0.125084 -0.136139,-0.14352 -0.176491,-0.191757 -0.187577,-0.223558 l -0.008,-0.02395 0.199605,0.0061 c 0.244428,0.0071 0.249053,0.007 0.37659,-0.0027 0.143949,-0.01082 0.194334,-0.035 0.21025,-0.100466 0.01146,-0.04736 -0.05296,-0.107895 -0.387234,-0.365943 -0.04078,-0.03148 -0.08901,-0.07197 -0.107123,-0.08983 -0.01812,-0.01784 -0.07631,-0.06743 -0.129744,-0.110445 -0.102848,-0.08281 -0.214643,-0.20087 -0.269466,-0.284772 -0.03225,-0.04935 -0.03327,-0.05235 -0.03327,-0.123089 v -0.07253 l 0.08051,0.04058 c 0.171681,0.08762 0.219198,0.100775 0.282774,0.07585 0.03842,-0.01506 0.07944,-0.0604 0.08583,-0.09448 0.01429,-0.07621 -0.04844,-0.215641 -0.147043,-0.326023 -0.03628,-0.04062 -0.165554,-0.179483 -0.334671,-0.358622 -0.05988,-0.06344 -0.140684,-0.158165 -0.179651,-0.210269 -0.03897,-0.05211 -0.07803,-0.102063 -0.0865,-0.111114 -0.04838,-0.05181 -0.150966,-0.226295 -0.182971,-0.311385 -0.03178,-0.08445 -0.05834,-0.133238 -0.08583,-0.156358 l -0.02462,-0.02063 0.02462,-0.01004 c 0.01759,-0.0072 0.0297,-0.008 0.04258,-0.0019 0.0099,0.0046 0.03483,0.0155 0.05522,0.02395 0.02039,0.0085 0.0686,0.03873 0.107123,0.06787 0.11517,0.0871 0.314448,0.203532 0.358624,0.209586 0.05451,0.0075 0.113702,-0.02265 0.127749,-0.0652 0.01223,-0.03716 0.0058,-0.104265 -0.01531,-0.15303 -0.04123,-0.09525 -0.223676,-0.337689 -0.369935,-0.491695 -0.0057,-0.0061 -0.02088,-0.0241 -0.03327,-0.04058 -0.01236,-0.01649 -0.07931,-0.09321 -0.149038,-0.170331 -0.100389,-0.111062 -0.132652,-0.15255 -0.154364,-0.198939 -0.03042,-0.06503 -0.04223,-0.11759 -0.03061,-0.138393 0.0064,-0.01172 0.01854,-0.0053 0.07784,0.04591 0.08903,0.07698 0.160859,0.132538 0.194282,0.149705 0.02923,0.01501 0.08912,0.01806 0.121093,0.0059 0.046,-0.01748 0.05772,-0.09275 0.03327,-0.212912 -0.01666,-0.0819 -0.03075,-0.112375 -0.145047,-0.310719 -0.192017,-0.33323 -0.229658,-0.397293 -0.315376,-0.535607 -0.240946,-0.388806 -0.338845,-0.551938 -0.436471,-0.72856 -0.04219,-0.07631 -0.08432,-0.184102 -0.183636,-0.469739 -0.02021,-0.05816 -0.06994,-0.130208 -0.11244,-0.16301 -0.04121,-0.0318 -0.116818,-0.02161 -0.155027,0.02063 -0.03228,0.03566 -0.04022,0.08262 -0.04791,0.288097 -0.0081,0.216232 -0.01004,0.229202 -0.05921,0.480384 -0.05729,0.292345 -0.168593,0.594996 -0.280779,0.761828 -0.09,0.133828 -0.216997,0.263108 -0.323361,0.329349 -0.148077,0.09223 -0.276596,0.179912 -0.292089,0.199605 -0.0214,0.02719 -0.02133,0.0704 6.81e-4,0.115775 0.01606,0.03318 0.01694,0.03702 0.0046,0.05056 -0.01708,0.01889 -0.01745,0.09093 -6.81e-4,0.139059 0.0266,0.07639 0.07173,0.112737 0.173658,0.138393 l 0.05921,0.01531 -0.01069,0.02063 c -0.0059,0.01159 -0.01998,0.02848 -0.03061,0.03793 -0.02908,0.02588 -0.218389,0.141947 -0.348643,0.213577 -0.06342,0.03488 -0.143842,0.08217 -0.17898,0.105128 -0.05457,0.03563 -0.0672,0.04856 -0.0865,0.08782 -0.01858,0.0378 -0.02262,0.05735 -0.02262,0.108449 0,0.08047 0.0103,0.09609 0.09181,0.136398 0.07997,0.03951 0.148838,0.04594 0.235535,0.02129 0.03067,-0.0088 0.05735,-0.0137 0.05921,-0.01069 0.0053,0.0085 -0.02212,0.06548 -0.05988,0.123758 -0.03819,0.05892 -0.04187,0.08323 -0.01796,0.122431 l 0.01596,0.02661 -0.02993,0.04724 c -0.03067,0.04835 -0.0677,0.09534 -0.155027,0.195613 -0.10299,0.11826 -0.151637,0.165162 -0.26348,0.254165 -0.249679,0.19869 -0.452595,0.379237 -0.510989,0.454434 -0.05251,0.06762 -0.06108,0.10599 -0.03993,0.178315 0.0059,0.0205 0.07432,0.06149 0.152366,0.09116 0.06465,0.02457 0.07604,0.02628 0.178314,0.02661 0.06004,2.05e-4 0.109118,0.0023 0.109118,0.0046 1.1e-5,0.0077 -0.07823,0.135593 -0.105783,0.172992 -0.05947,0.08078 -0.164879,0.175559 -0.256826,0.244849 -1.328356,-0.637965 -2.742355,-1.248152 -4.288855,-1.795117 0.02566,-0.01539 0.05508,-0.03075 0.07186,-0.04591 0.08266,-0.07468 0.103415,-0.117732 0.09581,-0.201601 -0.01567,-0.173098 -0.02321,-0.178485 -0.719213,-0.527556 -0.280487,-0.140672 -0.305539,-0.156536 -0.395883,-0.242854 -0.08157,-0.07787 -0.09357,-0.0938 -0.07452,-0.101135 0.01236,-0.0048 0.08357,-0.02561 0.157688,-0.04657 0.210616,-0.05957 0.318468,-0.09739 0.483711,-0.168999 0.250065,-0.108384 0.346482,-0.165851 0.424493,-0.254164 0.09606,-0.108745 0.109441,-0.135542 0.111115,-0.21757 0.0012,-0.05744 -0.003,-0.07562 -0.02395,-0.09515 -0.02374,-0.02212 -0.141741,-0.07318 -0.169001,-0.07318 -0.02394,0 -0.319085,-0.122174 -0.417839,-0.172992 -0.139853,-0.07197 -0.396875,-0.303348 -0.514981,-0.46375 -0.04094,-0.05562 -0.157037,-0.246032 -0.157026,-0.257491 6e-6,-0.0035 0.07307,-0.0063 0.162348,-0.0067 0.152102,-4.77e-4 0.168671,-0.0027 0.26481,-0.03926 0.116071,-0.0441 0.218001,-0.105243 0.226885,-0.135731 0.03147,-0.107548 0.01888,-0.164919 -0.05921,-0.265475 C 21.603405,31.092258 21.301061,30.824246 20.92975,30.528761 20.763436,30.396278 20.691695,30.326595 20.538537,30.15072 20.40867,30.001592 20.353263,29.931191 20.30766,29.859295 l -0.04524,-0.06986 0.02462,-0.03993 c 0.03555,-0.05831 0.03018,-0.09469 -0.02661,-0.182307 -0.05616,-0.08665 -0.09702,-0.170353 -0.08916,-0.182971 0.0027,-0.0045 0.04221,0.0023 0.08782,0.01531 0.128933,0.03663 0.231048,0.02749 0.349975,-0.03128 0.121272,-0.05993 0.137061,-0.08392 0.137061,-0.203597 0,-0.07599 -0.0057,-0.104123 -0.03327,-0.16035 -0.0287,-0.05839 -0.04794,-0.07743 -0.129078,-0.130409 -0.05226,-0.03413 -0.171815,-0.104483 -0.266141,-0.156358 -0.19371,-0.106543 -0.475727,-0.279553 -0.518974,-0.318037 -0.01581,-0.01406 -0.03636,-0.03939 -0.04524,-0.05656 l -0.01597,-0.03127 0.08782,-0.02195 c 0.151588,-0.03816 0.219253,-0.092 0.258823,-0.205594 0.02496,-0.0716 0.02475,-0.179509 -6.81e-4,-0.20759 -0.01818,-0.02015 -0.01796,-0.02584 0.0061,-0.07518 0.03273,-0.06749 0.03318,-0.131217 0.0013,-0.171661 -0.02305,-0.02929 -0.214259,-0.16026 -0.434475,-0.297412 -0.158178,-0.09852 -0.346552,-0.290675 -0.480384,-0.489699 -0.166834,-0.248103 -0.332631,-0.698329 -0.41784,-1.133093 -0.07322,-0.37354 -0.07585,-0.391688 -0.08782,-0.713257 -0.01146,-0.305582 -0.02319,-0.376786 -0.07119,-0.429816 -0.05683,-0.06279 -0.169578,-0.07725 -0.230878,-0.02995 -0.0632,0.04879 -0.136938,0.155706 -0.167002,0.242188 -0.147689,0.424788 -0.210053,0.584457 -0.272795,0.697954 -0.145182,0.262662 -0.291061,0.506314 -0.649383,1.084524 -0.127478,0.205695 -0.183512,0.300861 -0.469072,0.796426 -0.16997,0.29497 -0.190801,0.339969 -0.215574,0.461753 -0.03636,0.178686 -0.01917,0.290698 0.04924,0.316707 0.04753,0.01799 0.136843,0.01365 0.18031,-0.0086 0.0497,-0.02553 0.157022,-0.107741 0.289428,-0.222227 0.0882,-0.07618 0.10478,-0.08656 0.114436,-0.06919 0.01729,0.03091 1.3e-5,0.109556 -0.04524,0.206259 -0.03229,0.06899 -0.07958,0.130247 -0.228879,0.295416 -0.103685,0.114706 -0.203804,0.228971 -0.222229,0.253498 -0.01842,0.02452 -0.04074,0.05155 -0.04923,0.06055 -0.217509,0.229033 -0.488254,0.589571 -0.549581,0.731221 -0.03138,0.07251 -0.04154,0.172288 -0.02329,0.22755 0.02088,0.06328 0.109208,0.108217 0.190288,0.09714 0.06569,-0.009 0.361669,-0.181855 0.532946,-0.311383 0.05727,-0.04331 0.128702,-0.08919 0.159021,-0.101793 0.03032,-0.01262 0.067,-0.02844 0.08183,-0.03526 0.01915,-0.0089 0.03771,-0.0081 0.06387,0.0027 l 0.03659,0.01531 -0.03659,0.03061 c -0.04087,0.03438 -0.0805,0.106595 -0.127749,0.232208 -0.0476,0.126539 -0.200183,0.386707 -0.272129,0.46375 -0.01262,0.01348 -0.07047,0.08753 -0.128406,0.165007 -0.05795,0.07748 -0.177748,0.21839 -0.266807,0.312716 -0.251503,0.266405 -0.444388,0.472534 -0.498348,0.532946 -0.146634,0.164154 -0.240156,0.371048 -0.2189,0.484375 0.0095,0.05068 0.07129,0.11799 0.128418,0.140389 0.09454,0.03707 0.165188,0.01852 0.420502,-0.111784 L 16.293,31.466224 v 0.107792 c 0,0.105192 -6.14e-4,0.109582 -0.04857,0.182972 -0.08153,0.124775 -0.247598,0.300676 -0.400541,0.423829 -0.07944,0.06396 -0.16667,0.137779 -0.193618,0.164341 -0.02695,0.02655 -0.09904,0.08692 -0.159684,0.133736 -0.149759,0.115582 -0.204684,0.165036 -0.289439,0.234857 -1.354306,-0.22835 -2.785882,-0.409877 -4.314791,-0.528934 v 27.809691 h 40.612385 1.45978 111.395158 z M 98.056692,7.7652606 C 97.22866,9.7374878 97.063051,11.483892 97.078105,13.471175 96.210578,11.036605 96.094514,9.2648767 98.056692,7.7652606 Z" />
    <path
       inkscape:connector-curvature="0"
       id="path7825-5"
       style="fill:none;stroke:#0000c3;stroke-width:0.03406599;stroke-linecap:butt;stroke-linejoin:miter;stroke-miterlimit:4;stroke-dasharray:none;stroke-opacity:1"
       d="m 127.64963,32.971959 0.63009,0.805743 c 0.94778,1.21188 1.33897,1.994618 1.72259,3.448515 0.28875,1.094424 0.34703,1.520311 0.35863,2.634794 0.009,0.790787 -0.0314,1.375857 -0.0985,1.443147 -0.0621,0.06223 -0.76131,0.146205 -1.55361,0.186297 -1.19953,0.06071 -1.43973,0.04693 -1.43715,-0.08051 0.003,-0.08418 0.0556,-0.496495 0.11845,-0.916187 0.0628,-0.419694 0.14693,-2.283836 0.18696,-4.14248 z m -18.37501,-1.645415 c 0.35008,-7.83e-4 0.74825,0.242615 0.8776,0.683316 0.21927,0.747194 0.25442,1.671874 0.10645,2.789821 -0.13884,1.048739 -0.13448,1.12506 0.0932,1.759854 0.34754,0.969157 0.29965,1.873906 -0.21624,4.105218 l -0.25017,1.082529 h -1.01067 c -0.52366,-6.81e-4 -0.46093,-0.196247 -1.27282,-0.07784 -0.31104,0.07806 -0.32862,-0.06142 0.12975,-1.230236 l 0.54093,-3.71133 0.0672,-0.406529 c 0.0368,-0.223337 0.0679,-0.724749 0.0685,-1.114464 0.001,-0.761872 0.18061,-2.911228 0.28477,-3.413916 0.0659,-0.318078 0.30924,-0.465801 0.58151,-0.466415 z m 11.62503,-1.023308 c 0.13642,-9.54e-4 0.48348,0.265538 0.87227,0.670675 1.2435,1.295754 1.6335,1.642437 2.52634,2.243565 0.49498,0.333248 0.95504,0.671835 1.02198,0.752511 0.067,0.08068 0.13704,0.147043 0.15636,0.147043 l 0.16101,0.0958 0.173,1.232896 c 0.11781,0.838433 0.15664,1.686201 0.1218,2.650095 -0.0469,1.294594 -0.0798,1.478502 -0.38324,2.125797 -0.1827,0.389718 -0.34893,0.830839 -0.36927,0.98073 -0.0362,0.266426 -0.0581,0.27281 -0.9641,0.272129 -2.20557,-0.01468 -3.66867,0.03202 -5.87705,0.105784 l -0.74519,-0.212913 c -1.69903,0.142828 -5.71799,0.393912 -5.75263,0.359291 -0.0218,-0.02163 0.002,-1.239976 0.0526,-2.707314 0.0816,-2.354059 0.12556,-2.789558 0.37459,-3.703348 0.16916,-0.620686 0.34919,-1.73447 0.44912,-2.779836 0.0917,-0.959299 0.18991,-1.809187 0.21823,-1.888267 0.13171,-0.0475 0.32566,-0.05888 0.48837,-0.109788 l 1.66471,0.08782 c 0.79305,-0.0013 2.37387,-0.07389 3.51306,-0.161678 1.13917,-0.08778 2.17349,-0.159994 2.29813,-0.161016 z m 43.4541,29.691304 V 1.9857864 c -1.51148,0.021296 -3.03831,0.8847518 -3.29217,1.1744392 -0.03,0.03421 -0.35787,0.2931353 -0.72856,0.5755287 -0.37068,0.2823858 -0.77003,0.6356193 -0.88758,0.7851148 -0.11755,0.149493 -0.25644,0.272128 -0.30871,0.272128 -0.0523,0 -0.65781,0.5640259 -1.34535,1.2535233 -0.68754,0.6894949 -1.21024,1.2535208 -1.1617,1.2535208 0.0485,0 -0.061,0.1258822 -0.24353,0.2794489 -0.50369,0.4238341 -1.30098,1.7839202 -1.58486,2.7039879 -0.32813,1.063495 -0.64119,1.56607 -1.64009,2.630799 -1.36062,1.450275 -1.56585,1.990535 -1.85367,4.883678 -0.22713,2.283359 -0.35996,2.708594 -1.11845,3.58691 -0.22568,0.261352 -0.6065,0.811929 -0.84634,1.223582 -0.28931,0.496608 -0.58294,0.841213 -0.87226,1.024641 -1.28839,0.816841 -1.55164,1.000715 -1.81841,1.267493 -0.16047,0.160464 -0.41096,0.521588 -0.5569,0.802414 -0.3053,0.587485 -1.16703,2.998724 -1.16703,3.265546 l -0.21824,0.334007 c 0,0.07504 -0.24515,0.749631 -0.54492,1.499701 -1.08118,2.721402 -4.25716,8.823424 -10.95568,10.17988 -0.5396,0.105076 -1.01164,0.160679 -1.04859,0.123758 -0.0369,-0.03693 -0.12734,-0.606647 -0.20093,-1.266165 -0.15299,-1.370001 -0.63084,-3.780593 -1.11314,-5.614234 -0.36945,-1.404596 -0.37672,-1.420106 -1.03395,-2.383288 -0.26045,-0.381696 -0.47307,-0.758916 -0.47307,-0.838344 l -0.18963,-0.523632 -0.17697,-0.825702 c -0.22062,-1.029371 -0.53012,-3.80031 -0.48505,-4.343413 l 0.034,-0.405863 0.22954,0.435803 c 0.12618,0.239825 0.48612,1.156459 0.80042,2.036643 0.33312,0.932914 0.64217,1.627635 0.74054,1.665373 0.44015,0.1689 1.00933,-0.907999 1.00933,-1.909558 0,-0.462862 -0.10493,-0.925097 -0.37459,-1.653397 -0.20583,-0.556002 -0.42955,-1.223194 -0.49701,-1.482405 -0.0675,-0.259216 -0.22346,-0.651175 -0.34732,-0.871609 -0.12386,-0.220439 -0.47086,-0.866912 -0.77114,-1.436495 -0.73373,-1.391825 -1.05657,-1.841945 -1.78115,-2.487748 -0.63184,-0.563151 -1.81526,-1.264322 -2.01934,-1.196302 l -0.58617,-0.287435 c -1.39005,-0.580803 -4.57852,-1.04327 -7.1951,-1.04327 h -3.26289 c -0.56184,0.431368 -3.93514,-0.776777 -6.0354,-0.477057 -2.46968,0.509392 -4.58492,0.265636 -6.48518,-0.74719 -0.34865,-0.18583 -0.74113,-0.488479 -0.87227,-0.67267 -0.21668,-0.303753 -0.23588,-0.449402 -0.21026,-1.562911 0.0191,-0.828556 -0.0118,-1.241878 -0.0905,-1.227573 -0.48052,0.08732 -0.783456,0.614486 -1.130436,1.151723 -0.08632,0.235867 -0.168248,0.35541 -0.18164,0.265475 -0.01325,-0.08993 -0.036,-0.212833 -0.0499,-0.272793 -0.01391,-0.05996 -0.03084,-0.194487 -0.03726,-0.299408 0.04084,-1.284291 0.357751,-2.619007 0.634086,-3.3793202 0.0705,-0.1939232 0.24571,-0.5390954 0.39522,-0.7651542 0.31875,-0.4819663 0.37782,-0.4672819 1.17833,0.3027352 0.41809,0.4005582 0.62695,0.6503963 1.19964,1.5150052 0.95454,1.442504 1.18785,2.895198 0.61478,3.822443 -0.26672,0.43154 -0.25059,0.445997 0.25948,0.232873 0.84705,-0.353915 1.26551,-1.017541 1.26551,-2.007366 -0.21913,-2.9819338 -1.12447,-4.1176774 -1.42186,-4.5137433 -0.42741,-0.5692354 -0.48993,-0.5925449 -1.11713,-1.1696869 0.52913,-0.4188862 0.59226,-0.3432217 1.46311,-0.7811235 0.91328,-0.3152745 2.30321,-0.7815998 3.71931,-0.61545 2.01041,0.23588 3.48828,0.6621077 4.61488,1.8144142 0.6423,0.6569562 0.86355,1.2600563 0.86097,2.355343 -0.003,1.0924515 -0.21629,1.6730275 -0.78578,2.1311205 l -0.30274,0.243519 0.4245,-0.0652 c 0.603,-0.09299 1.20382,-0.53098 1.55891,-1.135091 0.27079,-0.460774 0.30607,-0.627168 0.30607,-1.4551212 0,-0.8802481 -0.0274,-0.9890884 -0.46309,-1.8683065 -0.37763,-0.7621065 -0.62016,-1.0811149 -1.32005,-1.7359016 -0.47163,-0.4412326 -1.13786,-0.9701514 -1.48041,-1.1750109 -0.67045,-0.4009534 -2.26866,-1.0350778 -2.90559,-1.1530545 -1.59584,-0.294056 -2.84022,-0.3693046 -4.43856,0.1244143 -1.23821,0.3544258 -3.13876,1.3083517 -3.70801,1.8609869 -0.176056,0.1709162 -0.392215,0.2173189 -1.423849,0.3053978 -0.442668,0.037789 -1.116953,0.1649652 -1.498372,0.2827733 -2.202455,0.6802696 -3.513733,4.1115874 -2.804455,7.3394914 0.232643,1.011459 0.877712,1.685015 1.147062,2.711308 0.09748,0.371411 0.246597,0.717932 0.282776,1.492384 0.04523,0.967018 0.02194,1.112867 -0.344654,2.201648 -0.215917,0.641302 -0.392556,1.365777 -0.392556,1.61015 0,0.413478 0.03577,0.466066 0.517644,0.75717 1.020937,0.616775 1.045359,0.661007 0.960767,1.743218 -0.0662,0.846318 -0.051,0.979874 0.137728,1.212937 0.190425,0.235164 0.232327,0.245412 0.40653,0.101792 0.663067,-0.546628 1.242877,-2.034747 1.413207,-3.626831 0.06551,-0.612343 0.124814,-0.772072 0.338664,-0.912196 0.235539,-0.154298 0.283667,-0.153375 0.530949,0.0086 0.149652,0.09804 0.426561,0.483467 0.614786,0.856974 0.543563,1.078614 0.990603,1.720162 1.703303,2.443169 l 0.66402,0.673335 0.34332,0.233539 c 0.0598,0 0.30126,0.174309 0.53694,0.387235 0.29735,0.268641 0.53345,0.643888 0.77114,1.226243 0.54413,1.333144 0.66162,1.572704 1.02731,2.093195 0.82047,1.167799 1.19572,2.173873 1.36862,3.670742 0.16495,1.428089 0.39801,2.651466 0.40187,2.821755 l 0.0366,1.421194 v 0.505666 c 0.0862,0.936685 -0.0895,3.348506 -0.72524,3.974146 -0.24607,0.242181 -0.36115,0.460898 -0.34532,1.078532 -0.65348,0.3101 -1.7455,0.331405 -2.61682,0.05123 -0.70905,-0.22798 -0.77153,-0.231387 -1.1677,-0.06587 -0.23018,0.09618 -0.66658,0.338649 -0.97008,0.538941 -0.6686,0.441226 -0.71304,0.455421 -2.06459,0.6567 -3.531583,2.044317 -1.118985,2.301638 -3.531682,2.044624 -1.011641,0.9274 -1.645671,1.579139 -3.146448,1.834372 -0.79993,6.81e-4 -1.233751,0.119238 -2.601521,0.71126 -1.697807,0.734872 -2.457603,0.113947 -3.775714,0.224362 -0.237187,0.01987 -3.031303,1.769667 -3.184815,1.587768 -5.783166,2.138562 -3.650973,0.951239 -4.782996,1.163085 -1.132027,0.211849 -5.613721,1.591778 -7.028045,2.818921 -0.76867,0.478535 -3.860575,1.551501 -5.118094,1.520766 -1.276702,-0.03121 -0.641567,0.310876 -1.592635,0.848588 -1.416208,1.103053 -5.688181,1.439655 -7.489288,1.942708 -1.762408,0.49224 -5.025586,2.087717 -5.025586,2.087717 z M 98.056368,7.7652632 c -0.828033,1.9722258 -0.99364,3.7186298 -0.978586,5.7059138 -0.867529,-2.43457 -0.983591,-4.206299 0.978586,-5.7059138 z" />
    <rect
       style="opacity:1;fill:none;fill-opacity:1;fill-rule:evenodd;stroke:#ff8a00;stroke-width:0.12614116;stroke-linecap:square;stroke-linejoin:miter;stroke-miterlimit:4;stroke-dasharray:none;stroke-dashoffset:0;stroke-opacity:1"
       id="rect10112"
       width="153.56975"
       height="72.167305"
       x="10.785391"
       y="-12.171453"
       ry="0.39949065" />
  </g>
</svg>
