<?xml version="1.0" encoding="UTF-8" standalone="no"?>
<!-- Created with Inkscape (http://www.inkscape.org/) -->

<svg
   xmlns:dc="http://purl.org/dc/elements/1.1/"
   xmlns:cc="http://creativecommons.org/ns#"
   xmlns:rdf="http://www.w3.org/1999/02/22-rdf-syntax-ns#"
   xmlns:svg="http://www.w3.org/2000/svg"
   xmlns="http://www.w3.org/2000/svg"
   xmlns:sodipodi="http://sodipodi.sourceforge.net/DTD/sodipodi-0.dtd"
   xmlns:inkscape="http://www.inkscape.org/namespaces/inkscape"
   width="119.28575mm"
   height="46.118938mm"
   viewBox="0 0 119.28575 46.118938"
   version="1.1"
   id="svg7224"
   inkscape:version="0.92.3 (2405546, 2018-03-11)"
   sodipodi:docname="BockBasis.svg">
  <defs
     id="defs7218" />
  <sodipodi:namedview
     id="base"
     pagecolor="#ffffff"
     bordercolor="#666666"
     borderopacity="1.0"
     inkscape:pageopacity="0.0"
     inkscape:pageshadow="2"
     inkscape:zoom="2"
     inkscape:cx="249.22421"
     inkscape:cy="81.871796"
     inkscape:document-units="mm"
     inkscape:current-layer="layer1"
     showgrid="false"
     inkscape:window-width="1920"
     inkscape:window-height="1001"
     inkscape:window-x="-9"
     inkscape:window-y="-9"
     inkscape:window-maximized="1"
     showguides="true"
     inkscape:guide-bbox="true"
     fit-margin-top="0"
     fit-margin-left="0"
     fit-margin-right="0"
     fit-margin-bottom="-0.2">
    <sodipodi:guide
       position="0.077694956,0.013235442"
       orientation="0,1"
       id="guide7821"
       inkscape:locked="false" />
    <sodipodi:guide
       position="90.484098,46.142264"
       orientation="0,1"
       id="guide8409"
       inkscape:locked="false" />
    <sodipodi:guide
       position="-3.549527e-008,38.658715"
       orientation="1,0"
       id="guide8413"
       inkscape:locked="false" />
    <sodipodi:guide
       position="119.27253,45.067404"
       orientation="1,0"
       id="guide8415"
       inkscape:locked="false" />
  </sodipodi:namedview>
  <metadata
     id="metadata7221">
    <rdf:RDF>
      <cc:Work
         rdf:about="">
        <dc:format>image/svg+xml</dc:format>
        <dc:type
           rdf:resource="http://purl.org/dc/dcmitype/StillImage" />
        <dc:title></dc:title>
      </cc:Work>
    </rdf:RDF>
  </metadata>
  <g
     inkscape:label="Ebene 1"
     inkscape:groupmode="layer"
     id="layer1"
     transform="translate(-14.68646,-51.001721)">
    <path
       style="fill:none;stroke:#000000;stroke-width:0.02645833;stroke-linecap:butt;stroke-linejoin:miter;stroke-miterlimit:4;stroke-dasharray:none;stroke-opacity:1"
       d="m 82.467212,56.542057 c -0.643115,1.531786 -0.77174,2.888181 -0.760048,4.431662 -0.67379,-1.890879 -0.763934,-3.266943 0.760048,-4.431662 z"
       id="path7835"
       inkscape:connector-curvature="0" />
    <path
       style="fill:none;stroke:#000000;stroke-width:0.02645833;stroke-linecap:butt;stroke-linejoin:miter;stroke-miterlimit:4;stroke-dasharray:none;stroke-opacity:1"
       d="m 64.38261,89.992183 c -2.538632,-0.528907 -6.157189,-0.988394 -11.128233,-2.172063 0.0093,-0.02715 0.01389,-0.05528 0.01189,-0.0925 -0.0072,-0.134499 -0.01051,-0.138679 -0.327629,-0.409795 -0.127799,-0.109257 -0.139708,-0.121063 -0.180869,-0.188103 -0.0372,-0.06048 -0.04229,-0.07285 -0.03359,-0.07855 0.0056,-0.0037 0.03806,-0.01989 0.07183,-0.03617 0.09596,-0.04627 0.144852,-0.07564 0.220144,-0.131257 0.113935,-0.08418 0.157729,-0.128815 0.193268,-0.197405 0.04376,-0.08445 0.0504,-0.105273 0.05116,-0.168982 5.32e-4,-0.04461 -0.0019,-0.05873 -0.01137,-0.0739 -0.01082,-0.01718 -0.06406,-0.05684 -0.07648,-0.05684 -0.01091,0 -0.145685,-0.09489 -0.190685,-0.134358 -0.06372,-0.0559 -0.1808,-0.235604 -0.234611,-0.360185 -0.01866,-0.0432 -0.07132,-0.191088 -0.07131,-0.199988 1.1e-5,-0.0027 0.03322,-0.0049 0.0739,-0.0052 0.0693,-3.81e-4 0.0766,-0.0021 0.120404,-0.03049 0.05288,-0.03425 0.09935,-0.08174 0.103354,-0.105418 0.01434,-0.08353 0.0087,-0.12809 -0.02687,-0.20619 -0.03957,-0.08686 -0.177054,-0.295018 -0.346234,-0.524515 -0.07578,-0.102801 -0.109019,-0.15744 -0.1788,-0.294039 -0.05917,-0.115824 -0.08412,-0.169987 -0.104902,-0.225828 l -0.02067,-0.05426 0.01137,-0.03101 c 0.0162,-0.04529 0.01348,-0.07354 -0.0124,-0.141595 -0.02559,-0.0673 -0.04391,-0.132826 -0.04031,-0.142626 0.0013,-0.0035 0.01901,0.0023 0.03979,0.0124 0.05875,0.02846 0.105492,0.02135 0.159682,-0.02429 0.05522,-0.04655 0.06253,-0.06518 0.06253,-0.158131 0,-0.05902 -0.0029,-0.08087 -0.0155,-0.124539 -0.01308,-0.04535 -0.02142,-0.06065 -0.05839,-0.101804 -0.02381,-0.02651 -0.07846,-0.08115 -0.121439,-0.121438 -0.08826,-0.08275 -0.216979,-0.216607 -0.23668,-0.246497 -0.0072,-0.01092 -0.01615,-0.03059 -0.02015,-0.04393 l -0.0077,-0.02429 0.04031,-0.01705 c 0.06907,-0.02964 0.09979,-0.07145 0.117822,-0.159679 0.01137,-0.05561 0.01107,-0.139422 -5.16e-4,-0.161232 -0.0083,-0.01565 -0.0078,-0.02007 0.0031,-0.05839 0.01492,-0.05241 0.01501,-0.101915 5.16e-4,-0.133326 -0.0105,-0.02275 -0.09758,-0.124468 -0.197922,-0.230992 -0.07207,-0.07652 -0.158128,-0.225761 -0.219106,-0.380339 -0.07601,-0.192696 -0.151866,-0.542377 -0.190686,-0.880052 -0.03337,-0.29012 -0.03429,-0.304731 -0.03979,-0.554487 -0.0052,-0.237339 -0.01017,-0.292113 -0.03204,-0.333311 -0.02589,-0.04877 -0.07749,-0.05999 -0.105421,-0.02326 -0.0288,0.03789 -0.06226,0.120933 -0.07596,0.188103 -0.06729,0.329922 -0.09595,0.453937 -0.12454,0.542086 -0.06615,0.204004 -0.132328,0.393242 -0.29559,0.842325 -0.05808,0.159763 -0.08383,0.233672 -0.213939,0.618569 -0.07745,0.229095 -0.08689,0.264044 -0.09818,0.358632 -0.01657,0.138782 -0.009,0.22578 0.02222,0.245981 0.02166,0.01397 0.06236,0.01062 0.08217,-0.0067 0.02264,-0.01983 0.07144,-0.0842 0.131773,-0.173117 0.04019,-0.05917 0.04779,-0.06671 0.05219,-0.05323 0.0079,0.02401 4.66e-4,0.08509 -0.02015,0.160197 -0.01471,0.05358 -0.03688,0.101161 -0.104905,0.229444 -0.04724,0.08909 -0.09237,0.177321 -0.100769,0.196371 -0.0084,0.01904 -0.01884,0.04054 -0.02274,0.04754 -0.09911,0.177884 -0.222176,0.457909 -0.250116,0.567925 -0.01426,0.05632 -0.01915,0.133297 -0.01085,0.176215 0.0095,0.04915 0.04988,0.08457 0.08681,0.07597 0.02994,-0.007 0.164841,-0.141243 0.24288,-0.241845 0.02609,-0.03364 0.05854,-0.06927 0.07235,-0.07907 0.01382,-0.0098 0.03041,-0.02209 0.03721,-0.02739 0.0087,-0.0069 0.01754,-0.0063 0.02946,0.0021 l 0.01654,0.01188 -0.01654,0.02377 c -0.01862,0.0267 -0.03686,0.08279 -0.05839,0.18035 -0.02168,0.09828 -0.09124,0.300348 -0.124023,0.360186 -0.0057,0.01047 -0.03199,0.06798 -0.05839,0.128159 -0.0264,0.06018 -0.08138,0.169619 -0.121957,0.242879 -0.114591,0.206912 -0.202268,0.367006 -0.226859,0.413928 -0.06681,0.127494 -0.109437,0.288184 -0.09974,0.376203 0.0043,0.03935 0.03237,0.09164 0.0584,0.109037 0.04308,0.02879 0.07539,0.01439 0.19172,-0.08682 l 0.05426,-0.04754 v 0.08372 c 0,0.0817 -3.7e-4,0.08511 -0.02222,0.14211 -0.03715,0.09691 -0.112728,0.233529 -0.182417,0.329179 -0.03619,0.04968 -0.07609,0.107011 -0.08837,0.12764 -0.01228,0.02062 -0.04472,0.06751 -0.07235,0.10387 -0.226507,0.298056 -0.269801,0.368004 -0.262001,0.422712 0.01078,0.07563 0.04457,0.103267 0.142111,0.115755 0.08642,0.0111 0.08966,0.0113 0.25528,0.0031 l 0.135393,-0.0067 -0.0057,0.02739 c -0.0067,0.03286 -0.03619,0.09221 -0.106971,0.220657 -1.880504,-0.440883 -3.882829,-0.898932 -6.048726,-1.347203 -0.0035,-0.0081 -0.0065,-0.02056 -0.0098,-0.0248 -0.01203,-0.01516 -0.02421,-0.04651 -0.01809,-0.04651 0.003,0 0.03958,0.0072 0.08165,0.01602 0.143325,0.03004 0.16373,0.03217 0.341064,0.03566 0.251873,0.0049 0.320305,-0.01053 0.353984,-0.0801 0.01845,-0.03811 0.01789,-0.04741 -0.0052,-0.09612 -0.01356,-0.02865 -0.03074,-0.05098 -0.05839,-0.07493 -0.09095,-0.0788 -0.19472,-0.166965 -0.213424,-0.181385 -0.01105,-0.0085 -0.03356,-0.02804 -0.05013,-0.04341 -0.04392,-0.04072 -0.102941,-0.08967 -0.165364,-0.137458 -0.03017,-0.02309 -0.05571,-0.04455 -0.05684,-0.04754 -0.0011,-0.003 -0.0436,-0.04864 -0.09405,-0.101804 -0.110683,-0.116639 -0.143436,-0.155541 -0.152445,-0.181383 l -0.0067,-0.01964 0.162264,0.0047 c 0.198647,0.0058 0.20279,0.0057 0.306441,-0.0021 0.116988,-0.0088 0.157599,-0.02844 0.170531,-0.08165 0.0094,-0.0385 -0.04303,-0.08742 -0.314708,-0.297141 -0.03314,-0.02558 -0.07209,-0.05887 -0.08682,-0.07338 -0.01473,-0.01452 -0.06253,-0.05496 -0.105939,-0.08992 -0.08358,-0.0673 -0.174035,-0.162806 -0.218591,-0.230995 -0.02621,-0.04011 -0.02687,-0.04277 -0.02687,-0.100253 v -0.05891 l 0.06511,0.03307 c 0.139528,0.07121 0.178295,0.08175 0.22996,0.06149 0.03122,-0.01224 0.06508,-0.04931 0.07028,-0.077 0.01162,-0.06193 -0.03976,-0.174874 -0.11989,-0.264584 -0.02949,-0.03301 -0.13489,-0.145864 -0.272333,-0.291454 -0.04867,-0.05155 -0.11406,-0.128188 -0.145728,-0.170532 -0.03167,-0.04234 -0.0634,-0.08307 -0.07028,-0.09043 -0.03932,-0.0421 -0.122817,-0.184063 -0.148828,-0.253215 -0.02582,-0.06865 -0.04743,-0.108333 -0.06976,-0.127124 l -0.02015,-0.01654 0.02015,-0.0083 c 0.0143,-0.0059 0.02416,-0.0063 0.03462,-0.0016 0.0081,0.0037 0.02839,0.01225 0.04496,0.01912 0.01657,0.0069 0.05603,0.03214 0.08733,0.05581 0.0936,0.07079 0.255037,0.165094 0.290939,0.170013 0.04431,0.0061 0.09298,-0.01864 0.104386,-0.05323 0.01,-0.0302 0.0043,-0.0844 -0.01292,-0.124024 -0.03351,-0.07741 -0.18189,-0.274812 -0.300757,-0.399976 -0.0046,-0.0049 -0.0168,-0.01967 -0.02687,-0.03307 -0.01007,-0.0134 -0.06426,-0.0758 -0.120923,-0.13849 -0.08159,-0.09026 -0.107931,-0.123532 -0.125573,-0.161232 -0.02473,-0.05285 -0.03426,-0.09576 -0.02481,-0.112655 0.0053,-0.0095 0.01485,-0.0039 0.06305,0.03773 0.07236,0.06257 0.130969,0.107487 0.158131,0.121438 0.02375,0.0122 0.07221,0.01452 0.09818,0.0047 0.03738,-0.01421 0.04674,-0.07547 0.02687,-0.173117 -0.01354,-0.06656 -0.02493,-0.09098 -0.117822,-0.25218 -0.156056,-0.270822 -0.186653,-0.32322 -0.256315,-0.435634 -0.195818,-0.315984 -0.275158,-0.44867 -0.354499,-0.592211 -0.03429,-0.06202 -0.06864,-0.149747 -0.149347,-0.381889 -0.01643,-0.04726 -0.05692,-0.10563 -0.09147,-0.132292 -0.0335,-0.02585 -0.09503,-0.01777 -0.12609,0.01654 -0.02623,0.02899 -0.03252,0.06761 -0.03876,0.234612 -0.0065,0.175733 -0.008,0.18602 -0.04806,0.390157 -0.04656,0.237593 -0.137234,0.483497 -0.228409,0.619085 -0.07314,0.108765 -0.176075,0.213844 -0.262517,0.267682 -0.120343,0.07495 -0.224602,0.146775 -0.237194,0.162782 -0.01739,0.0221 -0.01737,0.05665 5.16e-4,0.09353 0.01305,0.02696 0.01353,0.03033 0.0036,0.04134 -0.01389,0.01535 -0.01416,0.07404 -5.19e-4,0.113173 0.02162,0.06208 0.05875,0.09128 0.141594,0.112138 l 0.04754,0.0124 -0.0088,0.01705 c -0.0049,0.0094 -0.01564,0.02332 -0.02429,0.03101 -0.02363,0.02103 -0.177842,0.115409 -0.283704,0.173633 -0.05155,0.02835 -0.117168,0.06662 -0.145727,0.08527 -0.04434,0.02895 -0.05459,0.03939 -0.07028,0.07131 -0.0151,0.03073 -0.01809,0.04631 -0.01809,0.08785 0,0.0654 0.0087,0.07836 0.07493,0.111104 0.06499,0.03211 0.120743,0.03708 0.191201,0.01705 0.02493,-0.0071 0.04655,-0.01075 0.04806,-0.0083 0.0043,0.0069 -0.0184,0.0529 -0.04909,0.10025 -0.03104,0.04788 -0.03389,0.06735 -0.01447,0.09922 l 0.01344,0.0217 -0.02429,0.03876 c -0.02492,0.03929 -0.05564,0.07715 -0.126609,0.158647 -0.0837,0.09611 -0.123044,0.134371 -0.213939,0.206705 -0.20292,0.161478 -0.368022,0.308369 -0.415481,0.369486 -0.04268,0.05495 -0.04975,0.08592 -0.03255,0.144695 0.0049,0.01666 0.06059,0.05031 0.124023,0.07441 0.05254,0.01997 0.06209,0.02093 0.145209,0.02119 0.04879,1.67e-4 0.08837,0.0022 0.08837,0.0041 8e-6,0.0063 -0.0634,0.110164 -0.08578,0.14056 -0.06454,0.08766 -0.205208,0.213881 -0.281636,0.253214 -0.05397,0.02777 -0.214804,0.09457 -0.227893,0.09457 -0.0149,0 -0.07953,0.02822 -0.0925,0.04031 -0.01145,0.01067 -0.01407,0.02029 -0.01344,0.05168 9.13e-4,0.04483 0.0085,0.05943 0.06098,0.118856 0.04263,0.04826 0.09536,0.07978 0.232026,0.13901 0.0903,0.03914 0.149484,0.05994 0.264583,0.0925 0.0405,0.01145 0.079,0.02269 0.08578,0.02532 0.01041,0.004 0.0043,0.01274 -0.04031,0.0553 -0.04937,0.04717 -0.06324,0.05542 -0.216524,0.132291 -0.04533,0.02273 -0.04482,0.02502 -0.0801,0.04289 -0.438947,-0.08202 -0.872554,-0.165073 -1.321883,-0.244946 -1.024556,-0.18212 -1.987624,-0.481115 -2.925402,-0.858861 -0.0054,-0.03462 -0.0062,-0.05259 -0.01395,-0.09715 -0.0065,-0.03773 -0.0135,-0.07815 -0.0155,-0.08992 l -0.0036,-0.02119 0.02739,0.01809 c 0.02051,0.01369 0.05342,0.02094 0.132292,0.02894 0.05763,0.0058 0.11149,0.0128 0.11989,0.01551 0.0084,0.0027 0.02405,-0.0023 0.03514,-0.01085 0.01875,-0.01456 0.0239,-0.01455 0.0739,-0.001 0.06229,0.01673 0.344704,0.02017 0.480589,0.0057 0.127288,-0.01357 0.308144,-0.0964 0.370004,-0.169498 0.04713,-0.05574 0.05856,-0.0888 0.05426,-0.151413 -0.009,-0.129275 -0.01309,-0.13318 -0.41031,-0.393774 -0.160081,-0.105015 -0.174268,-0.116427 -0.225827,-0.180869 -0.04651,-0.05812 -0.05325,-0.06995 -0.04237,-0.07545 0.0071,-0.0036 0.04762,-0.01949 0.08992,-0.03514 0.120203,-0.04447 0.181642,-0.07263 0.275952,-0.126093 0.142714,-0.08091 0.197842,-0.123721 0.242361,-0.18965 0.05478,-0.08118 0.06261,-0.101026 0.06356,-0.162264 6.59e-4,-0.04288 -0.002,-0.05622 -0.01395,-0.0708 -0.01356,-0.01652 -0.08056,-0.05478 -0.09612,-0.05478 -0.01367,0 -0.182385,-0.09125 -0.238744,-0.129193 -0.07982,-0.05372 -0.226629,-0.226486 -0.29404,-0.346231 -0.02337,-0.04152 -0.08941,-0.183637 -0.0894,-0.192236 0,-0.0026 0.04155,-0.0049 0.0925,-0.0052 0.08681,-3.71e-4 0.09655,-0.0022 0.151411,-0.02946 0.06625,-0.03292 0.124092,-0.07801 0.129193,-0.10077 0.01796,-0.08028 0.01098,-0.123367 -0.03359,-0.198437 -0.04956,-0.08349 -0.222166,-0.283774 -0.434081,-0.504362 -0.09493,-0.09881 -0.136351,-0.150858 -0.223761,-0.282154 -0.07411,-0.111329 -0.105743,-0.16337 -0.131773,-0.217041 l -0.02532,-0.05271 0.01395,-0.02997 c 0.02029,-0.04353 0.01742,-0.06998 -0.01499,-0.135393 -0.03205,-0.06469 -0.05566,-0.127542 -0.05116,-0.136943 0.0016,-0.0034 0.02408,0.0017 0.05012,0.01137 0.07359,0.02736 0.132109,0.02062 0.199988,-0.02325 0.06921,-0.04473 0.07803,-0.06259 0.07803,-0.151929 0,-0.05674 -0.0033,-0.07791 -0.01912,-0.119888 -0.01638,-0.04359 -0.02707,-0.05812 -0.07338,-0.09767 -0.02982,-0.02549 -0.0981,-0.07806 -0.151926,-0.11679 -0.110556,-0.07954 -0.271434,-0.207946 -0.296106,-0.236677 -0.009,-0.0105 -0.02074,-0.02954 -0.02584,-0.04238 l -0.0093,-0.02325 0.05013,-0.01654 c 0.08651,-0.02849 0.125214,-0.06867 0.147794,-0.153477 0.01425,-0.05345 0.01399,-0.134069 -5.16e-4,-0.15503 -0.0104,-0.01504 -0.01002,-0.0195 0.0036,-0.05633 0.01868,-0.05038 0.01868,-0.09797 5.15e-4,-0.128159 -0.01315,-0.02187 -0.122361,-0.1193 -0.248046,-0.221691 -0.09027,-0.07354 -0.197504,-0.216773 -0.273886,-0.365353 -0.09521,-0.185216 -0.190114,-0.521377 -0.238745,-0.845942 -0.04175,-0.278863 -0.04332,-0.292721 -0.05013,-0.532786 -0.0065,-0.228121 -0.01292,-0.28131 -0.04031,-0.32091 -0.03243,-0.04688 -0.09679,-0.05753 -0.131773,-0.02222 -0.03607,0.03642 -0.07844,0.116308 -0.0956,0.180867 -0.08429,0.317116 -0.119737,0.436168 -0.155546,0.520898 -0.08286,0.196085 -0.166018,0.378119 -0.37052,0.809771 -0.07275,0.153558 -0.104709,0.224324 -0.267684,0.594277 -0.097,0.220205 -0.109366,0.253762 -0.123508,0.344684 -0.02075,0.133395 -0.01062,0.217268 0.02842,0.236677 0.02713,0.01347 0.07803,0.01 0.102838,-0.0067 0.02837,-0.01906 0.08928,-0.08041 0.164846,-0.165881 0.05034,-0.05689 0.06013,-0.06464 0.06563,-0.05168 0.0099,0.02308 -8e-6,0.08181 -0.02584,0.153998 -0.01843,0.05149 -0.04553,0.09735 -0.130741,0.220657 -0.05917,0.08563 -0.116097,0.170826 -0.126606,0.189135 -0.01052,0.0183 -0.02311,0.03878 -0.02791,0.04548 -0.124137,0.170979 -0.279193,0.439958 -0.314192,0.545704 -0.01795,0.05413 -0.02333,0.128248 -0.01292,0.169497 0.01192,0.04724 0.06225,0.08116 0.108521,0.07286 0.03749,-0.0067 0.206108,-0.135843 0.303856,-0.232543 0.03268,-0.03234 0.07364,-0.06656 0.09095,-0.07596 0.0173,-0.0094 0.03853,-0.02126 0.04703,-0.02635 0.01093,-0.0067 0.02124,-0.006 0.03617,0.0021 l 0.02119,0.01137 -0.02119,0.02325 c -0.02332,0.02567 -0.04589,0.07935 -0.07286,0.173117 -0.02717,0.09446 -0.11397,0.288711 -0.15503,0.346231 -0.0072,0.01006 -0.04031,0.06515 -0.07338,0.122992 -0.03307,0.05784 -0.101616,0.163155 -0.152447,0.233577 -0.143537,0.198882 -0.253421,0.352808 -0.284221,0.397907 -0.08368,0.122547 -0.137187,0.277135 -0.125055,0.361735 0.0054,0.03783 0.04078,0.08818 0.07338,0.104905 0.05396,0.02767 0.09407,0.01356 0.239779,-0.08372 l 0.06822,-0.04548 v 0.08062 c 0,0.07852 -5.38e-4,0.08164 -0.02791,0.136427 -0.04653,0.09315 -0.141637,0.224319 -0.228928,0.31626 -0.04534,0.04775 -0.09469,0.103161 -0.110069,0.122988 -0.01538,0.01982 -0.05634,0.06427 -0.09095,0.09922 -0.196564,0.198477 -0.279215,0.2891 -0.310576,0.345199 -1.272844,-0.711689 -2.565506,-1.507003 -3.9703,-2.307351 0.01685,-0.01315 0.03101,-0.02943 0.0341,-0.04858 0.0038,-0.02391 -0.01667,-0.09935 -0.03256,-0.119372 -0.01149,-0.01449 -0.02342,-0.04444 -0.01757,-0.04444 0.0028,0 0.03783,0.0066 0.07803,0.01499 0.136972,0.02871 0.156607,0.03077 0.326081,0.03411 0.240702,0.0047 0.306292,-0.01 0.338478,-0.07648 0.01763,-0.03642 0.0168,-0.04491 -0.0052,-0.09147 -0.01296,-0.02738 -0.02939,-0.04894 -0.05581,-0.07183 -0.08692,-0.07531 -0.186246,-0.159335 -0.204121,-0.173117 -0.01056,-0.0081 -0.03223,-0.02666 -0.04806,-0.04134 -0.04197,-0.03892 -0.09796,-0.08611 -0.157612,-0.131773 -0.02883,-0.02207 -0.05317,-0.04262 -0.05426,-0.04548 -0.0011,-0.0028 -0.04171,-0.04635 -0.08992,-0.09715 -0.105776,-0.111469 -0.137118,-0.148934 -0.145728,-0.173633 l -0.0062,-0.0186 0.155027,0.0047 c 0.189842,0.0055 0.193435,0.0054 0.292489,-0.0021 0.111803,-0.0084 0.150937,-0.02718 0.163299,-0.07803 0.0089,-0.03678 -0.04113,-0.0838 -0.300758,-0.284218 -0.03167,-0.02445 -0.06913,-0.0559 -0.0832,-0.06976 -0.01407,-0.01387 -0.05927,-0.05237 -0.100769,-0.08578 -0.07988,-0.06432 -0.166711,-0.156012 -0.209291,-0.221176 -0.02505,-0.03833 -0.02584,-0.04066 -0.02584,-0.0956 v -0.05633 l 0.06253,0.03152 c 0.133342,0.06805 0.170246,0.07827 0.219625,0.05891 0.02984,-0.0117 0.0617,-0.04691 0.06666,-0.07338 0.0111,-0.05919 -0.03762,-0.167484 -0.114205,-0.253214 -0.02818,-0.03155 -0.128582,-0.139401 -0.259932,-0.278535 -0.04651,-0.04926 -0.109259,-0.12283 -0.139525,-0.163298 -0.03027,-0.04047 -0.0606,-0.07927 -0.06718,-0.0863 -0.03758,-0.04024 -0.117253,-0.17576 -0.142111,-0.241848 -0.02468,-0.06559 -0.04531,-0.103481 -0.06666,-0.121438 l -0.01912,-0.01602 0.01912,-0.0078 c 0.01366,-0.0056 0.02307,-0.0063 0.03307,-0.0016 0.0077,0.0036 0.02705,0.01204 0.04289,0.0186 0.01584,0.0066 0.05328,0.03008 0.0832,0.05271 0.08945,0.06765 0.244227,0.158078 0.278538,0.16278 0.04234,0.0058 0.08831,-0.01759 0.09922,-0.05064 0.0095,-0.02886 0.0045,-0.08098 -0.01189,-0.118857 -0.03202,-0.07398 -0.173723,-0.262276 -0.287319,-0.381889 -0.0044,-0.0047 -0.01622,-0.01872 -0.02584,-0.03152 -0.0096,-0.01281 -0.0616,-0.07239 -0.115756,-0.132292 -0.07797,-0.08626 -0.103026,-0.118485 -0.119888,-0.154514 -0.02363,-0.05051 -0.0328,-0.09133 -0.02377,-0.107487 0.005,-0.0091 0.0144,-0.0041 0.06046,0.03566 0.06915,0.05979 0.124936,0.102939 0.150895,0.116271 0.0227,0.01166 0.06922,0.01408 0.09405,0.0047 0.03573,-0.01358 0.04483,-0.07204 0.02584,-0.165365 -0.01294,-0.06361 -0.02388,-0.08728 -0.112657,-0.241329 -0.149135,-0.258813 -0.178371,-0.308568 -0.244946,-0.415994 -0.187137,-0.301977 -0.263173,-0.42868 -0.338997,-0.565859 -0.03277,-0.05927 -0.06549,-0.142986 -0.142626,-0.364834 -0.0157,-0.04517 -0.05432,-0.101131 -0.08733,-0.126608 -0.03201,-0.0247 -0.09073,-0.01678 -0.120406,0.01602 -0.02507,0.0277 -0.03124,0.06417 -0.03721,0.223758 -0.0063,0.167942 -0.0078,0.178017 -0.04599,0.373105 -0.0445,0.227058 -0.130942,0.462121 -0.218075,0.591696 -0.0699,0.103941 -0.168536,0.204348 -0.251147,0.255796 -0.115009,0.07163 -0.214826,0.139735 -0.226859,0.15503 -0.01662,0.02112 -0.01657,0.05468 5.16e-4,0.08992 0.01247,0.02577 0.01314,0.02875 0.0036,0.03927 -0.01327,0.01467 -0.01355,0.07062 -5.19e-4,0.108003 0.02066,0.05933 0.05571,0.08756 0.134877,0.10749 l 0.04599,0.01188 -0.0083,0.01602 c -0.0046,0.009 -0.01552,0.02212 -0.02377,0.02946 -0.02259,0.0201 -0.169617,0.110246 -0.270783,0.16588 -0.04926,0.02709 -0.111718,0.06382 -0.139009,0.08165 -0.04238,0.02767 -0.05219,0.03772 -0.06718,0.06821 -0.01443,0.02936 -0.01757,0.04454 -0.01757,0.08423 0,0.0625 0.008,0.07463 0.07131,0.105936 0.06211,0.03069 0.1156,0.03568 0.182936,0.01654 0.02382,-0.0068 0.04454,-0.01067 0.04599,-0.0083 0.0041,0.0066 -0.01718,0.05086 -0.04651,0.09612 -0.02966,0.04576 -0.03252,0.06464 -0.01395,0.09509 l 0.0124,0.02067 -0.02326,0.03669 c -0.02382,0.03755 -0.05258,0.07405 -0.120406,0.151929 -0.07999,0.09185 -0.117774,0.128278 -0.20464,0.197406 -0.193921,0.154318 -0.35152,0.294545 -0.396874,0.352949 -0.04078,0.05252 -0.04744,0.08232 -0.03101,0.138493 0.0046,0.01592 0.05772,0.04776 0.11834,0.0708 0.05021,0.01908 0.05906,0.02041 0.138494,0.02067 0.04663,1.58e-4 0.08475,0.0018 0.08475,0.0036 8e-6,0.006 -0.06077,0.105313 -0.08217,0.134361 -0.04619,0.06274 -0.128056,0.136353 -0.199469,0.190169 -1.031706,-0.495495 -2.129931,-0.969417 -3.331065,-1.394232 0.01993,-0.01195 0.04278,-0.02388 0.05581,-0.03566 0.0642,-0.058 0.08032,-0.09144 0.07441,-0.156581 -0.01219,-0.134495 -0.01805,-0.138678 -0.558622,-0.409794 -0.217848,-0.109257 -0.237305,-0.121579 -0.307475,-0.188619 -0.06335,-0.06048 -0.07267,-0.07285 -0.05788,-0.07855 0.0096,-0.0037 0.06491,-0.01989 0.122473,-0.03617 0.163581,-0.04627 0.247349,-0.07564 0.37569,-0.131257 0.19422,-0.08418 0.269105,-0.128815 0.329695,-0.197406 0.07461,-0.08446 0.085,-0.105272 0.0863,-0.168981 8.99e-4,-0.04461 -0.0023,-0.05873 -0.0186,-0.0739 -0.01844,-0.01718 -0.110088,-0.05684 -0.13126,-0.05684 -0.01859,0 -0.247827,-0.09489 -0.324527,-0.134358 -0.10862,-0.0559 -0.308245,-0.235604 -0.399976,-0.360185 -0.0318,-0.0432 -0.121965,-0.191088 -0.121955,-0.199988 3e-6,-0.0027 0.05675,-0.0049 0.12609,-0.0052 0.118134,-3.81e-4 0.131003,-0.0021 0.205672,-0.03049 0.09015,-0.03425 0.169317,-0.08174 0.176217,-0.105418 0.02444,-0.08353 0.01466,-0.12809 -0.04599,-0.20619 -0.06745,-0.08686 -0.302271,-0.295018 -0.590661,-0.524515 -0.129183,-0.102802 -0.184904,-0.156925 -0.303858,-0.293524 -0.100865,-0.115824 -0.143897,-0.170503 -0.179316,-0.226343 l -0.03514,-0.05426 0.01912,-0.03101 c 0.02761,-0.04529 0.02344,-0.07354 -0.02067,-0.141595 -0.04362,-0.0673 -0.07534,-0.13231 -0.06924,-0.14211 0.0021,-0.0035 0.03278,0.0018 0.06821,0.01189 0.10014,0.02845 0.179449,0.02135 0.271817,-0.02429 0.09419,-0.04655 0.106455,-0.06518 0.106455,-0.158131 0,-0.05902 -0.0044,-0.08087 -0.02584,-0.12454 -0.02229,-0.04535 -0.03723,-0.06014 -0.100253,-0.101285 -0.04059,-0.02651 -0.133445,-0.08115 -0.206706,-0.121441 -0.15045,-0.08275 -0.369485,-0.217122 -0.403074,-0.247012 -0.01228,-0.01092 -0.02824,-0.03059 -0.03514,-0.04393 l -0.0124,-0.02429 0.06821,-0.01706 c 0.117735,-0.02964 0.170291,-0.07145 0.201023,-0.159679 0.01939,-0.05561 0.01922,-0.139422 -5.19e-4,-0.161232 -0.01412,-0.01565 -0.0139,-0.02007 0.0047,-0.05839 0.02542,-0.05242 0.02574,-0.101915 0.001,-0.133327 -0.0179,-0.02275 -0.16641,-0.124468 -0.337447,-0.230991 -0.122854,-0.07652 -0.269161,-0.225761 -0.373105,-0.380339 -0.129577,-0.192696 -0.258347,-0.54238 -0.324527,-0.880052 -0.05687,-0.290121 -0.05891,-0.304215 -0.06821,-0.553971 -0.0089,-0.237339 -0.01802,-0.29264 -0.0553,-0.333828 -0.04414,-0.04877 -0.131706,-0.06 -0.179316,-0.02326 -0.04909,0.03789 -0.106359,0.120933 -0.129709,0.188102 -0.114707,0.329923 -0.163143,0.453936 -0.211873,0.542087 -0.11276,0.204004 -0.226061,0.393242 -0.504362,0.842325 -0.09901,0.15976 -0.142529,0.233672 -0.364318,0.618566 -0.132012,0.229098 -0.148192,0.264047 -0.167432,0.358635 -0.02824,0.138782 -0.01489,0.22578 0.03824,0.245981 0.03692,0.01397 0.106284,0.01062 0.140044,-0.0067 0.0386,-0.01983 0.121955,-0.08368 0.224792,-0.172599 0.0685,-0.05917 0.08138,-0.06723 0.08888,-0.05374 0.01343,0.02401 10e-6,0.08509 -0.03514,0.160197 -0.02508,0.05358 -0.06181,0.101161 -0.177767,0.229444 -0.08053,0.08909 -0.15829,0.177837 -0.1726,0.196887 -0.01431,0.01904 -0.03164,0.04003 -0.03824,0.04702 -0.168935,0.177885 -0.379217,0.457909 -0.426848,0.567926 -0.02437,0.05632 -0.03226,0.133813 -0.01809,0.176734 0.01622,0.04915 0.08482,0.08405 0.147794,0.07545 0.05102,-0.007 0.280901,-0.141243 0.413928,-0.241845 0.04448,-0.03364 0.09996,-0.06927 0.123507,-0.07907 0.02355,-0.0098 0.05204,-0.02209 0.06356,-0.02739 0.01487,-0.0069 0.02929,-0.0063 0.04961,0.0021 l 0.02842,0.01189 -0.02842,0.02377 c -0.03174,0.0267 -0.06252,0.08279 -0.09922,0.18035 -0.03697,0.09828 -0.155478,0.300347 -0.211357,0.360185 -0.0098,0.01047 -0.05473,0.06798 -0.09973,0.128159 -0.04501,0.06018 -0.138053,0.169619 -0.207223,0.24288 -0.195336,0.206912 -0.345146,0.367006 -0.387056,0.413927 -0.113887,0.127495 -0.186525,0.288184 -0.170016,0.376203 0.0074,0.03936 0.05537,0.09164 0.09974,0.109038 0.07343,0.02879 0.128298,0.01439 0.326595,-0.08681 l 0.0925,-0.04754 v 0.08372 c 0,0.0817 -4.74e-4,0.08511 -0.03772,0.14211 -0.06332,0.09691 -0.192303,0.233529 -0.311092,0.329179 -0.0617,0.04968 -0.129449,0.10701 -0.150379,0.12764 -0.02093,0.02062 -0.07692,0.06751 -0.124023,0.10387 -0.116307,0.08978 -0.158966,0.128188 -0.224793,0.182417 -1.05187,-0.177371 -2.163745,-0.318357 -3.351216,-0.410826 v 21.599281 h 32.676186 l 21.962962,-6.06922 z"
       id="path7833"
       inkscape:connector-curvature="0"
       sodipodi:nodetypes="sccccccccccsccccccccccccccccsccccccccccccccccccccccccccccccccccccccccccccccccsccccccccccccscccccccccccccccccccscccccccccccccccccccsccccccccccccccccccccccccccccsccccccccccccccccsccccccccccccccccccccccccccccccsccccccccccccccccsccccccccccccccccccccccccccccccccccccccccccccccccsccccccccscccccccccccccccccccsccccccccccccccccccccccccccccccccccccccccccccccccscccccccccccccccccccccccccccscccccccsccccccccsccccccccccccccccccccccccccccccccccccccccccccccccscccccccccs" />
    <path
       style="fill:none;stroke:#000000;stroke-width:0.02645833;stroke-linecap:butt;stroke-linejoin:miter;stroke-miterlimit:4;stroke-dasharray:none;stroke-opacity:1"
       d="M 133.95898,97.107429 V 52.05326 c -1.17393,0.01654 -2.35979,0.687168 -2.55696,0.912162 -0.0233,0.02657 -0.27795,0.227672 -0.56585,0.447001 -0.2879,0.219323 -0.59807,0.493672 -0.68937,0.609782 -0.0913,0.116108 -0.19917,0.211356 -0.23977,0.211356 -0.0406,0 -0.5109,0.438067 -1.0449,0.973585 -0.534,0.535516 -0.93997,0.973583 -0.90227,0.973583 0.0377,0 -0.0474,0.09777 -0.18914,0.217042 -0.39121,0.329183 -1.01045,1.385533 -1.23093,2.10013 -0.25485,0.825994 -0.498,1.216333 -1.27382,2.043286 -1.05677,1.126398 -1.21617,1.546006 -1.43971,3.793049 -0.17641,1.773436 -0.27957,2.103707 -0.86868,2.785877 -0.17528,0.202986 -0.47105,0.630608 -0.65733,0.95033 -0.2247,0.385705 -0.45276,0.653352 -0.67747,0.795817 -1.00066,0.634423 -1.20512,0.777234 -1.41232,0.984435 -0.12463,0.124629 -0.31918,0.405106 -0.43253,0.623218 -0.23712,0.456287 -0.90641,2.329045 -0.90641,2.53628 l -0.1695,0.259416 c 0,0.05828 -0.1904,0.582223 -0.42323,1.164786 -0.83973,2.113655 -3.30644,6.852967 -8.50904,7.906496 -0.4191,0.08161 -0.78572,0.124796 -0.81442,0.09612 -0.0287,-0.02868 -0.0989,-0.47117 -0.15606,-0.983404 -0.11882,-1.064051 -0.48996,-2.936306 -0.86455,-4.360457 -0.28694,-1.09092 -0.29259,-1.102966 -0.80305,-1.851049 -0.20228,-0.296455 -0.36742,-0.589434 -0.36742,-0.651124 l -0.14728,-0.406694 -0.13745,-0.641305 c -0.17135,-0.799491 -0.41173,-2.95162 -0.37673,-3.373437 l 0.0264,-0.315225 0.17828,0.338479 c 0.098,0.186267 0.37756,0.898197 0.62167,1.581817 0.25873,0.724575 0.49876,1.26415 0.57516,1.29346 0.34186,0.131181 0.78393,-0.705223 0.78393,-1.483113 0,-0.359495 -0.0815,-0.718503 -0.29094,-1.284158 -0.15986,-0.431835 -0.33362,-0.950029 -0.38602,-1.151353 -0.0524,-0.201327 -0.17355,-0.505754 -0.26975,-0.67696 -0.0962,-0.17121 -0.36571,-0.673312 -0.59893,-1.115695 -0.56987,-1.081001 -0.82062,-1.4306 -1.38338,-1.932181 -0.49074,-0.437388 -1.40988,-0.981972 -1.56838,-0.929143 l -0.45527,-0.223242 c -1.07963,-0.451098 -3.556049,-0.810286 -5.588289,-0.810286 h -2.53421 c -0.43637,0.335034 -3.05634,-0.603306 -4.68757,-0.37052 -1.91815,0.395634 -3.561011,0.206314 -5.036902,-0.580327 -0.270788,-0.14433 -0.575617,-0.379391 -0.677476,-0.522448 -0.168291,-0.235919 -0.183198,-0.349041 -0.163298,-1.21388 0.0148,-0.643522 -0.0092,-0.96454 -0.07028,-0.95343 -0.373208,0.06782 -0.608492,0.477258 -0.877983,0.894519 -0.06704,0.183193 -0.130675,0.276039 -0.141076,0.206189 -0.0103,-0.06985 -0.02796,-0.165303 -0.03876,-0.211873 -0.0108,-0.04657 -0.02394,-0.151054 -0.02894,-0.232544 0.03172,-0.997481 0.277857,-2.034127 0.492477,-2.624646 0.05474,-0.150616 0.190838,-0.418704 0.306959,-0.594279 0.247568,-0.374333 0.293449,-0.362928 0.915188,0.235128 0.32472,0.311105 0.486937,0.505149 0.931728,1.176672 0.741378,1.120363 0.922578,2.248639 0.477488,2.968811 -0.20715,0.335168 -0.194622,0.346396 0.201538,0.180867 0.657881,-0.274878 0.982888,-0.790302 0.982888,-1.559078 -0.170191,-2.316005 -0.873348,-3.198113 -1.104326,-3.505729 -0.33196,-0.442113 -0.380519,-0.460217 -0.867648,-0.908471 0.410961,-0.32534 0.459994,-0.266573 1.136364,-0.606682 0.709329,-0.244867 1.788853,-0.607052 2.888713,-0.478007 1.561441,0.183203 2.709267,0.514245 3.584278,1.409217 0.498855,0.510244 0.670695,0.978659 0.668695,1.829345 -0.002,0.848484 -0.16799,1.299405 -0.610301,1.655196 l -0.235127,0.189136 0.329694,-0.05064 c 0.468344,-0.07222 0.934984,-0.412401 1.210774,-0.8816 0.21032,-0.357875 0.23772,-0.487109 0.23772,-1.130163 0,-0.68367 -0.0213,-0.768204 -0.35967,-1.451074 -0.2933,-0.591912 -0.48167,-0.839679 -1.02526,-1.348238 -0.366303,-0.342696 -0.883751,-0.753496 -1.149803,-0.912606 -0.520718,-0.311412 -1.762019,-0.803923 -2.256708,-0.895553 -1.239451,-0.228387 -2.205937,-0.286831 -3.447335,0.09663 -0.961692,0.275275 -2.437807,1.016169 -2.879929,1.44539 -0.136739,0.132746 -0.304625,0.168786 -1.105874,0.237195 -0.34381,0.02935 -0.867513,0.128125 -1.163753,0.219625 -1.7106,0.528351 -2.729043,3.193382 -2.178162,5.700427 0.18069,0.785578 0.681702,1.308715 0.8909,2.105815 0.07571,0.288467 0.191527,0.557602 0.219625,1.159103 0.03513,0.751062 0.01703,0.86434 -0.267684,1.709973 -0.167698,0.498086 -0.30489,1.06077 -0.30489,1.250569 0,0.32114 0.02778,0.361984 0.402043,0.588078 0.79294,0.479036 0.811908,0.51339 0.746207,1.353921 -0.05142,0.657317 -0.03961,0.761047 0.106971,0.942062 0.147899,0.182647 0.180443,0.190606 0.315743,0.07906 0.51499,-0.424555 0.965316,-1.580345 1.097608,-2.816883 0.05088,-0.475594 0.09694,-0.599652 0.263033,-0.708483 0.182938,-0.11984 0.220318,-0.119123 0.412377,0.0067 0.116231,0.07615 0.3313,0.375499 0.477491,0.665594 0.422169,0.837736 0.769376,1.336013 1.322916,1.897557 l 0.515731,0.522965 0.26665,0.181385 c 0.04643,0 0.233979,0.135382 0.417028,0.300757 0.23095,0.208648 0.414322,0.500094 0.59893,0.952397 0.422611,1.035425 0.513866,1.221486 0.797885,1.62574 0.637249,0.907005 0.928693,1.688401 1.062985,2.850988 0.128108,1.109166 0.309126,2.059337 0.312124,2.191597 l 0.02842,1.10381 v 0.39274 c 0.06699,0.727503 -0.06951,2.600713 -0.563274,3.086634 -0.19112,0.188098 -0.280501,0.357971 -0.268201,0.837673 -0.50755,0.240848 -1.355695,0.257395 -2.032433,0.03979 -0.550702,-0.177067 -0.599224,-0.179713 -0.906923,-0.05116 -0.178779,0.0747 -0.517721,0.26302 -0.753441,0.418582 -0.51929,0.342691 -0.55381,0.353718 -1.603521,0.510045 -2.742908,1.58778 -0.869095,1.787636 -2.742985,1.588016 -0.78572,0.720291 -1.278157,1.226486 -2.443779,1.42472 -0.621289,5.9e-4 -0.958228,0.09261 -2.020546,0.552421 -1.318652,0.570757 -1.908766,0.0885 -2.932516,0.174257 -0.184218,0.01543 -2.354349,1.374461 -2.473578,1.233185 -4.491663,1.660974 -2.835634,0.738806 -3.714852,0.903343 -0.879221,0.164539 -4.360058,1.236299 -5.458533,2.189395 -0.59701,0.371669 -2.998427,1.205018 -3.975115,1.181148 -0.991588,-0.02424 -0.498292,0.24145 -1.236966,0.659079 -1.099939,0.85672 -4.41789,1.118152 -5.816771,1.50886 -1.368825,0.382313 -3.903266,1.621488 -3.903266,1.621488 z"
       id="path7831"
       inkscape:connector-curvature="0"
       sodipodi:nodetypes="cccccscscscccccccccccccccccccccccscccccccsccccccccscccccccccccsccccccsccccccccccccsccccccccccccsccccccccccccccccccccscc" />
    <path
       style="fill:none;stroke:#000000;stroke-width:0.02645833;stroke-linecap:butt;stroke-linejoin:miter;stroke-miterlimit:4;stroke-dasharray:none;stroke-opacity:1"
       d="m 100.2091,74.046822 c 0.10596,-7.4e-4 0.37551,0.206238 0.67748,0.520899 0.9658,1.006385 1.2687,1.275646 1.96215,1.74253 0.38444,0.258826 0.74176,0.5218 0.79375,0.584459 0.052,0.06266 0.10644,0.114205 0.12144,0.114205 l 0.12506,0.07441 0.13436,0.957564 c 0.0915,0.651192 0.12166,1.309637 0.0946,2.058273 -0.0364,1.005483 -0.062,1.148321 -0.29765,1.651061 -0.1419,0.302686 -0.27101,0.645295 -0.28681,0.761712 -0.0281,0.206928 -0.0451,0.211886 -0.74879,0.211357 -1.71302,-0.01141 -2.849379,0.02486 -4.564579,0.08216 l -0.57878,-0.165364 c -1.3196,0.110932 -4.44104,0.305943 -4.467938,0.279053 -0.0169,-0.01681 0.0013,-0.963062 0.04082,-2.102712 0.06337,-1.828348 0.09752,-2.166591 0.290939,-2.876312 0.131381,-0.482074 0.271205,-1.347126 0.348816,-2.15904 0.0712,-0.745067 0.1475,-1.405157 0.1695,-1.466577 0.10229,-0.03689 0.25293,-0.04573 0.3793,-0.08527 l 1.29295,0.06821 c 0.61594,-9.79e-4 1.84374,-0.05739 2.72851,-0.125572 0.88477,-0.06818 1.688112,-0.124264 1.784912,-0.125058 z"
       id="path7829"
       inkscape:connector-curvature="0" />
    <path
       style="fill:none;stroke:#000000;stroke-width:0.02645833;stroke-linecap:butt;stroke-linejoin:miter;stroke-miterlimit:4;stroke-dasharray:none;stroke-opacity:1"
       d="m 91.180192,74.841604 c 0.271896,-5.98e-4 0.581149,0.188434 0.681611,0.530717 0.170302,0.58033 0.197604,1.298509 0.08268,2.166795 -0.107839,0.814533 -0.104453,0.87381 0.07235,1.36684 0.269931,0.752726 0.232733,1.455423 -0.167947,3.188436 l -0.194304,0.840777 h -0.784966 c -0.40671,-6.12e-4 -0.357989,-0.152421 -0.988568,-0.06046 -0.241581,0.06063 -0.255233,-0.0477 0.100769,-0.955498 l 0.420129,-2.882511 0.05219,-0.315743 c 0.0286,-0.173461 0.0527,-0.562896 0.05323,-0.865579 0.0011,-0.59173 0.140277,-2.261089 0.221176,-2.651516 0.0512,-0.247045 0.240178,-0.361778 0.451652,-0.362255 z"
       id="path7827"
       inkscape:connector-curvature="0" />
    <path
       style="fill:none;stroke:#000000;stroke-width:0.02645833;stroke-linecap:butt;stroke-linejoin:miter;stroke-miterlimit:4;stroke-dasharray:none;stroke-opacity:1"
       d="m 105.45167,76.119563 0.48938,0.625803 c 0.73612,0.941242 1.03995,1.549178 1.3379,2.678388 0.22426,0.850016 0.26953,1.180793 0.27854,2.046388 0.007,0.614188 -0.0244,1.068601 -0.0765,1.120862 -0.0482,0.04833 -0.59129,0.113554 -1.20665,0.144693 -0.93165,0.04715 -1.11821,0.03645 -1.11621,-0.06253 0.002,-0.06538 0.0432,-0.385617 0.092,-0.711584 0.0488,-0.325967 0.11412,-1.773806 0.14521,-3.217376 z"
       id="path7825"
       inkscape:connector-curvature="0" />
    <path
       style="fill:none;stroke:#000000;stroke-width:0.02645833;stroke-linecap:butt;stroke-linejoin:miter;stroke-miterlimit:4;stroke-dasharray:none;stroke-opacity:1"
       d="m 34.459108,82.743965 -0.0072,0.02687 c -0.0058,0.02181 -0.0296,0.06152 -0.0677,0.117821 -0.08169,-0.044 -0.163695,-0.08904 -0.245462,-0.133842 0.03705,-5.56e-4 0.0716,-0.0011 0.150894,-0.0041 z"
       id="path7200-3"
       inkscape:connector-curvature="0" />
    <path
       style="fill:none;stroke:#000000;stroke-width:0.026;stroke-miterlimit:4;stroke-dasharray:none;stroke-opacity:1"
       d="m 58.174834,57.894315 c -0.392088,-0.155444 -2.03577,-1.355287 -3.361054,-2.616752 -0.646507,-0.615377 -1.478503,-0.863695 -1.478503,-0.441278 0,0.557879 0.363634,1.504802 0.886538,2.308602 0.477229,0.733587 0.566489,0.997177 0.490849,1.449515 -0.08366,0.500346 -0.02146,0.604277 0.654661,1.093835 l 0.747115,0.540957 c 0,0 0.992801,-1.19499 1.797716,-1.704657 0.297226,0.117189 0.474337,0.01108 0.515926,0.159012 -1.345732,1.052996 -2.386544,2.230258 -2.386544,2.230258 l -0.536884,-0.558426 c -0.673217,-0.700234 -0.78613,-0.697302 -1.103037,0.02862 -0.157449,0.360666 -0.279548,0.482285 -0.316617,0.315376 -0.03318,-0.14943 0.0069,-0.393139 0.08891,-0.541592 0.08208,-0.148455 0.165834,-0.691808 0.186105,-1.207454 0.03246,-0.825866 -0.0183,-1.00665 -0.42621,-1.517766 -1.004884,-1.259131 -1.055362,-1.259895 -2.035384,-0.03081 -0.484503,0.607628 -0.960059,1.10478 -1.056787,1.10478 -0.09672,0 -0.284772,0.342755 -0.417874,0.761681 -0.510814,1.607751 -6.259334,9.847 -6.259334,8.971392 0,-0.102092 0.448398,-0.697247 0.996439,-1.322586 1.076667,-1.228528 3.561706,-5.116585 4.193964,-6.561821 0.214519,-0.490351 0.407966,-1.131095 0.429885,-1.423876 0.03391,-0.453078 -0.0135,-0.523457 -0.318388,-0.472741 -0.19703,0.03278 -0.91756,0.5434 -1.60118,1.134734 -1.204675,1.042045 -3.357112,2.186146 -4.667958,2.481196 -1.078243,0.242693 -0.651409,-0.05184 0.989301,-0.682648 1.579259,-0.607186 3.310613,-1.726425 3.304707,-2.13634 -0.0017,-0.116215 -0.274848,-0.427043 -0.607057,-0.690714 -0.332208,-0.263672 -0.946724,-0.918848 -1.365593,-1.455948 -0.803702,-1.030558 -1.877293,-2.03653 -2.178064,-2.04088 -0.240719,-0.0033 -0.225991,0.696591 0.03516,1.671122 0.184651,0.689078 0.185224,0.743075 0.004,0.390622 -0.115547,-0.224943 -0.380785,-1.061924 -0.589391,-1.859953 -0.285541,-1.092352 -0.586671,-1.758985 -1.218394,-2.697248 -0.461512,-0.68546 -0.857138,-1.203431 -0.879168,-1.151049 -0.02203,0.05238 -0.190631,0.417449 -0.374669,0.811261 -0.221419,0.473808 -0.306429,0.884558 -0.251301,1.214237 0.102513,0.613031 -0.184855,0.822584 -0.865298,0.630991 -0.265263,-0.07468 -0.481388,-0.05246 -0.48028,0.04943 0.0033,0.31004 1.148219,3.375332 1.474898,3.948991 0.280544,0.492651 0.27165,0.489428 -0.106212,-0.03848 -0.226819,-0.316886 -0.715883,-1.328668 -1.086811,-2.248406 -0.370926,-0.919736 -0.736638,-1.70338 -0.812695,-1.741431 -0.07606,-0.03805 -0.215483,0.185128 -0.30984,0.495951 -0.133779,0.440681 -0.214107,0.512134 -0.364766,0.324467 -0.336924,-0.419681 -0.659961,-0.0059 -1.160952,1.487324 -0.267772,0.798065 -0.585796,1.508011 -0.706721,1.577659 -0.345917,0.199233 -0.112722,0.719899 0.539433,1.204411 0.680837,0.505821 0.483217,0.60297 -0.26811,0.131794 -0.285198,-0.178854 -0.556524,-0.543867 -0.635232,-0.854582 -0.136711,-0.53969 -0.139723,-0.540541 -0.60809,-0.171703 -0.258884,0.203866 -0.502941,0.403099 -0.542346,0.442735 -0.122044,0.122759 0.719881,1.110828 0.946521,1.110828 0.37457,0 1.119675,0.673147 1.47141,1.329309 0.187088,0.349013 0.606224,0.882177 0.931414,1.184814 0.32519,0.302633 0.920976,0.926931 1.323966,1.387323 0.402993,0.460393 1.273507,1.257394 1.934478,1.771112 1.60038,1.243841 2.849654,2.297501 2.849654,2.403454 0,0.180751 -0.75392,-0.356173 -1.482936,-1.056115 -0.417924,-0.401254 -1.05601,-0.926175 -1.417975,-1.166491 -0.76662,-0.508976 -3.708095,-3.460231 -4.335466,-4.349884 -0.236437,-0.335281 -0.784538,-0.859508 -1.218005,-1.164949 -0.433465,-0.305439 -1.010144,-0.799871 -1.281508,-1.098739 -0.404464,-0.445453 -0.514019,-0.488056 -0.607859,-0.236377 -0.153509,0.411709 0.197712,1.622174 0.658851,2.270695 0.203912,0.286772 0.37075,0.744228 0.37075,1.01657 0,0.368745 0.153214,0.606274 0.600093,0.930332 0.716568,0.519627 0.918245,0.541707 1.027966,0.112553 0.117273,-0.458702 0.420592,-0.399102 0.638887,0.125521 0.103198,0.248024 0.276512,0.396278 0.388118,0.331998 0.110903,-0.06386 0.241382,-0.01963 0.289944,0.09828 0.04856,0.117926 0.20589,0.158402 0.349616,0.08993 0.186828,-0.089 0.632401,0.358801 1.563066,1.570876 0.902995,1.176041 1.708103,1.992306 2.628336,2.66477 1.341078,0.979992 2.258004,1.948404 2.258004,2.38479 0,0.130984 -0.21018,-0.06762 -0.467068,-0.441316 -0.256888,-0.373703 -1.111283,-1.176179 -1.898653,-1.783277 -1.344736,-1.036858 -1.656731,-1.343943 -3.064089,-3.015872 -0.510676,-0.606675 -1.59458,-1.202656 -1.589466,-0.873959 0.0067,0.431853 0.412024,1.799375 0.650753,2.195684 0.153177,0.254286 0.521146,0.608159 0.817707,0.786382 0.296562,0.178228 0.669011,0.597662 0.827667,0.932081 0.158655,0.334418 0.416456,0.669004 0.572891,0.743524 0.218047,0.103863 0.854484,1.573789 0.854484,1.973524 0,0.280171 -0.286789,-0.02514 -0.36325,-0.386705 -0.12444,-0.588482 -1.427942,-2.460351 -2.072758,-2.976554 -0.652034,-0.52198 -1.228846,-1.471594 -1.34557,-2.215228 -0.141292,-0.900157 -0.46233,-0.716069 -0.64446,0.369545 -0.164672,0.981545 -0.571865,1.543372 -0.957576,1.321221 -0.123278,-0.07102 -0.283108,0.111982 -0.408182,0.46735 -0.113065,0.321225 -0.705229,1.309909 -1.315926,2.19708 -0.918936,1.33495 -1.00952,1.427645 -0.525437,0.537679 l 1.15e-4,2e-6 c 0.321709,-0.591446 0.790158,-1.365704 1.041,-1.72057 0.250842,-0.354869 0.5487,-0.911367 0.661906,-1.236664 0.136241,-0.391487 0.320438,-0.591445 0.544827,-0.591445 0.262029,0 0.391332,-0.196316 0.569499,-0.864638 0.126775,-0.47555 0.2305,-1.160716 0.2305,-1.522589 0,-0.616607 -0.02655,-0.649199 -0.422485,-0.518676 -0.316545,0.104343 -0.534529,0.01486 -0.86932,-0.356565 l -0.446836,-0.495839 -0.269781,0.534955 -0.269781,0.534958 0.08177,-1.197922 0.08177,-1.197924 -0.595594,-0.708005 -0.595595,-0.708007 -0.818911,1.152401 c -0.450402,0.633821 -0.844381,1.249534 -0.875508,1.368251 -0.165506,0.631211 -2.75177,4.675599 -2.873008,4.492797 -0.04377,-0.06601 0.251441,-0.5714 0.656025,-1.123116 0.961137,-1.310665 1.485459,-2.412055 1.485459,-3.120365 0,-0.803063 -0.243096,-0.705953 -1.239629,0.366617 -0.07761,0.08353 -0.637549,1.071254 -1.89065,1.833416 -1.253102,0.762161 -3.199363,1.298759 -4.927075,2.350915 -1.727711,1.052156 -2.871731,1.086707 -4.43429,1.936358 -0.446699,0.242895 -0.567391,-0.837476 -1.076248,-0.850176 -0.254428,-0.0063 -0.959771,0.772363 -2.153789,1.46173 V 97.107424 H 118.8 l -0.77962,-20.74206 c -1.15415,-0.682267 -4.38476,-2.818048 -4.81747,-2.864062 -0.86541,-0.09203 -5.7771,0.510503 -6.77225,0.322073 -0.99514,-0.188435 -21.775316,-1.729106 -22.689999,-1.991602 -0.914683,-0.262495 -4.414518,-0.275803 -5.038541,-0.590019 -2.496091,-1.256863 -4.332592,-2.610225 -4.670415,-3.089763 -0.429903,-0.610242 -0.804489,-1.070279 -0.832416,-1.022306 -0.02792,0.04797 -0.221466,0.498549 -0.43009,1.001277 -0.208622,0.502731 -0.442986,0.914054 -0.520809,0.914054 -0.241065,0 -0.157142,-0.333106 0.216738,-0.860285 0.452289,-0.637741 0.448831,-0.695095 -0.06237,-1.034722 -0.67238,-0.446705 -1.142462,-1.094378 -1.449131,-1.996609 -0.157028,-0.461976 -0.375774,-0.839954 -0.486109,-0.839954 -0.110335,0 -0.737727,0.540921 -1.394211,1.202048 -1.163647,1.171876 -1.121861,1.028315 0.176079,-0.604953 L 69.885812,64.10967 69.312635,63.338624 C 68.494867,62.238556 68.421259,62.1613 67.961919,61.920965 67.535885,61.698055 67.09372,60.499479 66.88082,58.990421 c -0.05424,-0.384437 -0.174094,-0.699099 -0.266346,-0.699244 -0.311792,-4.94e-4 -1.669712,2.410588 -1.841048,3.268903 -0.210076,1.052401 -0.749124,1.746943 -1.725484,2.223215 -0.416208,0.203029 -0.970918,0.609135 -1.232689,0.902455 -0.817664,0.916212 -3.516525,3.283908 -3.743223,3.283908 -0.118813,0 0.288568,-0.431594 0.905295,-0.959095 0.616724,-0.527503 1.485676,-1.410392 1.931007,-1.961975 0.445328,-0.551587 1.404659,-1.447282 2.131844,-1.990436 1.050485,-0.784634 1.351614,-1.114381 1.465517,-1.604792 0.07884,-0.339482 0.398784,-1.075125 0.710965,-1.634764 0.697119,-1.249702 0.737778,-1.456348 0.353447,-1.796366 -0.166903,-0.147659 -0.470745,-0.446557 -0.675202,-0.664221 -0.320122,-0.3408 -0.442912,-0.3605 -0.884266,-0.141865 -0.629925,0.312029 -0.761217,0.172982 -1.217588,-1.289458 -0.546901,-1.752539 -0.739632,-1.688558 -2.388144,0.792795 -1.123218,1.690675 -0.796304,1.318099 -1.310166,1.539532 z"
       id="path9021" />
    <path
       style="fill:none;stroke:#000000;stroke-width:0.026;stroke-miterlimit:4;stroke-dasharray:none;stroke-opacity:1"
       d="m 59.245794,57.993965 c 0.24484,0 1.86119,-2.712695 2.14314,-3.520058 0.134253,-0.38444 0.343637,-0.698983 0.465295,-0.698983 0.292742,0 1.284633,1.358896 1.663523,2.279036 0.257184,0.624574 0.381211,0.731965 0.845351,0.731965 0.324703,0 0.620944,0.139254 0.734978,0.345481 0.146131,0.264273 0.372126,0.322944 0.961433,0.249593 0,0 0.302749,-0.201392 0.618387,0.02105 0.315639,0.222443 0.400087,0.666408 0.400087,0.666408 0.172965,0.5151 0.327405,0.38587 0.323905,1.406111 -0.09107,0.136687 0.420524,1.827871 0.552953,1.827871 0.05679,0 0.5066,0.48391 0.999564,1.075356 0.540177,0.648092 1.039334,1.075357 1.256296,1.075357 0.411347,0 0.650706,0.380607 1.029188,1.636517 0.154555,0.512851 0.47428,1.076658 0.761807,1.343369 0.428217,0.397219 0.55947,0.426117 0.966975,0.212903 0.461699,-0.241569 0.484886,-0.223388 1.114896,0.874149 0.353865,0.616468 1.132123,1.24001 1.415048,1.528562 0.141463,0.144276 1.937317,0.823289 4.229115,1.910568 0.572949,0.27182 4.574192,0.217739 4.978353,0.563768 0.588204,0.503599 21.344162,1.993643 22.166332,2.11417 0.82217,0.120527 6.04623,-0.803418 6.82198,-0.69152 0.77576,0.111897 4.20522,3.169441 4.82053,3.317387 l 0.2835,20.844396 H 14.68646 V 69.66349 c 0.17568,-0.01204 0.565974,-0.639533 2.05395,-1.358885 1.558133,0.52011 -0.329226,1.895492 5.410478,-1.056477 1.375398,-0.707376 4.164321,-1.747573 4.499273,-1.915556 1.572797,-0.78878 1.723085,-1.678561 2.523089,-2.717784 0.788761,-1.024621 1.161741,-1.228736 1.600803,-0.876057 0.299187,0.240325 0.398102,0.181383 1.00739,-0.600295 0.44001,-0.564504 0.790008,-1.26833 1.003612,-2.018204 0.263627,-0.925486 0.387942,-1.140836 0.633552,-1.09749 0.168063,0.02966 0.40234,-0.0913 0.520616,-0.268839 0.118276,-0.177522 0.34261,-0.322766 0.498518,-0.322766 0.493824,0 1.045601,-0.580717 1.413598,-1.487741 0.195932,-0.482924 0.430221,-0.878044 0.520642,-0.878044 0.09042,0 0.198127,-0.193567 0.239348,-0.430143 0.05419,-0.311025 0.195455,-0.430144 0.510118,-0.430144 0.286233,0 0.510926,-0.162321 0.65651,-0.474287 0.204089,-0.437334 0.26059,-0.452985 0.725159,-0.200848 0.549847,0.298422 1.075879,0.162695 1.075879,-0.277606 0,-0.153205 0.177326,-0.620379 0.394059,-1.038178 0.216734,-0.417802 0.458544,-0.915964 0.537356,-1.107032 0.12081,-0.292887 0.356894,-0.04145 1.504593,1.602519 0.748714,1.072453 1.715953,2.237045 2.149418,2.587981 0.433467,0.350938 1.397874,1.264893 2.143126,2.03101 0.745254,0.766118 1.431858,1.392942 1.525789,1.392942 0.09393,0 0.45142,-0.24079 0.794417,-0.535089 0.730858,-0.627095 1.009437,-0.663989 1.484673,-0.196629 0.32662,0.321209 0.382412,0.313044 0.854726,-0.12507 0.277912,-0.257794 0.505295,-0.557607 0.505295,-0.666248 0,-0.108651 0.08548,-0.19753 0.189964,-0.19753 0.271989,0 0.710914,-0.780024 1.240476,-2.204481 0.252861,-0.680166 0.519654,-1.236664 0.592876,-1.236664 0.163785,0 1.980603,1.6981 2.272187,2.123713 1.036727,0.990298 2.337175,1.52813 3.477844,2.3104 z"
       id="path8392" />
  </g>
</svg>
